<svg xmlns="http://www.w3.org/2000/svg" width="976.88" height="976.124" viewBox="0 0 976.88 976.124">
  <g id="Group_425" data-name="Group 425" transform="translate(-943 -78.391)">
    <g id="composition-13" transform="translate(-129.272 -12.1)">
      <path id="Triangle" d="M421.3,0l421.3,842.605H0Z" transform="translate(2049.152 236.809) rotate(100)" fill="#f7bbc3" fill-rule="evenodd"/>
      <g id="Characters" transform="translate(1072.272 321.935)">
        <g id="Character_running" data-name="Character/running" transform="translate(0 0)">
          <path id="Accent" d="M483.526,520.669c27.062,7.214,53.83,15.7,80.665,23.7,3.019.9,3.011,1.052,5.711-.574q11.016-6.633,22.4-12.647c22.832-12.137,46.3-21.848,71.441-28.027a543.6,543.6,0,0,1,54.111-10.4,37.488,37.488,0,0,1-9.866,15.617c-3.436,3.1-8.12,4.8-12.367,6.465-12.622,4.949-25.837,8.41-38.242,13.912-12.653,5.612-20.646,17.277-23.049,30.811-.45,2.532-.423,2.917,1.656,4.194a38.35,38.35,0,0,0,7.729,3.146c20.623,7.022,42.37,11.346,63.7,15.608,11.32,2.263,22.682,4.365,34.1,6.06,7.087,1.052,14.576,2.463,21.774,2.043,30.848-1.8,49.132-38.506,58.163-63.334,27.873,15.094,59.85,24.742,91.07,29.4,37.857,5.644,85.544,5.954,115.467-21.934,14.252-13.283,23-31.268,29.433-49.382-20.973-1.8-41.852-4.942-62.652-8.123q-5.447-.833-10.891-1.7c-1.459-.232-3.7-1.051-5.2-.833-2.267.329-5.194,2.786-7.2,3.876a339.882,339.882,0,0,1-47.812,21.884c-8.847,3.148-18.032,5.933-27.413,6.865-10.062,1-20.366-1.056-30.083-3.512-24.377-6.161-49.879-16.586-70.211-31.61-4.945,7.05-13.873,11.825-22.386,8.423-9.323-3.726-14.506-13.5-19.5-21.534-1.819-2.926-5.249-2.947-8.633-3.81-9.453-2.411-19.021-4.376-28.637-6.007-31.577-5.355-64.046-7.172-95.916-3.478a244.966,244.966,0,0,0-89.137,28.708c-11.928,6.558-23.543,14.156-33.454,23.543-6.26,5.929-13.575,13.688-14.77,22.649" transform="translate(-309.234 -311.734)" fill="#ff5678" fill-rule="evenodd"/>
          <path id="Ink" d="M357.509,150.059c9.76,3.266,18.565,8.066,27.167,13.654,4.192,2.723,8.385,5.91,13.017,7.838,4.113,1.71,8.6,2.489,12.825,3.894,18.923,6.3,39.456,7.564,58.7,1.51,19.615-6.172,36.265-19.427,56.55-23.584,19.784-4.055,39.9-3.158,58.9,4.185,9.228,3.566,17.009,9.559,24.883,15.4,7.546,5.593,15.463,11.109,21.3,18.575,5.737,7.332,9.049,16.456,11.577,25.328a53.431,53.431,0,0,1,2.025,15.722c-.072,3.723-2.042,7.32-.884,10.92,1.625,5.048,3.992,8.758,3.382,14.378a18.98,18.98,0,0,1-5.767,11.6,28.874,28.874,0,0,1-11.649,6.911c-3.327,1.069-4.379.8-6.314-2.1-5.414,4.9-9.282,11.093-16.066,14.33a28.006,28.006,0,0,1-10.527,2.618c-2.811.178-5.389.26-7.764,1.969-2.492,1.794-11.6,9.8-8.117,12.946,2.033,1.836,6.776,2.2,9.361,3.256a63.1,63.1,0,0,1,10.382,5.407,121.413,121.413,0,0,0,37.86,16.064,182.582,182.582,0,0,0,43.84,5.607c13.515.049,27.675-.977,40.208-6.447a63.746,63.746,0,0,0,16.743-10.467c4.911-4.35,7.925-10.4,12.971-14.447,3.266-2.62.245-6.655-.764-10.251a128.254,128.254,0,0,1-4.246-23.213c-.605-7.35-1.616-14.678-2.923-21.951-1.384-7.71-4.268-14.886-6.305-22.416-1.5-5.552-3.013-12.069-1.272-17.739.864-2.813,2.78-5.785,5.5-7.127,2.435-1.2,3.937-.053,6.119-.182,6.4-.376,11.345,2.233,16.177,6.5,2.61,2.307,5.635,4.328,8.121,6.744,1.935,1.879,2.393,4.911,4.455,6.577,3.385-8.636,6.931-19.615,18.412-14.676,9.083,3.908,10.251,18.593,14.657,26.249,2.477-2.038,2.755-6.055,3.719-8.9a19.151,19.151,0,0,1,5.045-8.128c5.173-4.544,11.484-2.719,15.045,2.724,1.9,2.91.77,6.25,2.66,9.124,1.875,2.85,1.289,6.179,2.055,9.5.97,4.207,2.143,8.352,2.924,12.606a28.676,28.676,0,0,1,.8,6.2c-.039.837-.716,2.276-.507,3.1.272,1.081,1.556,2.053,2.027,3.123.634,1.437.4,2.481.47,3.963a31.275,31.275,0,0,0,1.611,7.492,32.6,32.6,0,0,1-1.417,21.324,29.043,29.043,0,0,0-2.962,9.115c-.285,2.251-1.982,4.3-1.88,6.722.142,3.368,9.154,8.561,2.04,10.795-2.971.933-3.608.445-4.419,3.839a65.793,65.793,0,0,1-3.04,9.854c-2.8,6.81-6.947,12.907-10.857,19.109-4.233,6.713-8.677,13.2-14.93,18.205a109.106,109.106,0,0,1-19.066,11.759,95.458,95.458,0,0,1-45.121,10.588c-16.7-.407-33.634,1.17-50.181-1.664-16.942-2.9-33.471-7.708-50.344-10.931-7.58-1.448-14.645-3.027-21.541-6.6a160.324,160.324,0,0,1-20.38-11.955c-4.41,10.566-6.785,21.58-13.107,31.3-5.519,8.483-12.175,16.46-20.322,22.543-7.958,5.944-18.356,10.389-28.377,10.771-3.058.116-7.759-1.226-9.953,1.078-1.1,1.152-1.21,3.442-1.646,4.922-.741,2.518-1.815,4.975-2.412,7.534-.9,3.88,2.74,3.94,5.933,5.514,4.282,2.112,8.464,4.42,12.6,6.8,4.229,2.429,8.262,5.223,12.5,7.614,3.637,2.052,7.393,3.636,10.895,5.962,8.275,5.5,17.343,9.163,26.229,13.514,9.514,4.659,18.766,9.856,28.115,14.832,18.517,9.858,37.092,20.088,54.575,31.706,8.161,5.423,16.006,11.07,24.376,16.2,7.806,4.785,16.717,10.386,21.686,18.236,3.875,6.122,9.443,9.022,15.85,12.358,3.776,1.966,6.112,2.338,9.179-.879,3.01-3.158,5.919-6.3,9.1-9.312,13.021-12.353,24.161-25.875,35.02-40.1,8.062-10.561,19.115-23.24,33.921-20.926,4.439.695,7.387,2.759,10.67,5.665,2.227,1.972,6.252,3.262,7.737,5.815.858,1.475,1.217,3.364,2.08,4.911a31.369,31.369,0,0,1,2.632,4.964c1.021,2.994-1.181,7.749,1.015,10.187,1.608,1.785.113,5.99-.326,8.007a89.691,89.691,0,0,1-2.782,11.122c-1.01,2.836-2,6.723-4.131,8.936-1.9,1.975-4.125,1.781-3.629,5.2-2.055-.684-3.821,4.234-4.4,5.474a33.694,33.694,0,0,1-5.765,8.831c-6.34,6.981-13.6,11.7-21.821,16.142-3,1.618-9.219,3.871-9.917,7.612-.668,3.594,1.383,6.512-.059,10.35-3,7.985-9.74,16.4-15.242,22.847-4.949,5.795-9.749,9.668-17.685,8.307-7.031-1.2-13.986-4.791-19.837-8.769-7.046-4.791-14.512-8.394-22.122-12.2-3.745-1.871-7.493-3.6-10.739-6.287-3.017-2.5-5.635-5.313-9.131-7.169-2.491-1.323-5.745-2.259-6.783-5.2-1.132-3.21.936-5.213,2.7-7.513,1.181-1.544,1.834-1.784.815-3.024-.815-.99-3.05-1.829-4.173-2.431-2.717-1.458-5.433-2.733-8.338-1.131-3.24,1.787-5.455,5.482-7.883,8.167-2.909,3.216-6.177,6.147-9.367,9.079-6.328,5.819-13.263,11.032-19.444,16.987-1.414,1.361-4.2,4.813-6.531,4.16-1.722-.482-.816-1.5-1.7-2.292-.955-.847-1.767-.857-2.99-1.774-3.043-2.278-3.972-6.646-7.164-9-3.28-2.424-7.331-4.167-10.883-6.161a404.235,404.235,0,0,1-46.823-30.187c-7.43-5.644-14.448-11.77-21.646-17.7a91.991,91.991,0,0,0-10.591-8.117c-3.437-2.068-7.255-3.513-10.756-5.5-7.5-4.25-15.524-7.5-22.948-11.891-3.491-2.063-6.078-4.835-9.325-7.133-2.843-2.011-5.21-3.2-7.326-6.133-1.006,2.213-3.764-.674-4.76-1.351-.784-.535-1.789-.912-2.516-1.523s-1.174-1.983-1.73-2.411c-1.23-.947-2.659-.731-4.311-1.323A23.256,23.256,0,0,1,471.2,516.3c-1.175-1.114.742-.238-1.243-1.6-.923-.636-2.508-.807-3.545-1.481-2.463-1.6-4.725-3.65-7.077-5.414-4.261-3.193-9.773-6.1-12.191-11.08-12.993,10.666-25.541,22.241-40.461,30.223-14.411,7.71-31.081,11.211-46.468,16.53-15.833,5.473-31.824,10.974-47.923,15.613-7.826,2.255-15.9,3.874-23.9,5.4-8.206,1.563-16.3,1.1-24.531,1.981-4.048.434-8.1.293-12.146.685-3.726.361-7.34,1.307-11.04,1.8-3.262.434-6.94.067-10.077.954-2.3.65-5.341,2.957-7.026-.044-1.235,1.849-1.627.976-3.235.858a11.48,11.48,0,0,0-3.91.269c-2.73.521-5.744.722-8.062-1.422-1.061,3.843-11.337.348-12.563-2.191-1.38,4.068-13.864.558-14.045-3.26-.152-3.232,1.995-7.879,2.881-10.916,1.446-4.956,3.239-9.8,5.112-14.61,1.981-5.084,4.013-10.151,6.051-15.214.9-2.224,1.741-4.484,2.763-6.654.5-1.064,1.806-2.652,1.785-3.882-.063-3.592-6.5-3.848-9.227-4.744a50.721,50.721,0,0,1-6.106-2.333c-1.42-.682-3.124-2.249-4.695-2.466-3.6-.5-2.785,3.576-3.176,6.078-.5,3.22-2.277,4.877-5.69,4.9-3.986.027-15.353-6.825-17.5-1.6-1.006,2.447-.733,7.14-1.1,9.77a46.6,46.6,0,0,0,.225,12.895c.969,7.077,4.169,16.029.567,22.813-7.19,13.548-32.122,5.383-40.08-3.144-11.72-12.559-11.378-31.38-5.762-46.585,2.731-7.4,6.686-15.32,11.857-21.334,2.3-2.672,6.667-5.251,7.425-8.922.63-3.045-1.738-5.852-1.24-8.973.592-3.7,3.727-5.951,6.414-8.2,2.8-2.338,5.519-4.887,8.706-6.7,7.376-4.19,15.741-1.66,23.074,1.416A129.723,129.723,0,0,1,186.912,468.5c3.546,2.431,6.553,4.618,10.758,5.794,3.224.9,6.481,1.789,9.719,2.635,3.056.8,5.632,1.393,7.777-1.248,2.361-2.906,3.142-4.081,7.228-4.206,4.351-.132,8.705.11,13.052.276.918.035,3-.251,3.728.515.645.681-.289,2.1.312,2.536.949.681,6.339-6.932,6.8-.769.294-2.991,3.434-1.543,5.185-1.149.637.143,1.273.312,1.9.452a1.418,1.418,0,0,1,1.7.524,1.144,1.144,0,0,0,1.46-.822c7.607-.11,15.28.369,22.906.329,8.819-.047,17.688-.133,26.424-1.41,3.236-.473,6.474-1.126,9.716-1.523a21.057,21.057,0,0,1,4.182.073,3.288,3.288,0,0,1,1.439.658,2.213,2.213,0,0,1,.988-.99c5.548-1.624,11.256-2.726,16.894-4.144a61.856,61.856,0,0,1,11.184-2.039l.744-.047,1.579.465a2.7,2.7,0,0,1,1.127-1.317,12.527,12.527,0,0,1,3.749-.868c5.495-.561,10.886-.5,16.08-1.306,2.735-.423,12.73-1.973,14.573.739,1.413-3.3,11.59,1.193,14.571-.757-4.625-6.306-6.64-13.053-7.949-20.679-1.427-8.307-2.323-17.045-.213-25.319A43.915,43.915,0,0,1,406.5,394.094c5.6-5.187,6.911-11.392,10.646-17.794,7.781-13.339,20.6-21.488,34.884-26.409,7.778-2.68,15.685-4.91,23.53-7.372,6.372-2,11.707-4.862,14.93-10.98-27.132,0-53.095,8.413-77.938,18.617q-18.538,7.613-36.868,15.79a153.014,153.014,0,0,0-18.154,9.291l-1.6.987c-1.868,1.155-3.725,2.337-5.467,3.67-.415.318-2.682,1.64-2.815,2.081-1.036,3.432,4.671,8.953,6.152,11.9,2.017,4.009,3.993,8.7,4.241,13.218.3,5.406-3.153,8.111-8.467,7-6.5-1.357-11.419-6.771-16.579-10.536-1.151,3.455.335,7.429,1.141,10.8,1.105,4.618,2.2,9.305,2.99,13.991,1.111,6.623.321,14.1-6.269,17.566-16.795,8.842-25.357-14.487-28.768-26.141-2.305,1.662-2.037,7.752-2.461,10.3-.815,4.9-1.75,10.16-3.926,14.66-1.667,3.446-4.5,7.469-8.671,7.841-4.523.4-8.168-3.485-10.194-7.073-3.5-6.2-4.326-13.108-4.6-20.055-.062-1.53.382-15.7-1.165-16.105-4.55,8.15-7.088,17.212-12.433,24.984-4.684,6.812-11.733,11.431-18.066,3.556-9.808-12.2-6.67-29.821-2.652-43.543a96.5,96.5,0,0,1,9.8-22.732,59.173,59.173,0,0,1,6.137-7.79c1.82-2.152,2.521-3.162,1.736-5.642-.457-1.446-.89-1.5-.482-3.1a23.787,23.787,0,0,1,1.676-3.623,92.7,92.7,0,0,1,4.706-8.919c3.763-6.135,8.887-11.238,14.272-15.971l.541-.474-.026.024c-.347.319,2.173-1.6,2.121-1.6l-.014.005.066-.04c.929-.607,1.283-2.6,2.341-.822l.077.134c.165-2.622,2.374-4.112,4.268-5.581a9.8,9.8,0,0,1,2.268-1.635c.6-.228,1.982,0,2.414-.322.839-.617,1.25-1.84,2.047-2.568a17.206,17.206,0,0,1,2.812-1.623c2.229-1.36,4.277-3.026,6.452-4.476a144.769,144.769,0,0,1,14.384-8.386,245.8,245.8,0,0,1,32.472-13.382c9.732-3.329,19.818-6.413,29.814-8.838,10.259-2.49,21.042-1.87,31.52-2.893a341.082,341.082,0,0,1,65.244.417c10.462,1.021,20.864,2.617,31.182,4.613,10.007,1.935,20.415,4.137,29.3,9.368,1.894,1.115,5.316,4.689,7.537,4.558,1.87-.11,3.492-3.558,4.37-4.917,2.088-3.227,4.711-6.193,6.485-9.593,2.183-4.188,3.3-8.9,4.944-13.3-7.616,1.05-15.615,1.73-22.925-1.187-6.62-2.642-11.081-7.921-16.025-12.8-5.209-5.135-10.787-8.614-18.238-9.086-8.452-.536-16.075,2.5-23.849,5.322C460.92,253.444,444.5,260,427.593,264.508a120.209,120.209,0,0,1-25.316,4.33c-4.358.2-8.77,0-13.08.807-1.787.333-2.324.612-3.737-.178.192.108-1.8-3.2-2.194-1.914-.381,1.241.242,2.211-.846,3.146-1.278,1.1-4.05.564-5.53.437a40.945,40.945,0,0,1-6.118-1.442c-3.3-.773-7-.264-10.359-.686a22.358,22.358,0,0,1-4.1-1.023c-1.473-.453-.524-.4-2.041-.589a15.016,15.016,0,0,1-3.73-.523c-1.454-.473-2.8-.8-4.286-1.145-1.362-.316-2.462-.886-3.729-1.257,1.592.466-2.045-.975-1.887-.591l.014.025-.013-.013c-.394-.445-.852-1.338-1.634-1.477l-.161-.017c2.572,3.947-8.734-.224-9.483-.451-6.248-1.9-12.648-6.214-19.177-6.611-6.374-.388-12.556,3.954-17.687,7.175q-9.3,5.834-18.539,11.74c-13.645,8.684-28.421,16.451-43.734,21.729-7.448,2.567-15.081,4.626-22.636,6.849-3.406,1-7.126,1.414-10.381,2.851-2.2.972-5.371,3.879-7.595,1.3-.9,2.253-5.243,2.138-7.087,2.208-.284.011.172.551-.477.505-.955-.067-1.211-.995-1.963-1.189-1.528-.393-1.687.2-3.2.78-1.968.759-1.593.1-3.332-.077-1-.1-2.051.444-3.048.475-.405.013-.937-.662-1.524-.652-.564.011-1.886.684-2.633.8a32.459,32.459,0,0,1-5.955.011c-2.7-.121-29.717-2.529-27.778-8.176-3.251,3-10.792-1.9-14.181-3.46-1.262-.579-1.343-1.143-2.055-1.8q.295-1.177-1.009-1.051l-.557-.063c-1.489-.759-2.019-.741-3.2-2.072-1.581-1.776-4.492-3.382-5.311-5.7-.22-.621.014-1.694-.21-2.182-.286-.626-1.039-.554-1.214-1.062a9.966,9.966,0,0,1,.209-1.361c-1.367-1.144-3.295-.6-4.879-1.975-4.378-3.8-7.02-11.417-8.28-16.827-3.295-14.15-4.419-28.378,1.975-41.762a122.658,122.658,0,0,1,11.114-18.552,33.727,33.727,0,0,1,3.863-5.124c.666-.614,1.538-.74,1.862-1.107,1.733-1.96,2.632-4.481,4.955-6.389a73.636,73.636,0,0,1,7.992-6.066c2.621-1.613,5.885-2.655,8.289-4.164.659-.414.432-1.068,1.149-1.56a8.714,8.714,0,0,1,2.6-.816,19.083,19.083,0,0,1,3.345-.944c1.977-.172,2.641.395,4.132,1.8,0-5.4,9.952-6.155,13.977-6.165,1.857,0,11.191-.838,11.012,2.006,2.126-2.809,8.59-.719,11.4.123,3.374,1.01,5.509,3.482,7.674,6.122l1.205-2.511c.614.429,2.691,1.143,2.022,2.274,2.431-2.144,1.061-.378,3.143,0A8.755,8.755,0,0,0,196.3,181c.08,1.271-.472,1.683-1.259,2.569,1.886.035,9.135-.718,3.77,1.652.717,1.282,4.119.832,5.315,1,.634.091,2.213.124,2.592.588.249.3-.189,1.148-.133,1.223.511.693-.551,1.049.5,1.249.258.049,1.075-.77,1.26-.767,1.361.021.406-.249,1.849-.041.509.073,1.486.653,2.139.787,9.855,2.016,21.9-5.569,29.06-11.441,8.556-7.016,16-14.516,26.289-19.07a186.185,186.185,0,0,1,31.61-10.4C318.849,143.7,338.269,143.619,357.509,150.059ZM606.443,599.013l.95.5,1.353-.685C607.453,598.22,607.364,597.951,606.443,599.013Zm105.02-27.945c-2.37,1.5-4.405,4.873-6.481,6.889-2.913,2.829-5.959,5.519-9,8.209,3.506,1.216,8.591,6.136,12.384,3.907,1.879-1.1,3.065-4.351,4.254-6.073a76.89,76.89,0,0,1,6.153-7.577C721,573.942,713.948,569.5,711.463,571.068ZM489.229,520c.94.394,3,2.661,2.042,3.455C490.3,522.333,489.006,521.525,489.229,520ZM187.52,484.121c-1.716,1.482-3.651,4.577-4.845,6.526-1.346,2.2-1.394,3.3.662,4.767,3.972,2.832,9.742,3.663,14.349,4.983,2.459.705,5.5,2.479,7.589.237,2.069-2.219,2.074-6.354,3-9.106.754-2.229,1.561-4.439,2.343-6.658a40.147,40.147,0,0,1-12.978-.5C194.546,483.661,190.26,481.753,187.52,484.121Zm75-118.663a118.768,118.768,0,0,0-9.391,15.03,115.805,115.805,0,0,0-10.357,27.37c-1.593,6.749-3.919,16.238-.283,22.712,7.922,14.1,24-26.612,26.455-30.87,1.461-2.536,3.729-5.256,6.24-2,2.06,2.675,1.389,6.964,1.485,10.114.284,9.364-1.023,20.578,2.722,29.388,1.229,2.892,4.485,7.068,8.16,5.755,3.295-1.179,4.941-6.851,5.959-9.773a100.815,100.815,0,0,0,5.612-30.326c.021-1.965-1.743-14.957,2.8-12.083,2.975,1.879,2.853,11,3.142,13.985,1.131,11.66,3.434,31.462,17.906,33.424,3.186.432,6.792-.321,8.658-3.185,2.319-3.558-.013-8.343-.825-12.083-1.4-6.447-2.986-13.094-3.126-19.731-.086-4.069.315-10.833,6.032-9.263,6.889,1.891,9.8,10.9,17.54,11.2.007-1.813-1-3.291-1.848-4.806-2.753-4.9-7.766-9.089-9.463-14.506-.557-1.777.022-4.449-1.079-5.93-1.04-1.4-3.387-1.757-4.957-2.073-10.449-2.11-20.722-4.966-31.123-7.4-11.119-2.6-21.427-5.408-31.84-9.985C266.251,358.368,265.18,361.846,262.518,365.458Zm249.3,73.033c1.534.728,3.055,1.487,4.608,2.176,1.35.6,1.88.122,2.417-1.138C517.871,439.327,512.387,437.379,511.82,438.491ZM445.98,280.536c-19.882.583-39.321.837-58.917,4.61-9.372,1.8-18.559,3.9-27.751,6.459a37.757,37.757,0,0,0-10.691,4.37c-1.259.8-4.591,3.322-5.1.442-1.674,1.6-4.938,6.5-7.614,3.779-.469,1.966-1.932,1.905-3.359,2.574-.5.235-.776,1.035-1.422,1.325-.163.072-.217-1.051-.454-1.07-.853-.067-1.525,1.728-2.015,2.186a8.014,8.014,0,0,1-3.849,2,9.158,9.158,0,0,1-2.088.436q-1.259.517-1.509-.742a7.783,7.783,0,0,0-3.22.989c2.619.6-1.787,1.26-2.372,1.327-.072,1.956,1.6.717,2.68,1.122-.5,2.455-5.052,4.329-6.924,5.533q-.48-1.021-.96-2.041a5.417,5.417,0,0,0-1.206,1.729q-.29,1.184-1.681.819c-.868.689-1,.37-1.532,1.34-.552,1.005,1.08,2.962-1.29,2.119,0,3.339-3.1,1.315-2.559.449-2.347-.227-3.348,4.067-3.085,5.742-1.122-1.112-1.81-.971-2.937-.1l-.1.078.059-.042c.867-.586-.025,1.812.053,1.784l.01-.01c-2.383,3.139-2.158-.376-1.421-2.227-1.615.647-1.921,2.4-3.216,3.386-1.154.879-1.478.471-2.471.6-1.528.2-1.067-1.055-1.737.629-.284.713.146,1.992.146,2.77.663-.906.412-2.338,1.609-2.857-.358,2.624-5.463,11.641-7.61,6.327-2.088,1.451.213,3.04-1.158,4.984a4.831,4.831,0,0,1-1.149-3.887c-.64.852-.62,1.927-1.121,2.789-.523.9-1.07.971-1.323,1.947-.382,1.483.924.756.234,2.329-.346.79-1.968,1.481-2.606,1.926-2.235,1.557-4.494,3.36-2.325,5.948,3.4,4.05,12.346,4.513,17.153,5.194,10.249,1.452,20.238,3.862,30.337,6.1,6.081,1.346,12.037,2.843,18,4.638,4.283,1.287,10.2,2.088,12.459,6.521,11.938-11.41,27.858-17.364,42.591-24.207,15.959-7.412,32.439-14.294,49.345-19.247,14.99-4.393,30.363-6.06,45.848-7.574,4.081-.4,10.373-1.421,14.009,1.085,2.245,1.547,2.349,3.889.63,5.959-.931,1.121-1.935.83-2.5,2.829a7.291,7.291,0,0,0,.2,4.245c-1.032-.809-2.881-.327-3.41-1.753l-.052-.16-.049.17c-.706,2.784,4.22,3.169,2.71,6.508l-.1.2c-.522,1.02-.524-2.252-.983-2.276-1.25-.065-2.273,2.853-2.787,3.662,2.324,0,1.44,1.69.192,2.543-.89.609-2.392.786-3.426,1.289-2.063,1.006-3.877,2.481-5.993,3.44-2.317,1.051-4.354,1.116-6.656,1.74-.356.1-1.769.626-1.912.638-.195.017-.239.614-.405.637-1.471.208-2.582-1.157-4.007-.6-.545.214-.262,1.544-.735,1.846-.522.333-2-.092-2.633-.127-1.519-.087-1.753-.288-2.958.417-2.072,1.21-3.127,2.846-5.92,3.142-2.184.233-3.591-.18-5.67.639a53.4,53.4,0,0,1-6.145,1.566c-.26.071-.329.959-.54,1.021-.678.2-1.489.048-2.137.247a17.325,17.325,0,0,0-4.078,1.687,82.714,82.714,0,0,0-17.521,14.228c-2.175,2.375-8.24,8.356-6.262,11.793,1.269,2.205,5.649,3.277,7.834,4.208,3.258,1.39,6.628,2.4,9.921,3.689,4.1,1.6,7.811,4.088,11.988,5.482,4.032,1.346,8.346,1.611,12.511,2.329,18.021,3.107,35.676,8.1,53.708,11.2,9.888,1.7,19.984,3.728,30.028,2.126a54.383,54.383,0,0,0,24.4-10.795c12.866-9.951,21.831-24.079,26.34-39.622.931-3.211,1.126-11.242,4.131-13.206,2.5-1.636,3.816,1.969,5.44,3.394,2.638,2.314,6.505,3.209,9.68,4.529,7.859,3.267,15,6.716,23.3,8.927,8.421,2.24,16.959,4,25.472,5.843,17.256,3.744,33.728,7.285,51.465,7.343,17.551.056,35.169.716,52.526-2.516a86.844,86.844,0,0,0,41.8-21.034c5.732-5.294,10.152-11.981,14.658-18.3a83.58,83.58,0,0,0,6.552-10.618c1.388-2.73,3.774-6.683,4.018-9.778.217-2.766-1.4-2.373-4.164-2.656-4.252-.434-8.521-.709-12.775-1.147-8.58-.879-17.131-2-25.708-2.913a164.286,164.286,0,0,1-25.949-4.51c-2.542-.693-4.421-1.567-6.216.9-1.157,1.59-1.135,5.217-3.55,2.554-4.642,5.86-11.43,9.369-17.773,13.046-6.863,3.979-13.533,8.358-20.808,11.571-15.673,6.924-32.944,6.375-49.578,4.157-16.9-2.255-34.026-5.163-49.906-11.592-7.285-2.948-13.543-7.435-20.076-11.715a103.286,103.286,0,0,0-9.534-5.355c-3.683-1.894-5.934-4.7-9.264-6.89-2.245,7.306-10.878,9.818-17.7,10.145-8.514.408-15.4-3.656-20.56-10.256-4.287-5.479-5.12-13.675-11.755-16.674-7.57-3.421-16.443-4.78-24.545-6.372C485.484,282.2,465.37,279.967,445.98,280.536ZM546.913,336.71c2.14.957,8.363,8.112,3.425,8.216-3.137.067-4.982-3.868-8.447-3.272-1.555.268-3.878.8-4.261,2-.952,2.986,3.443,4.91,5.343,5.739,2.926,1.277,5.333,2.562,6.93,5.484,2.453,4.49,3.1,11.753-2.642,13.761-4.266,1.493-9.6.335-13.808-.839-3.549-.99-6.259-4.658-4.625-8.3.463-1.032,1.7-2.853,3.146-2.171,1.147.542.589,1.57.941,2.49,1.41,3.686,11.954,8.94,14.382,3.369,2.961-6.793-8.3-8.839-11.733-11.11-4.441-2.935-4.558-7.957-1.169-11.793C537.366,336.921,542.6,334.781,546.913,336.71Zm18.6,23.02c-.178,1.6-.4,3.259-.676,4.845-.24,1.378-.229,2.827-1.813,3.325-1.044.329-2.063-.78-3.069-.044-1.115.817-.581-5.125-.531-5.459.33-2.216.93-6.715,3.062-8.09C566.089,351.981,565.724,357.778,565.51,359.729Zm-.23-9.287c-3.827,2.422-4.82-4.448-3.3-6.682C565.763,338.214,571.313,346.626,565.28,350.442Zm-77.745-3.376c1.094.812.732.365.732,2.527C486.995,349.649,487.188,347.907,487.535,347.066Zm4.323-1.87c-.368.858,1.288,1.888,1.821,2.022C493.712,346.941,492.9,342.762,491.858,345.2ZM284.227,332.645c-1.018,1.474-.443,2.378,1.175,1.8l.133-.05Zm20.449-14.174-.969.409-1.369,1.308C303.669,319.929,304.593,320.129,304.676,318.471Zm5.365-2.071c-.667-1.359-2.958,1.337-3.009,1.969C307.565,318.052,310.816,317.983,310.04,316.4Zm2.151-4.8a1.146,1.146,0,0,0,.34,1.884,9.786,9.786,0,0,0,1.481-2.85C313.144,310,312.5,310.852,312.191,311.6ZM750.93,214.544c-1.678.753-.8,3.345-.637,4.75.779,6.691,2.017,13.315,2.785,20,1.078,9.408,1.23,18.93,3,28.254,1.611,8.5,4.328,16.761,5.763,25.3.96,5.715-.872,12.319,5.947,14.052,6.132,1.559,13.123,1.644,19.41,2.329,8.1.883,16.21,1.317,24.344,1.711a113.527,113.527,0,0,1,11.632.818c2.246.344,5.042,1.832,6.769-.246,1.681-2.02,1.685-7.163,2.209-9.742a101.45,101.45,0,0,0,1.653-10.29c.768-7.837-.362-15.6-1.4-23.356-1.118-8.364-1.977-16.764-3.133-25.12-.747-5.386-.661-14.084-4.368-18.432-3.381,10.093-4.3,20.809-4.466,31.391-.037,2.272-1.524,15.329-5.477,8.963-1.1-1.771-1.117-2.782-2.824-4.278a8.553,8.553,0,0,1-2.971-5.113c-1.079-4.231-1.252-7.952-3.585-11.757-4.748-7.744-6.673-17.333-13.743-23.584-.071,7.267-1.121,15.126.23,22.3.85,4.511,4.332,11,1.461,15.466-1.431,2.226-2.259,1.562-3.944.444-1.08-.717-.914-1.05-2.27-1.768-1.293-.684-2.311-.652-3.535-1.607-4.333-3.38-4.675-9.253-6.092-14.115-3.126-10.735-13.934-17.365-22.211-24C754.569,216.2,752.315,213.923,750.93,214.544ZM587.6,236.292a33.349,33.349,0,0,1-19.632,2.067c.006,1.481,2.144,3.888.493,4.739-.394.2-2.641-.769-3.078-.883-2.432-.63-5.709-1.715-8.252-1.2-2.689.547-2.6,2.289-.839,4.262,2.467,2.769,8.661,2.882,8.731,7.477.03,1.987-1.2,4.476-1.458,6.525a85.438,85.438,0,0,1-1.539,9.113,68.685,68.685,0,0,1-5.63,14.84c-2.057,4.088-4.558,8.347-8.389,11.018-2.5,1.741-1.535.955-1.045,3.521.328,1.719.273,3-1.947,2.574l-1.274-.391c5.206,8.529,18.372,13.9,27.386,8.213-3.8-3.063,1.357-8.4,3.535-10.664,3.262-3.389,6.68-7.288,10.178-10.382,5.355-4.736,12.364-2.431,18.7-4.424,6.412-2.016,11.078-6.566,15.222-11.65,3.693-4.528,8.587-10.07,9.086-16.2.1-1.2-.485-2.607-.273-3.742.215-1.157.917-1.308,1.283-2.066a13,13,0,0,0,1.05-4.95c.388-5.826-1.464-6.741-6.937-8.246-3.189-.878-6.422-1.567-9.616-2.424-3.049-.818-5.769-2.392-8.774-3.27C598.257,228.3,593.177,234.068,587.6,236.292ZM603.913,272.9c5.034,3.053-2.9,5.007-5.831,3.658C594.125,274.738,601.1,271.2,603.913,272.9Zm9.48-25.383c4.569,5.457,9.648,16.548-.358,18.793-3.088.693-7.866,1.812-10.971.963-4.436-1.214-3.277-7,1.147-7.255,2.621-.15,8.636,1.923,10.194-1.121.845-1.651-1.076-4.273-1.368-5.921A6.119,6.119,0,0,1,613.393,247.521ZM340.654,263.907l0,.006a.543.543,0,0,0,.077.081l.018.014-.034-.032Zm281.789-14.436c3.173-.007,1.6,6.73.026,7.881C619.642,259.417,618.436,249.48,622.443,249.471Zm-20.916,5.08c-3.682.446-2.852-8.362.5-8.632C606.432,245.563,605.783,254.036,601.526,254.551Zm31.849-14.619c-.441.9-.1,9.637.951,9.8a43.931,43.931,0,0,0,.1-6.425l0-.542C634.443,242.8,634.618,237.4,633.375,239.932Z" transform="translate(-89.272 -145.024)" fill-rule="evenodd"/>
        </g>
      </g>
    </g>
  </g>
</svg>
