<svg xmlns="http://www.w3.org/2000/svg" width="841.118" height="795.4" viewBox="0 0 841.118 795.4">
  <g id="composition-23" transform="translate(-958 -991)">
    <path id="Path" d="M1663.585,1150.329c84.812,86.8,150.526,210.333,132.553,324.161-17.973,114.018-119.635,218.137-239.083,271.244s-256.494,55.391-359.466-.191c-102.972-55.771-172.057-169.408-210.437-301.509-38.568-132.1-46.244-282.284,22.841-365.275s214.931-98.6,339.808-81.659C1474.678,1014.231,1578.586,1063.722,1663.585,1150.329Z" transform="translate(0 0)" fill="#10e4e8" fill-rule="evenodd"/>
    <g id="Illustrations_reading-side" data-name="Illustrations/reading-side" transform="translate(1012.471 1062.467)">
      <path id="Accent" d="M950.763,819.494c-3.593,4.154-8.9,7.238-12.969,11.036-4.274,3.99-8.914,7.476-13.172,11.417-18.782-22.952-44.512-37.025-66.8-56.071-10.567-9.03-18.352-21.278-24.05-33.848A113.784,113.784,0,0,1,827,732.087c-.76-3.092-1.5-6.174-2-9.308-.6-3.8-.758-4.119-3.319-7.082-1.1-1.275-3.238-5-5.4-4.589-1.818.346-5.141,5.877-6.29,7.243-5.523,6.571-10.878,13.342-16.693,19.659-8.9,9.666-17,19.177-25.256,29.421-16.9,20.959-35.125,40.688-53.518,60.41-1.364,1.462-4.545,5.751-6.5,6.328-2.383.7-6.256-2.222-8.656-3.855-5.793-3.943-10.358-8.823-15.311-13.71-9.663-9.537-16.207-22.923-20.609-35.66-2.635-7.624-4.348-15.527-7.068-23.125-1.133-3.167-3.7-7.059-2.4-9.817a10,10,0,0,1,3.732-3.174c1.031-.2,2.75,1.215,3.108,1.117,3.42-.936,1.522-4.516,3.557-6.442,1.153-1.093,7.019-.933,8.771-1.533,6.4-2.2,12.149-6.386,18.2-8.887,25.344-10.469,51-20.652,72.875-37.747,5.674-4.433,9.445-7.764,16.215-10.629,6.842-2.9,13.72-5.479,20.7-8.005a193.693,193.693,0,0,1,18.716-5.917c6.88-1.728,16.641-3.919,23.515-1.693,13.5,4.37,17.86,15.492,23.236,27.224a351.415,351.415,0,0,0,25.6,45.5c18.342,28.111,40.65,53.335,58.548,81.673" transform="translate(-391.344 -440.826)" fill="#ff5678" fill-rule="evenodd"/>
      <g id="ink" transform="translate(0 0)">
        <path id="ink-layer" d="M152.843,132.164c-.743-.377-6.543,1.983-7.517,2.344-3.889,1.443-7.551,3.839-11.215,5.789q4.212,5.125,8.423,10.251c2.752-6.749,6.289-12.318,10.308-18.385Zm1.915,41.993c-.955.107,7.11,19.485,8.052,21.661,3.427,7.914,7.026,15.75,10.5,23.644,3.365,7.65,7.633,14.687,11.933,21.833,3.678,6.111,7.461,15.6,13.009,20.122-3.5-15.538-3.042-33.4-13.089-46.449-10.415-13.525-20.712-26.732-30.4-40.811ZM559.419,381.369c-15.564-24.641-35.046-46.44-51.275-70.641-9.087-13.551-17.932-27.276-25.582-41.7-5.564-10.493-9.022-25.463-17.616-33.485-3.787-3.534-7.833-6.993-12.915-8.577-6.954-2.166-16.529-.019-23.515,1.694-13.018,3.191-25.736,8.147-38.067,13.352-12.508,5.279-23.179,14.761-34.48,22.38-12.123,8.174-25.245,14.128-38.827,19.34-11.826,4.539-22.347,11.054-34.11,15.622-2.344.911-7.128.777-9.094,1.964-2.119,1.278-1.285,5.052-3.857,6.445-1.16.628-1.547-1.649-2.438-1.612-1.09.045-2.083,1.324-3.133,2.134-4.275,3.3-1.656,5.5.037,10.034,5.518,14.785,8.483,29.828,16.23,43.787A89.534,89.534,0,0,0,307,391.456c1.633,1.156,6.955,5.635,8.871,5.337,1.725-.267,5.235-4.853,6.427-6.1,5.4-5.651,10.345-11.73,15.746-17.39,8.347-8.747,16.382-17.729,24.482-26.595,9.4-10.293,17.725-21.955,26.195-32.953,3.9-5.059,8.911-9.18,13.241-13.872,5.823-6.308,11.17-13.089,16.694-19.659,1.67-1.988,4.47-7.074,7.067-7.014,1.82.042,5.029,4.326,5.981,5.669,3.538,4.99,3.522,14,5.281,20.231a105.609,105.609,0,0,0,22.653,41.746c10.558,11.656,24.083,19.945,36.571,29.314,13.528,10.151,26.344,20.538,37.073,33.649,4.258-3.941,8.9-7.428,13.172-11.417,4.072-3.8,9.377-6.881,12.969-11.036ZM359.084,451.081c3.026.031,8.15,1.892,10.856.771-8.029-8.882-15.4-16.5-25.56-23.012-10.541-6.755-21.048-13.449-31.286-20.654-20.633-14.52-35.81-31.739-44.428-55.92-2.219-6.227-3.706-12.757-5.332-19.158-.875-3.447-2.617-19.575-5.575-20.968-1.752-.825-14.94,8.442-17.029,9.6a148.333,148.333,0,0,1-14.84,6.91,234.46,234.46,0,0,1-33.561,10.905c-13.8,3.47-23.2-2.271-31.755-13.118-9.7-12.306-17.762-26.19-26.631-39.113a120.7,120.7,0,0,1-10.354-18.229c-1.95-4.242-9.682-15.686-7.01-20.206,7.622,5.8,10.365,17.339,15.557,25.108,6.471,9.682,13.764,18.811,20.269,28.484,5.47,8.134,11.05,17.991,19.132,23.839,7.108,5.143,13.861,3.562,21.512,1.25,9.272-2.8,18.883-4.181,27.969-7.656,9.833-3.759,19.137-9.092,28.731-13.441,4.473-2.028,9.828-3.18,14.043-5.708,3.633-2.177,3.091-3.327,3.357-7.964.312-5.41.671-10.824.91-16.239.161-3.638-1.807-8.571-.472-11.287-10.892,1.888-21.538,4.417-32.354,6.654-5.922,1.225-11.632,2.739-17.614,3.7-2.28.367-5.4.356-7.439,1.35q-2.443-.7-2.491.891a10.907,10.907,0,0,1-.371,1.7c-3.34,1.519-5.282-1.739-8.179-4.865a69.009,69.009,0,0,1-8.873-12.733c-5.864-10.133-12.622-19.663-18.048-30.082-5.53-10.621-10.022-21.992-14.711-33.011-4.3-10.109-7.056-21.042-11.809-30.912a55.057,55.057,0,0,0-7.949-11.771c-2.591-3.071-6.576-9.7-10.445-11.107-1.023-.373-3.7.254-4.864.171-2.316-.165-4.38-1.016-6.751-.829-5.132.4-10.727,3.646-14.828,6.5,2.65,2.362,9.28,5.233,4.518,9.487-4.621,4.131-7.174-3.279-8.937-6.525-8.3,6.818-7.1,16.218-8.063,25.851-.5,5.029-1.819,9.982-2.669,14.936-.612,3.565-.183,7.253-.358,10.893-.446,9.25-1.376,18.1-1.332,27.223.049,9.748.713,19.162,1.494,28.84,1.313,16.293,4.322,32.592,6.9,48.755,1.452,9.086,3.439,17.913,5.367,26.852,2.189,10.145,6.238,19.754,8.509,29.873,2.314-2.941,4.054-2.955,7.8-2.565,2.879.3,4.812-.385,4.644,3.61-.109,2.591-2.395,4.57-4.924,5.022-3.3.589-4.419-1.056-6.119-3.554-.4,4.73,2.784,9.676,4.042,14.3,1.191,4.378,1.98,8.669,3.981,12.859,1.953,4.088,3.625,8.12,5.6,12.168.91,1.862,1.761,3.754,2.681,5.612a14.867,14.867,0,0,0,1.708,3.03c1.629,1.858,1.37.958,3.276,2.017,4.154,2.307,2.594,1.732,2.691,6.5.095,4.7,2.5,8.151,6.37,10.792,8.2,5.6,16.287,7.164,25.609,10,8.686,2.639,17.834,4.9,27.032,4.851,11.264-.063,22.379-1.54,33.644-1.689,12.427-.165,24.974-.1,37.376.332a64.962,64.962,0,0,1,14.786,1.708c5.728,1.516,11.268.915,17.172.685,12.594-.49,25.623-1.464,38.053-1.552,8.95-.064,18.393-.688,27.376-.149Zm326.58,4.881c2.239,1.183,7.258.7,9.509.369,3.965-.578,4.39-2.15,6.906-5.684a77.339,77.339,0,0,0,10.393-18.969c4.876-13.5,6.867-27.3,9.007-41.422,2.379-15.687-1.965-31.948-3.52-47.528-.357-3.575-.846-7.117-1.41-10.664-.338-2.121-.426-9.336-1.822-11.173-2.682-3.528-15.154-.682-20.058-.363-13.687.894-27.464,1.1-41.145,1.258-7.295.083-14.63.388-21.852.445a93.877,93.877,0,0,1-9.888-.461c-1.114-.107-2.2-.363-3.322-.425-3.84-.212-3.551-.769-4.544,2.631-1.739,5.956-.4,13.534-.857,19.717-.611,8.261-.941,16.639-.79,24.918.14,7.65-.121,15.283.165,22.95a36.17,36.17,0,0,0,1.3,8.8c.947,3.428,1.989,11.438,4.348,13.81.268.27,2.273-.359,2.805.313.82,1.036.67,3.229,1.233,3.9,1.822,2.168,5.588,2.34,8.321,3.314a176.927,176.927,0,0,1,21.439,9.179c6.313,3.22,16.492,5.96,20.287,12.313,1.74,2.912,1.975,6.752,3.575,9.757,1.822,3.423-1.824,1.633,2.641,3.022,2.011.625,5.215,0,7.275,0ZM20.112,417.25c-.568,7.9-5.021,15.433-6.572,23.2-.725,3.639-1.956,7.216-2.809,10.834-.818,3.47-3.772,7.58-3.473,11.014,10.9-3.884,21.947-4.861,33.343-5.908,10.8-.993,22.211-1.388,32.921-1.393,10.914-.006,22.583-1.071,33.82-1.237,11.752-.173,23.681-.477,35.263-1.7-6.056-4.484-13.634-8.7-18.106-14.936-4.861-6.783-7.386-15.281-11.664-22.438C104.253,400.332,98.8,382.51,94.3,366.373,85.212,333.8,75.06,301.824,72.613,268.036c-4.656,2.384-8.352,11.634-10.684,16.24-2.976,5.881-4.534,12.256-6.468,18.506-3.983,12.874-6.74,26.223-11.618,38.975C34.522,366.133,28.53,392.4,20.112,417.25ZM611.976,227.394c2.016,14.569,6.245,29.327,6.407,44.071.036,3.244-.514,6.846.162,10.045.722,3.415,3.071,6.434,4.427,9.679,2.152,5.152,7.6,15.711,2.346,20.076-.107-4.142-3.9-9.4-5.808-13.025-2.879-5.458-6.661-10.448-9.781-15.771a219.3,219.3,0,0,0-22.269-31.864c-8.2-9.567-17.648-18.053-26.343-27.163-2.612-2.737-23.568-29.082-24.4-28.713,6.5,25.062,17.55,46.867,32.671,67.851,7.414,10.287,16.312,17.056,25.337,25.77,7.516,7.258,21.681,15.018,19.082,26.909,11.749-1.129,23.42-2.934,35.276-2.934-1.95-15-3.443-29.767-6.923-44.523-3.951-16.755-6.628-34.011-9.972-50.915-3.412-17.257-9.2-33.964-12.8-51.188-3.448-16.494-6.41-32.958-8.938-49.635-2.089,9.241-1.318,19.391-2.059,28.819a273.568,273.568,0,0,0-.432,28.778c.467,18,2.385,35.778,4.017,53.733Zm50.91-85.806c.066-7.7,1.559-15.3,2.02-22.988.142-2.358,2.49-18.445.3-19.285-1.8,3.927-2.222,8.952-3.858,13.072s-3.821,8.038-5.39,12.182c-3.4,8.979-4.57,19.139-4.936,28.686-.828,21.593-1.256,43.137.2,64.73.622,9.255,1.1,18.526.929,27.8-.187,10.2-1.75,19.061.148,29.181a244.394,244.394,0,0,1,3.685,30.17c.439,7.137.616,6.632,7.426,6.13,4.916-.363,9.881.025,14.8-.2-2.3-27.815-2.678-55.687-6.355-83.395-1.876-14.136-1.926-28.476-4.257-42.559-1.158-7-3.1-13.851-4.218-20.855-1.2-7.52-.609-15.091-.494-22.669Zm-498-17.5c13.111,1.136,27.056,5.055,40.494,2.467-2.215-.9-8.012-2.134-5.4-5.675,2.653-3.6,7.123.966,9.768.495,1.631-.291,5.236-7.109,6.241-8.52,2.282-3.208,2.557-3.767,6.661-4.589,3.975-.8,4.877.066,5.38-3.886.578-4.544-.994-9.653-.838-14.3.335-10,3.563-18.776,6.567-28.188-12.764,2.776-25.244,6.069-38.3,7.858-5.579.765-14.258,2.53-19.327-1.262-1.318-.986-1.107-2.317-2.186-3.46a17.223,17.223,0,0,0-7.729-4.447c-15.786-3.36-17.326,19.14-9.415,27.559,1.981,2.11,4.738,3.152,6.767,5.085,2.708,2.578,2.93,5.294,3.326,9.23a40.968,40.968,0,0,1-3.415,21.539ZM356.449,230.306c4.66.884,9.524.682,14.2,1.437,1.66.268,6.637,1.2,8.1.233,2.229-1.482,3.021-6.916,4.075-9.446,1.853-4.451,4.476-8.333,6.243-12.866,7.222-18.512,13.957-37.1,22.692-54.977-3.348-.87-5.919-.9-9.293-1.354-3.515-.468-6.7-2.546-10.055-3.439-3.187-.849-6.526-.632-9.684-1.619-1.74-.543-3.232-1.751-4.947-2.173-2.734-.672-5.924-1.065-7.55.729-1.666,1.84-2.251,6.886-3.158,9.263-2.415,6.333-5.22,12.444-7.243,18.922-1.825,5.843-3.559,11.623-5.166,17.519-1.7,6.224-5.043,11.355-7.081,17.3-1.55,4.526-3.013,9.153-3.244,13.978-.225,4.709-.911,5.008,3.8,5.761,2.377.379,6.082,1.792,8.319.731ZM663.067,450.683a3.3,3.3,0,0,0,3.432-.226c-10.523-4.444-20.759-10.607-31.737-13.656-10.3-2.859-20.307-6.275-30.228-9.8-8.061-2.861-15.309-5.089-22.6-10.124a42.545,42.545,0,0,1-11.394-10.961c-3.384-4.973-4.138-12.051-7.8-16.53-4.947,5.432-10.759,9.546-16.613,13.863-2.025,1.493-6.883,4.749-7.575,7.06-.874,2.916,1.468,5.706,2.626,8.657,2.966,7.558,4.415,15.112,6.024,22.97.645,3.149,2.038,7.883,4.625,9.2,2.356,1.2,9.179.328,12.111.105,15.3-1.159,30.32-2.345,45.708-1.29,17.413,1.194,36.055,2.018,53.422.726Zm30.55-140.053c2.78.01,5.5-.338,8.265-.338-1.6-7.463,2.139-17.121,3.464-24.571,1.483-8.333,2.611-16.951,3.6-25.351a456.146,456.146,0,0,0,3.055-53c.025-17.247,3.166-33.007,7.564-49.586,4.723-17.806,12.458-33.818,18.852-50.99-7.015,3.707-10.9,12.383-14.584,19.015a94.254,94.254,0,0,0-9.666,27.086c-3.671,18.161-7.7,36.377-11.933,54.508-4.411,18.878-7,37.93-12.056,56.655-2.464,9.131-5.814,20.365-6,29.781-.077,3.9-1.251,12.053.515,15.436,1.651,3.165,5.3,1.674,8.923,1.351ZM274,287.206a54.95,54.95,0,0,1-.629,5.7c3.85-.037,8.727-4.031,12.03-5.824,4.023-2.185,8.051-4.594,11.986-6.79,7.6-4.24,16.22-7.034,24.33-10.517,9.317-4,17.881-8.837,26.791-13.655,3.112-1.683,25.481-11.377,25.105-14.025l-14.733-.49c-4.21-.14-10.731.811-14.763-.49a10.7,10.7,0,0,1-5.521-5.394c-.825-2.034,1.029-11.39-.049-11.987-5.5,5.611-8.952,13.068-13.866,19.12-5.43,6.69-12.447,10.6-20.181,14.151-8.54,3.926-17.379,6.966-26.107,10.331-3.681,1.419-3.608,2.231-3.928,6.266-.359,4.51-.32,9.084-.465,13.606ZM717.794,456.881c9.258.993,18.745.427,28.075,1.2,3.395.281,8.1.7,4.686,5.257-2.151,2.869-9.041,1.949-12.166,2.148-8.391.534-17.274.247-25.684.122-1.771-.025-3.727-.552-5.517-.433-2.066.136-4.539,1.622-6.422,1.61-1.16-.007-1.576-1.231-2.577-1.343a58.468,58.468,0,0,0-6.558-.423c-33.24.007-66.023-.661-99.18-.7-15.855-.017-31.964-.29-47.812-1.035-3.328-.157-22.281.524-21.756-5.467.27-3.086,6.456-3.521,8.713-3.848,1.673-.243,3.408-.2,5.084-.294,4.453-.239,6.4.833,5.464-4.038-3.563-18.475-9.946-33.744-23.586-47.028-11.153-10.862-24.583-20.715-37.215-29.786-15.338-11.014-27.782-22.6-36.888-39.452-5.318-9.842-9.77-19.9-12.5-30.787-.983-3.915-1.006-8.368-2.211-12.142-.927-2.906-3.039-4.939-4.283-7.949-15.26,25.485-35.487,46.806-54.032,69.784a273.723,273.723,0,0,1-29.558,30.954c-3.142,2.834-6.074,5.793-9.006,8.843-2.453,2.553-6.347,4.822-8.418,7.654-1.987,2.717-1.5,2.587,1.526,4.744,4,2.851,8.4,5.22,12.464,8,6.49,4.445,13.575,8.2,19.378,13.549,6.276,5.785,11.76,12.485,17.246,19.008,3.656,4.348,8.454,9.926,9.374,15.423.3,1.819,1.461,6.317-.065,7.649-1.3,1.138-1.173.706-2.793.012-2.122-.91-2.746-3-5.339-3.992-6.633-2.545-14.659-1.671-21.561-1.7s-13.865.744-20.766.716c-15.758-.064-31.181,1.211-46.935,1.9-16.732.727-33.669-1.018-50.345-.771-12.356.183-25.041-.74-37.738-.054-6.531.352-12.945-.464-19.313-.556-8.337-.12-16.9,1.014-25.309,1.175-13.8.266-27.435.265-41.321.6-29.869.715-59.576,1.453-89.462,1.926-3.987.063-8.351-.072-12.29.376-4.181.477-2.023,1.366-4.892,2.871C-1.728,474.812.126,459.2.319,456.126c1.032-16.458,5.211-32.6,10.234-48.226,4.764-14.819,8.632-30.33,12.667-45.47,4.417-16.571,10.172-32.463,15.4-48.871,5.355-16.813,9.714-34.282,19.439-49.186,2.215-3.394,4.5-7.047,8.068-9.187,3.994-2.4,4.166-1,4.163-5.389,0-4.135.252-9.66-.724-13.606-.882-3.565-.746-1.451-2.732-4.012-1.616-2.083-3.307-3.506-4.467-6.035-7.124,7.222-23.43,3.411-30.313-1.789-8.424-6.365-14.841-17.1-17.192-27.33-1.888-8.213.429-23.867,9.52-27.816,4.432-1.925,20.711-3.381,21.362-9.655.336-3.239-5.394-7.793-6.716-10.578A62.524,62.524,0,0,1,33.543,131.3c-1.33-11.04,3.683-23.384,11.668-30.841,14.648-13.68,40.421-20.7,59.263-12.021-3.982-15.208-6.385-28.327-4.38-44.146,1.728-13.628,9.77-21.253,20.836-28.041C139.815,4.662,165.5.089,187.088,3.458c4.907.766,9.616,2.408,14.159,3.715,6.6,1.9,14.5,1.266,20.734,4.35,4.519,2.235,7.95,6.689,11.918,9.662,4.633,3.471,8.483,8.652,11.7,13.444,6.884,10.246,4.194,29.262-1.568,39.547a17.053,17.053,0,0,1-4.806,5.568c-2.128,1.567-5.373,2.054-6.47,4.086-2.809,5.2-.1,16.473.275,22.1.437,6.532-2.867,11.439-10.275,11.96-4.286.3-4.422-2.184-6.475,2.931-1.33,3.315-2.538,6.927-4.457,9.967-3.957,6.264-11.2,5.653-17.807,5.483-7.642-.2-15.17-1.4-22.816-2.166,2.02,6.469,7.548,11.491,11,17.254,4.667,7.8,7.477,14.256,8.236,23.338.582,6.978-.674,12.488-5.45,17.681-1.977,2.15-3.729,2.255-3.238,4.735.3,1.513,2.915,4.008,3.841,5.215,2.449,3.194,5.293,6.125,7.448,9.536,8.294,13.123,10.744,33.129,10.765,48.405,0,.7.375,2.19.065,2.915-.229.535-1.969,2.23-1.995,2.375a5.53,5.53,0,0,0,4.581,5.665c3.157.349,8.939-2.285,11.875-3.15,4.7-1.385,9.489-2.408,14.178-3.831,7.573-2.3,15.111-4.13,22.81-5.93,3.479-.813,6.977-1.49,10.467-2.251,3.975-.865,5.822-2.538,7.874,1.506,1.76,3.47.666,4.1,4.93,2.351,4.234-1.738,8.371-3.891,12.5-5.852,7.291-3.458,15.973-6.54,22.262-11.645,10.49-8.516,14.375-22.079,24.415-31.115,2.8-2.516,4.464-2.561,6.231-6.046,1.892-3.731,2.868-8.515,3.862-12.528,1.743-7.027,2.983-14.078,4.563-21.1,1.969-8.746,6.223-16.667,9.328-25.009,1.21-3.25,1.837-7.382,3.788-10.3.517-.775,1.5-1.211,1.908-1.852,1.388-2.2,1.374-2.8,1.733-5.452,1.682-12.37,9.068-5.863,17.138-3.026,3.4,1.2,19.546,8.947,13.381,14.1,7.349,2.132,19.121.973,19.022,11.5-.051,5.4-3.279,11.168-5.011,16.218-1.539,4.484-3.026,8.986-4.589,13.464-3.424,9.808-7.579,19.322-10.92,29.16-1.523,4.484-2.78,9.072-4.9,13.3-1.87,3.733-6.4,7.848-7.144,11.93,19.585-8.354,37.7-20.432,59.625-19.663,9.6.336,18.31,4.371,23.611,12.809,6.646,10.577,11.02,22.419,17.515,33.094,23.632,38.831,51.818,74.109,77.76,111.333,1.992,2.861,4.555,5.565,5.246,9.1.451,2.306-.424,4.613.117,6.829,1.122,4.6,6.793,10.353,10.638,13,7.37,5.072,19.351,12.226,28.548,11.593-5.772-13.869-5.7-29.066-5.427-43.86a379.5,379.5,0,0,1,3.578-41.9,56.684,56.684,0,0,1,1.668-9.114c1.038-3.5,2.463-3.167-.646-6.313-4.785-4.843-10.477-8.828-15.3-13.732-10.433-10.6-21.127-18.915-29.338-31.578-7.809-12.044-16.048-24.437-21.829-37.626-5.951-13.577-8.33-28.077-11.284-42.456-1.2-5.835-5.57-12.349-4.692-18.442,1.11-7.7,4.682-2.093,6.136,2.051,4.437,12.65,14.825,23.972,23.43,34.146,9.3,10.99,20.667,20.186,30.371,30.857,10.567,11.622,17.8,24.978,27.2,37.384,0-15.4-5.258-31.074-7.408-46.3-1.892-13.406-2.486-26.853-3.683-40.317-2.716-30.584-.369-62.069,3.443-92.434,1.812-14.421.784-28.5.839-42.973.018-4.605-1.889-15.22.541-19.306,4.654-7.828,7.369,9.289,7.6,11.841,1.407,15.2-1.117,30.235.173,45.372,1.347,15.807,4.271,31.171,6.759,46.8,2.7,16.917,7.084,33.453,11.285,50.046,4.411,17.422,8.121,35.207,13.025,52.489,1.323-5.432-.533-12.106-.9-17.639-.523-7.918-1.546-15.837-1.634-23.775-.142-12.652-.24-25.538.476-38.131.706-12.412.492-25.419,4.3-37.377a126.893,126.893,0,0,1,7.05-16.56c3.2-6.593,4.33-12.985,6.1-20,1.518-6,3.738-11.852,4.749-17.977.628-3.809,2.382-15.054,6.744-6.535,2.533,4.945,1.438,12.276,1.509,17.588.091,6.811-.952,13.433-1.112,20.215-.311,13.306-.534,26.6-1.527,39.88a146.616,146.616,0,0,0,2.52,40.159c2.9,15.032,3.752,30.1,5.256,45.312.775,7.856,2.083,15.669,2.715,23.536.334,4.166-1.379,16.113,1.607,19.081.289-7.216,2.357-14.439,3.924-21.47,1.857-8.33,2.607-17.088,3.976-25.537,2.217-13.689,6.518-26.763,9.364-40.3,5.866-27.9,10.74-63.765,35.324-82.029a95.389,95.389,0,0,1,10.229-6.12c1.969-1.113,4.893-3.994,7.146-4.5,2.459-.549,3.484-.122,4.48,2.729,1.39,3.975-1.152,5.832-3.524,8.72-8.211,9.992-11.719,22.8-16.788,34.518-11.61,26.833-16.746,55.134-16.805,84.139a424.561,424.561,0,0,1-2.7,44.92c-1.743,16.241-4.037,33.419-8.973,49.043,4.95,1.109,10.32-.545,11.664,5.208.33,1.413-.266,3.084.1,4.923.355,1.788,1.208,3.566,1.713,5.324a76.273,76.273,0,0,1,2.1,10.959c1.962,14.432,5.332,28.159,5.69,42.793.33,13.526-2.319,27.231-4.759,40.5-2.458,13.362-9.51,24.752-15.061,36.836,2.389,0,4.778.025,7.167.049Z" transform="translate(0 -2.012)" fill-rule="evenodd"/>
        <path id="ink-layer-2" data-name="ink-layer" d="M881.144,938.8c-2.633.744-15.342,2.149-15.34,6.136,0,2.391,12.695,2.344,14.941,2.6q.2-4.37.4-8.741M909.2,966.311c7.324,1.392,17.266-.566,21.948-7.021,2.188-3.016,3.225-7.6,3.938-11.2.681-3.431,2.78-11.992,1.351-15.208-1.754-3.949-18.582.178-23.483.631a166.957,166.957,0,0,1-25.946.324c0,8.832-.452,17.44,4.744,25.042,3.749,5.485,10.788,6.78,17.447,7.436m-1.472,10.909c-7.958-2.912-16.313-1.019-21.495-9.561a33.894,33.894,0,0,1-3.217-6.9,20.806,20.806,0,0,1-.906-3.241q.607-3.571-2.617-2.014c-4.218-.82-8.843,2.075-13.286,1.222-10.776-2.069-8.819-17.5-1.587-22.845A13.877,13.877,0,0,1,869.109,932c3.6-1.148,5.556.134,8.853-.192,2.665-.263,3.4-3.057,6.261-4.287,1.875-.8,4.477-.743,6.448-.824,10.315-.424,20.662-.42,31.043-1.092,4.842-.313,10.069.453,14.812-.374,2.221-.388,1.9-1.866,4-.569,2.177,1.342,1.237,6.306,1.127,8.286-.635,11.446-1.317,23.722-7.45,33.728-5.611,9.156-16.652,10.093-26.481,10.539" transform="translate(-477.533 -514.642)" fill-rule="evenodd"/>
        <path id="ink-layer-3" data-name="ink-layer" d="M22.34,1050.724l7.672-.081-7.672.081" transform="translate(-12.424 -584.993)" fill-rule="evenodd"/>
        <path id="ink-layer-4" data-name="ink-layer" d="M1624.053,491.769q-.007-3.688-.016-7.372.007,3.691.016,7.372" transform="translate(-903.189 -270.081)" fill-rule="evenodd"/>
        <path id="ink-layer-5" data-name="ink-layer" d="M156.712,523.756q-.012,3.593-.024,7.18.011-3.6.024-7.18" transform="translate(-87.14 -291.97)" fill-rule="evenodd"/>
        <path id="ink-layer-6" data-name="ink-layer" d="M636.224,1044.708q3.056,0,6.1.011c-2.04,0-4.07-.006-6.1-.011" transform="translate(-353.828 -581.692)" fill-rule="evenodd"/>
        <path id="ink-layer-7" data-name="ink-layer" d="M357.574,1043.608q3.055.01,6.1.021c-2.04-.006-4.07-.014-6.1-.021" transform="translate(-198.861 -581.08)" fill-rule="evenodd"/>
        <path id="ink-layer-8" data-name="ink-layer" d="M1360.592,819.486q-.134,2.425-.269,4.846.135-2.428.269-4.846" transform="translate(-756.528 -456.437)" fill-rule="evenodd"/>
        <path id="ink-layer-9" data-name="ink-layer" d="M1611.241,1025.693l-4.723-.049a5.805,5.805,0,0,1,4.723.049" transform="translate(-893.446 -570.824)" fill-rule="evenodd"/>
        <path id="ink-layer-10" data-name="ink-layer" d="M1302.293,1042.414c1.13-.017,2.26-.035,3.379-.054-1.133.017-2.256.036-3.379.054" transform="translate(-724.255 -580.386)" fill-rule="evenodd"/>
        <path id="ink-layer-11" data-name="ink-layer" d="M1622.693,541.367q.042-1.834.083-3.661-.042,1.835-.083,3.661" transform="translate(-902.441 -299.728)" fill-rule="evenodd"/>
        <path id="ink-layer-12" data-name="ink-layer" d="M1384.309,192.94q-.14-1.891-.28-3.777.141,1.892.28,3.777" transform="translate(-769.712 -105.89)" fill-rule="evenodd"/>
        <path id="ink-layer-13" data-name="ink-layer" d="M1623.949,507.107q.023-1.9.045-3.785-.023,1.9-.045,3.785" transform="translate(-903.14 -280.606)" fill-rule="evenodd"/>
        <path id="ink-layer-14" data-name="ink-layer" d="M823.494,1038.951c1,.015,2.009.029,3,.042-1.006-.016-2.006-.029-3-.042" transform="translate(-457.976 -578.49)" fill-rule="evenodd"/>
        <path id="ink-layer-15" data-name="ink-layer" d="M1406.439,1043.593l2.937.06-2.937-.06" transform="translate(-782.174 -581.072)" fill-rule="evenodd"/>
        <path id="ink-layer-16" data-name="ink-layer" d="M1645.143,839.283q-.106-1.663-.211-3.323.106,1.663.211,3.323" transform="translate(-914.81 -465.599)" fill-rule="evenodd"/>
        <path id="ink-layer-17" data-name="ink-layer" d="M1605.691,1046.006c.8,0,1.6-.01,2.389-.011-.8.005-1.6.009-2.389.011" transform="translate(-892.986 -582.408)" fill-rule="evenodd"/>
        <path id="ink-layer-18" data-name="ink-layer" d="M1360.335,1043.635l2.366-.057-2.366.057" transform="translate(-756.534 -581.063)" fill-rule="evenodd"/>
        <path id="ink-layer-19" data-name="ink-layer" d="M959.487,1042.326c.872,0,1.743-.01,2.606-.016l-2.606.016" transform="translate(-533.608 -580.358)" fill-rule="evenodd"/>
        <path id="ink-layer-20" data-name="ink-layer" d="M506.815,1042.338c.828.006,1.657.012,2.476.019-.831,0-1.654-.012-2.476-.019" transform="translate(-281.859 -580.374)" fill-rule="evenodd"/>
        <path id="ink-layer-21" data-name="ink-layer" d="M396.7,1042.463l2.525-.141-2.525.141" transform="translate(-220.617 -580.365)" fill-rule="evenodd"/>
        <path id="ink-layer-22" data-name="ink-layer" d="M919.184,317.056l-3.77-.325c1.258.088,2.589-.656,3.77.325" transform="translate(-509.097 -176.731)" fill-rule="evenodd"/>
        <path id="ink-layer-23" data-name="ink-layer" d="M1641.017,1026.958l-3.718-.376,3.718.376" transform="translate(-910.565 -571.611)" fill-rule="evenodd"/>
        <path id="ink-layer-24" data-name="ink-layer" d="M1450.623,334.886q-.124,1.628-.25,3.254.125-1.631.25-3.254" transform="translate(-806.608 -186.933)" fill-rule="evenodd"/>
        <path id="ink-layer-25" data-name="ink-layer" d="M1624.651,432.99q.126-1.544.253-3.083-.127,1.546-.253,3.083" transform="translate(-903.53 -239.777)" fill-rule="evenodd"/>
        <path id="ink-layer-26" data-name="ink-layer" d="M1449.49,372.823q-.134,1.626-.267,3.247.134-1.627.267-3.247" transform="translate(-805.968 -208.031)" fill-rule="evenodd"/>
        <path id="ink-layer-27" data-name="ink-layer" d="M1623.439,526.513q-.012-1.571-.023-3.139a2.767,2.767,0,0,1,.023,3.139" transform="translate(-902.844 -291.758)" fill-rule="evenodd"/>
        <path id="ink-layer-28" data-name="ink-layer" d="M1360.347,869.307c-.01,1.05-.018,2.1-.029,3.145a2.819,2.819,0,0,1,.029-3.145" transform="translate(-756.265 -484.145)" fill-rule="evenodd"/>
        <path id="ink-layer-29" data-name="ink-layer" d="M1538.463,591.689q-.181-1.594-.364-3.185.182,1.6.364,3.185" transform="translate(-855.396 -327.979)" fill-rule="evenodd"/>
        <path id="ink-layer-30" data-name="ink-layer" d="M61.769,375.968c-.822,1.086-1.941.342-2.918.474l2.918-.474" transform="translate(-32.73 -209.78)" fill-rule="evenodd"/>
        <path id="ink-layer-31" data-name="ink-layer" d="M976.859,929.141l-3.114,0,3.114,0" transform="translate(-541.537 -517.421)" fill-rule="evenodd"/>
        <path id="ink-layer-32" data-name="ink-layer" d="M1354.385,386.017q.145,1.324.29,2.645-.145-1.326-.29-2.645" transform="translate(-753.226 -215.369)" fill-rule="evenodd"/>
        <path id="ink-layer-33" data-name="ink-layer" d="M194.722,187.91l-3.131.062a2.708,2.708,0,0,1,3.131-.062" transform="translate(-106.551 -104.932)" fill-rule="evenodd"/>
        <path id="ink-layer-34" data-name="ink-layer" d="M1449.514,407.224q-.1,1.388-.2,2.772.1-1.388.2-2.772" transform="translate(-806.018 -227.163)" fill-rule="evenodd"/>
        <path id="ink-layer-35" data-name="ink-layer" d="M1385.292,148.061c.081-.844.161-1.688.242-2.527-.081.845-.161,1.686-.242,2.527" transform="translate(-770.414 -81.627)" fill-rule="evenodd"/>
        <path id="ink-layer-36" data-name="ink-layer" d="M1366.51,145.272q-.123,1.373-.245,2.744.123-1.375.245-2.744" transform="translate(-759.832 -81.481)" fill-rule="evenodd"/>
        <path id="ink-layer-37" data-name="ink-layer" d="M341.582,7.507l-3.185.386,3.185-.386" transform="translate(-188.196 -4.865)" fill-rule="evenodd"/>
        <path id="ink-layer-38" data-name="ink-layer" d="M168.687,190.143l-3.268.334,3.268-.334" transform="translate(-91.996 -106.436)" fill-rule="evenodd"/>
        <path id="ink-layer-39" data-name="ink-layer" d="M1518.09,192.992c.067-.852.133-1.7.2-2.551q-.1,1.279-.2,2.551" transform="translate(-844.268 -106.601)" fill-rule="evenodd"/>
        <path id="ink-layer-40" data-name="ink-layer" d="M92.2,512.876l1.872.028-1.872-.028" transform="translate(-51.278 -285.92)" fill-rule="evenodd"/>
        <path id="ink-layer-41" data-name="ink-layer" d="M1366.653,749.708q-.094,1.415-.188,2.826.1-1.415.188-2.826" transform="translate(-759.943 -417.631)" fill-rule="evenodd"/>
        <path id="ink-layer-42" data-name="ink-layer" d="M1511.023,332.776q-.038-1.363-.076-2.724.041,1.365.076,2.724" transform="translate(-840.295 -184.245)" fill-rule="evenodd"/>
        <path id="ink-layer-43" data-name="ink-layer" d="M402.158,2.046h-2.9a2.386,2.386,0,0,1,2.9,0" transform="translate(-222.042 -1.554)" fill-rule="evenodd"/>
        <path id="ink-layer-44" data-name="ink-layer" d="M984.05,484.05l-3.179.081a2.655,2.655,0,0,1,3.179-.081" transform="translate(-545.5 -269.616)" fill-rule="evenodd"/>
        <path id="ink-layer-45" data-name="ink-layer" d="M1196.781,1038.868c.628.013,1.258.026,1.878.041-.631-.012-1.255-.027-1.878-.041" transform="translate(-665.576 -578.444)" fill-rule="evenodd"/>
        <path id="ink-layer-46" data-name="ink-layer" d="M1250.105,1041.273l1.874-.066-1.874.066" transform="translate(-695.231 -579.745)" fill-rule="evenodd"/>
        <path id="ink-layer-47" data-name="ink-layer" d="M415.583,1042.339l1.955.049-1.955-.049" transform="translate(-231.121 -580.375)" fill-rule="evenodd"/>
        <path id="ink-layer-48" data-name="ink-layer" d="M1643.832,816.378c-.093-.9-.186-1.8-.28-2.693q.141,1.35.28,2.693" transform="translate(-914.042 -453.211)" fill-rule="evenodd"/>
        <path id="ink-layer-49" data-name="ink-layer" d="M1451.573,478.443c.075.857.149,1.713.222,2.564q-.111-1.286-.222-2.564" transform="translate(-807.275 -266.77)" fill-rule="evenodd"/>
        <path id="ink-layer-50" data-name="ink-layer" d="M1525.314,441.9q-.153-1.362-.3-2.721.153,1.363.3,2.721" transform="translate(-848.116 -244.937)" fill-rule="evenodd"/>
        <path id="ink-layer-51" data-name="ink-layer" d="M427.548,1043.523c.66-.01,1.321-.021,1.974-.029-.663.011-1.319.02-1.974.029" transform="translate(-237.776 -581.016)" fill-rule="evenodd"/>
        <path id="ink-layer-52" data-name="ink-layer" d="M969.207,1043.613l1.918-.087-1.918.087" transform="translate(-539.013 -581.035)" fill-rule="evenodd"/>
        <path id="ink-layer-53" data-name="ink-layer" d="M1513.49,292.452q-.044-1.38-.087-2.759.044,1.381.087,2.759" transform="translate(-841.661 -161.8)" fill-rule="evenodd"/>
        <path id="ink-layer-54" data-name="ink-layer" d="M286.512,1044.9l1.923-.014-1.923.014" transform="translate(-159.34 -581.788)" fill-rule="evenodd"/>
        <path id="ink-layer-55" data-name="ink-layer" d="M1512.991,1044.894l1.978.021-1.978-.021" transform="translate(-841.432 -581.795)" fill-rule="evenodd"/>
        <path id="ink-layer-56" data-name="ink-layer" d="M1545.2,1044.716l1.91.135-1.91-.135" transform="translate(-859.346 -581.696)" fill-rule="evenodd"/>
        <path id="ink-layer-57" data-name="ink-layer" d="M1558.212,1044.691c.651.019,1.3.039,1.945.053-.653-.02-1.3-.036-1.945-.053" transform="translate(-866.581 -581.682)" fill-rule="evenodd"/>
        <path id="ink-layer-58" data-name="ink-layer" d="M1624.85,450.131q-.064-1.357-.127-2.713.064,1.36.127,2.713" transform="translate(-903.571 -249.516)" fill-rule="evenodd"/>
        <path id="ink-layer-59" data-name="ink-layer" d="M640.609,1017.577l5.941-.309-5.941.309" transform="translate(-356.267 -566.431)" fill-rule="evenodd"/>
        <path id="ink-layer-60" data-name="ink-layer" d="M371.471,276.578l5.155.447-5.155-.447" transform="translate(-206.589 -154.505)" fill-rule="evenodd"/>
        <path id="ink-layer-61" data-name="ink-layer" d="M1464.85,444.908q.08,2.46.161,4.915-.081-2.461-.161-4.915" transform="translate(-814.659 -248.12)" fill-rule="evenodd"/>
        <path id="ink-layer-62" data-name="ink-layer" d="M1544.769,1024.282l5.382.326c-1.806.082-3.638.6-5.382-.326" transform="translate(-859.105 -570.332)" fill-rule="evenodd"/>
        <path id="ink-layer-63" data-name="ink-layer" d="M1520.846,581.408q.02-2.346.04-4.689-.02,2.348-.04,4.689" transform="translate(-845.801 -321.426)" fill-rule="evenodd"/>
        <path id="ink-layer-64" data-name="ink-layer" d="M1510.5,698.01l4.723.063-4.723-.063" transform="translate(-840.046 -388.88)" fill-rule="evenodd"/>
        <path id="ink-layer-65" data-name="ink-layer" d="M617.432,636.052q-.06,1.788-.116,3.571c.04-1.194.078-2.382.116-3.571" transform="translate(-343.313 -354.423)" fill-rule="evenodd"/>
        <path id="ink-layer-66" data-name="ink-layer" d="M1569.293,522.327q-.1,1.78-.192,3.552.1-1.781.192-3.552" transform="translate(-872.637 -291.176)" fill-rule="evenodd"/>
        <path id="ink-layer-67" data-name="ink-layer" d="M1493.858,1012.1q1.718-.117,3.434-.229c-.861.69-1.727.747-3.434.229" transform="translate(-830.792 -563.431)" fill-rule="evenodd"/>
        <path id="ink-layer-68" data-name="ink-layer" d="M1476.589,663.017q.118,1.918.235,3.832-.118-1.919-.235-3.832" transform="translate(-821.188 -369.419)" fill-rule="evenodd"/>
        <path id="ink-layer-69" data-name="ink-layer" d="M511.754,203.648q.018-1.853.037-3.7-.018,1.855-.037,3.7" transform="translate(-284.606 -111.888)" fill-rule="evenodd"/>
        <path id="ink-layer-70" data-name="ink-layer" d="M1479.713,698.475l4.269-.093a4.944,4.944,0,0,1-4.269.093" transform="translate(-822.925 -389.087)" fill-rule="evenodd"/>
        <path id="ink-layer-71" data-name="ink-layer" d="M1564.668,719.125c-1.007.009-2.013.017-3.013.027,1.009-.008,2.012-.017,3.013-.027" transform="translate(-868.496 -400.622)" fill-rule="evenodd"/>
        <path id="ink-layer-72" data-name="ink-layer" d="M737.905,1013.5l4.181.054a4.025,4.025,0,0,1-4.181-.054" transform="translate(-410.377 -564.334)" fill-rule="evenodd"/>
        <path id="ink-layer-73" data-name="ink-layer" d="M146.493,1022.27l4.243-.379-4.243.379" transform="translate(-81.471 -569.002)" fill-rule="evenodd"/>
        <path id="ink-layer-74" data-name="ink-layer" d="M1465.956,468.636q.1,1.925.208,3.847-.1-1.928-.208-3.847" transform="translate(-815.274 -261.316)" fill-rule="evenodd"/>
        <path id="ink-layer-75" data-name="ink-layer" d="M448.925,282.755a3.813,3.813,0,0,1,3.608-.064l-3.608.064" transform="translate(-249.665 -157.67)" fill-rule="evenodd"/>
        <path id="ink-layer-76" data-name="ink-layer" d="M1378.089,502.028q.148,1.624.3,3.245-.149-1.626-.3-3.245" transform="translate(-766.408 -279.887)" fill-rule="evenodd"/>
        <path id="ink-layer-77" data-name="ink-layer" d="M1604.443,441.155a2.925,2.925,0,0,1,.03-3.157q-.016,1.58-.03,3.157" transform="translate(-892.043 -244.277)" fill-rule="evenodd"/>
        <path id="ink-layer-78" data-name="ink-layer" d="M1466.4,362.264q0,1.607,0,3.211,0-1.61,0-3.211" transform="translate(-815.519 -202.158)" fill-rule="evenodd"/>
        <path id="ink-layer-79" data-name="ink-layer" d="M1562.687,696.232c1.228-.376,2.455-.908,3.677.013l-3.677-.013" transform="translate(-869.07 -387.614)" fill-rule="evenodd"/>
        <path id="ink-layer-80" data-name="ink-layer" d="M669.19,1016.44l3.7-.345-3.7.345" transform="translate(-372.162 -565.779)" fill-rule="evenodd"/>
        <path id="ink-layer-81" data-name="ink-layer" d="M287.774,1016.29a3.177,3.177,0,0,1,3.374.038l-3.374-.038" transform="translate(-160.042 -565.626)" fill-rule="evenodd"/>
        <path id="ink-layer-82" data-name="ink-layer" d="M809,1012.653c1.21-.528,2.416-.818,3.61.037l-3.61-.037" transform="translate(-449.915 -563.584)" fill-rule="evenodd"/>
        <path id="ink-layer-83" data-name="ink-layer" d="M202.43,660.818q.136,1.638.272,3.272-.137-1.639-.272-3.272" transform="translate(-112.579 -368.196)" fill-rule="evenodd"/>
        <path id="ink-layer-84" data-name="ink-layer" d="M835.047,518.622a3.842,3.842,0,0,1,3.544.064l-3.544-.064" transform="translate(-464.402 -288.891)" fill-rule="evenodd"/>
        <path id="ink-layer-85" data-name="ink-layer" d="M1465.914,592.352q.1,1.6.2,3.2-.1-1.6-.2-3.2" transform="translate(-815.251 -330.119)" fill-rule="evenodd"/>
        <path id="ink-layer-86" data-name="ink-layer" d="M200.328,375.4c-.1.86-.2,1.72-.3,2.575.1-.861.2-1.718.3-2.575" transform="translate(-111.246 -209.462)" fill-rule="evenodd"/>
        <path id="ink-layer-87" data-name="ink-layer" d="M45.082,937.068q-.092,1.256-.182,2.506.094-1.257.182-2.506" transform="translate(-24.971 -521.829)" fill-rule="evenodd"/>
        <path id="ink-layer-88" data-name="ink-layer" d="M1521.784,601.829q-.1-1.3-.2-2.592.1,1.3.2,2.592" transform="translate(-846.211 -333.949)" fill-rule="evenodd"/>
        <path id="ink-layer-89" data-name="ink-layer" d="M1326.8,1009.645l3.18.022-3.18-.022" transform="translate(-737.883 -562.192)" fill-rule="evenodd"/>
        <path id="ink-layer-90" data-name="ink-layer" d="M615.955,652.64l.594,1.891q-1.984.48-.594-1.891" transform="translate(-342.238 -363.648)" fill-rule="evenodd"/>
        <path id="ink-layer-91" data-name="ink-layer" d="M795.786,515.9l3.231-.014c-1.075.511-2.152.861-3.231.014" transform="translate(-442.567 -287.595)" fill-rule="evenodd"/>
        <path id="ink-layer-92" data-name="ink-layer" d="M203.79,672.465q.055,1.431.108,2.861-.056-1.433-.108-2.861" transform="translate(-113.335 -374.673)" fill-rule="evenodd"/>
        <path id="ink-layer-93" data-name="ink-layer" d="M229.459,1019.227l3.118,0-3.118,0" transform="translate(-127.611 -567.52)" fill-rule="evenodd"/>
        <path id="ink-layer-94" data-name="ink-layer" d="M1383.98,695.135c.038.879.077,1.758.116,2.631-.037-.881-.077-1.756-.116-2.631" transform="translate(-769.684 -387.281)" fill-rule="evenodd"/>
        <path id="ink-layer-95" data-name="ink-layer" d="M179.738,1021.032a2.687,2.687,0,0,1,3.073-.011l-3.073.011" transform="translate(-99.959 -568.253)" fill-rule="evenodd"/>
        <path id="ink-layer-96" data-name="ink-layer" d="M240.375,347.738c.055.9.111,1.795.168,2.686-.055-.9-.111-1.793-.168-2.686" transform="translate(-133.682 -194.08)" fill-rule="evenodd"/>
        <path id="ink-layer-97" data-name="ink-layer" d="M167.758,1021.853l3.187.013a2.541,2.541,0,0,1-3.187-.013" transform="translate(-93.296 -568.981)" fill-rule="evenodd"/>
        <path id="ink-layer-98" data-name="ink-layer" d="M1493.452,312.591q.013-1.367.025-2.731-.014,1.368-.025,2.731" transform="translate(-830.566 -173.015)" fill-rule="evenodd"/>
        <path id="ink-layer-99" data-name="ink-layer" d="M394.334,280.107l3.049.4-3.049-.4" transform="translate(-219.304 -156.468)" fill-rule="evenodd"/>
        <path id="ink-layer-100" data-name="ink-layer" d="M192.242,457.3c.014.851.027,1.7.043,2.549q-.02-1.279-.043-2.549" transform="translate(-106.913 -255.012)" fill-rule="evenodd"/>
        <path id="ink-layer-101" data-name="ink-layer" d="M1508.66,453.773q-.084-1.3-.167-2.6.084,1.3.167,2.6" transform="translate(-838.931 -251.606)" fill-rule="evenodd"/>
        <path id="ink-layer-102" data-name="ink-layer" d="M974.726,1019.563l3.762.34-3.762-.34" transform="translate(-542.083 -567.708)" fill-rule="evenodd"/>
        <path id="ink-layer-103" data-name="ink-layer" d="M962.745,946.421c-.678.011-1.355.022-2.028.036.68-.009,1.354-.022,2.028-.036" transform="translate(-534.292 -527.031)" fill-rule="evenodd"/>
        <path id="ink-layer-104" data-name="ink-layer" d="M965.415,1018.444l3.156.311-3.156-.311" transform="translate(-536.904 -567.086)" fill-rule="evenodd"/>
        <path id="ink-layer-105" data-name="ink-layer" d="M524.3,850.8c1.369,7.733-10.651,15.3-11.6,4.3-.348-4.02,2.34-6.846,5.351-9.3,4.273-3.487,6.66-.148,6.253,5" transform="translate(-285.115 -470.274)" fill-rule="evenodd"/>
        <path id="ink-layer-106" data-name="ink-layer" d="M238.823,646.3c2.832,1.159,24.466,8.207,13.228,11.752-2.975.938-7.471,1.078-10.05-.575-3.1-1.99-6.231-7.861-3.178-11.177" transform="translate(-132.124 -360.124)" fill-rule="evenodd"/>
        <path id="ink-layer-107" data-name="ink-layer" d="M246.4,410.316c7.343-.853,14.109,11.206,5.056,10.815-6.59-.286-15.452-10.815-5.056-10.815" transform="translate(-134.376 -228.858)" fill-rule="evenodd"/>
        <path id="ink-layer-108" data-name="ink-layer" d="M298.091,476.982c6.132,5.349-5.234,17.32-9.746,12.687-2.3-2.367-.179-7.465,1.723-9.445,1.952-2.032,5.425-2.414,8.023-3.241" transform="translate(-159.801 -265.958)" fill-rule="evenodd"/>
        <path id="ink-layer-109" data-name="ink-layer" d="M331.8,781.481c-3.62.575-19.539,5.776-16.219-3.671,1.266-3.6,4.8-2.534,8.026-2.368,5.2.266,8.193.017,8.193,6.039" transform="translate(-175.255 -431.789)" fill-rule="evenodd"/>
        <path id="ink-layer-110" data-name="ink-layer" d="M317.547,844.212c5.419,2.9-2.5,19.12-6.994,15.669-6.232-4.789,2.292-14.212,6.994-15.669" transform="translate(-171.488 -470.189)" fill-rule="evenodd"/>
        <path id="ink-layer-111" data-name="ink-layer" d="M381.512,814.748c2.635-1.076,15.057,10.87,10.328,14.194-2.424,1.7-7.015-1.217-8.477-2.977-2.739-3.3-2.987-7.375-1.852-11.216" transform="translate(-211.819 -453.764)" fill-rule="evenodd"/>
        <path id="ink-layer-112" data-name="ink-layer" d="M212.611,594.843c2.693.442,7.343.582,7.517,4.366.153,3.326-4.018,4.4-6.953,4.664-3.046.27-7.079-.589-7.137-4.418-.061-4.131,6.478-3.882,6.573-4.612" transform="translate(-114.585 -331.505)" fill-rule="evenodd"/>
        <path id="ink-layer-113" data-name="ink-layer" d="M368.363,965.812c2.868,1.741,16.247,8.009,10.512,12.537-2.146,1.695-8.652-1.805-10.116-3.584-1.747-2.123-3.455-7.1-.4-8.953" transform="translate(-203.924 -537.815)" fill-rule="evenodd"/>
        <path id="ink-layer-114" data-name="ink-layer" d="M454.233,855.52c-.414-6.919,11.26-9.673,8.84.148-.682,2.769-1.343,6.972-4.767,7.133-4.047.19-4.193-4.6-4.073-7.281" transform="translate(-252.602 -473.007)" fill-rule="evenodd"/>
        <path id="ink-layer-115" data-name="ink-layer" d="M360.413,585.873c.081,5.249-9.977,9.877-10.055,1.558-.069-7.434,10.431-9.61,10.055-1.558" transform="translate(-194.847 -323.673)" fill-rule="evenodd"/>
        <path id="ink-layer-116" data-name="ink-layer" d="M350.771,530.692c2.478.8,5.772,1.21,5.99,4.358.231,3.332-2.864,4.815-5.65,4.628-2.284-.154-5.665-1.844-6.08-4.322-.608-3.637,2.942-3.875,5.74-4.664" transform="translate(-191.847 -295.828)" fill-rule="evenodd"/>
        <path id="ink-layer-117" data-name="ink-layer" d="M254.216,738.949c-.042-4.331,8.639-9.536,10.238-4.511.512,1.608-3.58,8.819-4.941,9.359-3.6,1.429-4.1-1.9-5.3-4.848" transform="translate(-141.379 -407.993)" fill-rule="evenodd"/>
        <path id="ink-layer-118" data-name="ink-layer" d="M400.562,903.907c-2.933,2.625-11.733,10-11.075.1.42-6.324,11.849-5.994,11.075-.1" transform="translate(-216.589 -500.867)" fill-rule="evenodd"/>
        <path id="ink-layer-119" data-name="ink-layer" d="M737.434,971.775c.962-4.162,14.728,3.058,10.134,8.316-1.542,1.765-5.573.168-7.124-.878-3.068-2.07-3.135-3.981-3.01-7.438" transform="translate(-410.097 -540.441)" fill-rule="evenodd"/>
        <path id="ink-layer-120" data-name="ink-layer" d="M564.666,763.812c.537-1.855,1.133-5.137,2.9-6.321,3.2-2.142,5.993,1.09,5.994,4.5,0,6.354-7.233,8.358-8.9,1.825" transform="translate(-314.032 -421.576)" fill-rule="evenodd"/>
        <path id="ink-layer-121" data-name="ink-layer" d="M486.508,939.969c3.575.819,11.533,9.506,6.918,13.05-4.442,3.411-10.351-10.455-6.918-13.05" transform="translate(-269.994 -523.442)" fill-rule="evenodd"/>
        <path id="ink-layer-122" data-name="ink-layer" d="M490.5,791.819c4.6.367,10.913,7.808,3.769,8.99-5.588.926-12.086-7.168-3.769-8.99" transform="translate(-270.579 -441.051)" fill-rule="evenodd"/>
        <path id="ink-layer-123" data-name="ink-layer" d="M589.193,867.03c1.153-3.882,12.551.278,11.91,4.551-.34,2.272-5,2.806-7.45,2.205-3.606-.885-4.543-3.25-4.46-6.756" transform="translate(-327.67 -482.02)" fill-rule="evenodd"/>
        <path id="ink-layer-124" data-name="ink-layer" d="M286.5,374.368c.083-5.018,9.727-7.063,10.433-2.006.639,4.569-10.554,9.43-10.433,2.006" transform="translate(-159.333 -206.148)" fill-rule="evenodd"/>
        <path id="ink-layer-125" data-name="ink-layer" d="M582.021,978.028c.7-2.523,1-5.56,4.147-5.893,3.61-.381,3.5,2.387,3.079,5.254-1.155,7.8-5.565,8.192-7.226.639" transform="translate(-323.684 -541.312)" fill-rule="evenodd"/>
        <path id="ink-layer-126" data-name="ink-layer" d="M225.9,501.545c-5.028,1.134-14.236-8.547-8.608-10.625,3.966-1.466,8.608,7.7,8.608,10.625" transform="translate(-119.866 -273.622)" fill-rule="evenodd"/>
        <path id="ink-layer-127" data-name="ink-layer" d="M375.366,671.466c-2.559,1.2-3.148,1.936-5.114-.041-1.712-1.722-1.636-6.519-.167-8.31,5.627-6.858,5.495,5.576,5.281,8.351" transform="translate(-205.201 -368.341)" fill-rule="evenodd"/>
        <path id="ink-layer-128" data-name="ink-layer" d="M429.932,653.143c2.669.34,10.6,7.859,6.469,10.848-5.059,3.661-7.922-7.809-6.469-10.848" transform="translate(-238.891 -363.927)" fill-rule="evenodd"/>
        <path id="ink-layer-129" data-name="ink-layer" d="M552.315,648.368c-1.94,7.468-6.782,2.443-6.507-3.208.441-9.052,5.458-1.168,6.507,3.208" transform="translate(-303.538 -357.172)" fill-rule="evenodd"/>
        <path id="ink-layer-130" data-name="ink-layer" d="M625.989,927.835c3.282,1.357,7.736,13.9,3.049,14.573-5.265.755-3.512-11.961-3.049-14.573" transform="translate(-347.773 -516.694)" fill-rule="evenodd"/>
        <path id="ink-layer-131" data-name="ink-layer" d="M533.586,911.788c3.755-1.267,5.131,6.653,2.948,8.124-4.8,3.237-3.789-6.255-2.948-8.124" transform="translate(-296.354 -507.694)" fill-rule="evenodd"/>
        <path id="ink-layer-132" data-name="ink-layer" d="M454.084,863.34c-.048,1.051-.095,2.1-.144,3.148.047-1.053.095-2.1.144-3.148" transform="translate(-252.453 -480.826)" fill-rule="evenodd"/>
        <path id="ink-layer-133" data-name="ink-layer" d="M737.328,973.329q-.059,1.618-.119,3.229c.037-1.08.078-2.154.119-3.229" transform="translate(-409.99 -541.995)" fill-rule="evenodd"/>
        <path id="ink-layer-134" data-name="ink-layer" d="M589.116,868.964c-.021.915-.043,1.829-.067,2.738.021-.917.044-1.828.067-2.738" transform="translate(-327.593 -483.954)" fill-rule="evenodd"/>
        <path id="ink-layer-135" data-name="ink-layer" d="M1455.864,830.46c7.785-.25,16.47-3.18,24.12-2.247,2.106.257,6.954.787,3.58,3.91-1.614,1.493-9.34.721-11.678,1.217a209.16,209.16,0,0,1-45.177,4.725c-6.861-.118-13.773-.667-20.631-1.03s-7.527-3.147.184-4.033c8.009-.919,16.227-.578,24.275-.588,8.462-.011,16.881-1.39,25.326-1.955" transform="translate(-778.987 -461.189)" fill-rule="evenodd"/>
        <path id="ink-layer-136" data-name="ink-layer" d="M1552.408,780.2c-.749,2.133-1.407,7.029-4.278,7.35-4.021.449-4.687-6.454-4.539-8.979.18-3.047,1.277-8.11,5.065-7.054,3.2.891,3.52,6.244,3.753,8.683" transform="translate(-858.439 -429.678)" fill-rule="evenodd"/>
        <path id="ink-layer-137" data-name="ink-layer" d="M1508.628,778.2c.588-2.284.876-7.434,4.107-7.609,3.611-.195,4.643,5.171,4.619,7.742-.024,2.441-.927,7.051-3.8,7.615-3.9.764-4.247-5.137-4.924-7.747" transform="translate(-839.006 -429.239)" fill-rule="evenodd"/>
        <path id="ink-layer-138" data-name="ink-layer" d="M1406.721,784.083c-1.17,2.745-1.944,6.527-5.565,4.655-2.8-1.447-3.19-7.285-2.662-9.958.547-2.769,1.706-5.945,4.889-4.7,3.67,1.437,3.3,6.981,3.338,10" transform="translate(-777.644 -431.03)" fill-rule="evenodd"/>
        <path id="ink-layer-139" data-name="ink-layer" d="M1476.577,781.286c-3.451,10.46-9.746,3.383-7.356-4.426,2.5-8.162,7.038-.234,7.356,4.426" transform="translate(-816.796 -430.769)" fill-rule="evenodd"/>
        <path id="ink-layer-140" data-name="ink-layer" d="M1439.025,781.475c-.958,1.842-1.978,5.815-4.562,5.4-3.167-.514-3.269-6.608-2.922-8.877.3-1.987,1.2-5.3,3.847-5.254,3.831.062,3.574,6.351,3.636,8.735" transform="translate(-796.059 -430.44)" fill-rule="evenodd"/>
        <path id="ink-layer-141" data-name="ink-layer" d="M1597.17,789.393c-2.569,5.763-6.1.8-4.972-3.295,1.678-6.07,4.827-.692,4.972,3.295" transform="translate(-885.362 -436.35)" fill-rule="evenodd"/>
        <path id="ink-layer-142" data-name="ink-layer" d="M1451.37,837.294l-8.417-.032a18.473,18.473,0,0,1,8.417.032" transform="translate(-802.481 -466.06)" fill-rule="evenodd"/>
        <path id="ink-layer-143" data-name="ink-layer" d="M1578.393,827.747l-7.3.047a12.722,12.722,0,0,1,7.3-.047" transform="translate(-873.745 -460.747)" fill-rule="evenodd"/>
        <path id="ink-layer-144" data-name="ink-layer" d="M1517.653,833.5l-5.842.391,5.842-.391" transform="translate(-840.776 -464.233)" fill-rule="evenodd"/>
        <path id="ink-layer-145" data-name="ink-layer" d="M1417.214,791.715q-.026-2.1-.053-4.191a4.632,4.632,0,0,1,.053,4.191" transform="translate(-788.137 -438.662)" fill-rule="evenodd"/>
        <path id="ink-layer-146" data-name="ink-layer" d="M1451.676,850.572l3.379.03-3.379-.03" transform="translate(-807.333 -473.725)" fill-rule="evenodd"/>
        <path id="ink-layer-147" data-name="ink-layer" d="M1408.945,848.318h0" transform="translate(-783.568 -472.472)" fill-rule="evenodd"/>
        <path id="ink-layer-148" data-name="ink-layer" d="M1424.1,838.2l-4.772.391,4.772-.391" transform="translate(-789.341 -466.843)" fill-rule="evenodd"/>
        <path id="ink-layer-149" data-name="ink-layer" d="M1472.628,837.265l-4.712.01a5.8,5.8,0,0,1,4.712-.01" transform="translate(-816.364 -466.05)" fill-rule="evenodd"/>
        <path id="ink-layer-150" data-name="ink-layer" d="M1448.429,786.946q-.059-2.185-.114-4.369.058,2.187.114,4.369" transform="translate(-805.464 -435.911)" fill-rule="evenodd"/>
        <path id="ink-layer-151" data-name="ink-layer" d="M1398.71,785.017q-.013,2.132-.029,4.258.013-2.134.029-4.258" transform="translate(-777.86 -437.268)" fill-rule="evenodd"/>
        <path id="ink-layer-152" data-name="ink-layer" d="M1539.863,832.313l-4.164.376,4.164-.376" transform="translate(-854.061 -463.571)" fill-rule="evenodd"/>
        <path id="ink-layer-153" data-name="ink-layer" d="M1603.5,792.28q-.068-1.862-.134-3.723.068,1.863.134,3.723" transform="translate(-891.695 -439.237)" fill-rule="evenodd"/>
        <path id="ink-layer-154" data-name="ink-layer" d="M1470.582,850.6l2.89-.053c-.97.019-1.93.037-2.89.053" transform="translate(-817.847 -473.71)" fill-rule="evenodd"/>
        <path id="ink-layer-155" data-name="ink-layer" d="M1563.161,787.9q-.128-1.339-.255-2.674.128,1.341.255,2.674" transform="translate(-869.192 -437.386)" fill-rule="evenodd"/>
        <path id="ink-layer-156" data-name="ink-layer" d="M1486.221,787.813q-.093-1.374-.187-2.747.094,1.375.187,2.747" transform="translate(-826.44 -437.295)" fill-rule="evenodd"/>
        <path id="ink-layer-157" data-name="ink-layer" d="M358.4,159.717c-3.8-1-4.514-6.338-3.9-9.619l2.078-4.742q-.407-.877-.812-1.754c.348-3.256-.541-4.671,3.2-3.352,6.952,2.451,8.063,19.215-.565,19.466" transform="translate(-197.04 -78.416)" fill-rule="evenodd"/>
        <path id="ink-layer-158" data-name="ink-layer" d="M476.677,161.441c3.131-.247,8.819,3.4,5.7,6.927-1.931,2.185-8.3,1.152-10.891,1.608-3.443.605-7.034,1.433-5.172-3.723,1.463-4.049,6.687-4.918,10.361-4.812" transform="translate(-259.053 -90.467)" fill-rule="evenodd"/>
        <path id="ink-layer-159" data-name="ink-layer" d="M480.741,200.654c-3.181-2.55-1.761-14.167,3.08-12.077,4.98,2.151-.426,10.4-3.08,12.077" transform="translate(-266.412 -105.426)" fill-rule="evenodd"/>
        <path id="ink-layer-160" data-name="ink-layer" d="M354.118,163.051c0,1.222,0,2.445,0,3.662a3.66,3.66,0,0,1,0-3.662" transform="translate(-196.665 -91.369)" fill-rule="evenodd"/>
        <path id="ink-layer-161" data-name="ink-layer" d="M363.529,184.654c.648-.018,1.3-.037,1.938-.054-.651.021-1.294.037-1.938.054" transform="translate(-202.172 -103.353)" fill-rule="evenodd"/>
        <path id="ink-layer-162" data-name="ink-layer" d="M1241.378,932.214c-.3,5.284-5.973,1.377-5.57-2.157.731-6.414,4.359-.076,5.57,2.157" transform="translate(-687.269 -516.376)" fill-rule="evenodd"/>
      </g>
    </g>
  </g>
</svg>
