<svg xmlns="http://www.w3.org/2000/svg" width="934.683" height="675.565" viewBox="0 0 934.683 675.565">
  <g id="Group_424" data-name="Group 424" transform="translate(-875.545 -167.32)">
    <circle id="Oval" cx="110.836" cy="110.836" r="110.836" transform="translate(1588.545 175.32)" fill="#ffb3b3"/>
    <circle id="Oval-2" data-name="Oval" cx="211.336" cy="211.336" r="211.336" transform="translate(875.545 167.32)" fill="#11e4e8"/>
    <g id="composition-6" transform="translate(875.983 211.07)">
      <g id="Character_ice-cream" data-name="Character/ice-cream" transform="translate(0 0)">
        <path id="Combined-Shape" d="M844.891,357.777c3.585-.384,4.1,4.482,4.586,6.7,1.381-.873,2.611-.038,2.924-2.076,4.37,4.582,7.87,9.842,11.751,14.819,3.722,4.776,9.54,8.575,12.76,13.6,2.733,4.262-1.776,10.734-2.334,15.279-.629,5.122.708,10.985,4.2,14.89a10.95,10.95,0,0,0,6.052,3.586c2.4.488,4.69-.923,6.807-.623,1.756.249,1.833,1.411,2.446,3.137a13.764,13.764,0,0,0,3.892,6.267c2.216,1.858,4.6,2.394,6.286,4.891,1.475,2.178,2.312,4.288,4.6,5.8,3.053,2.018,7.95,2.628,7.619,7.339l1.575-1.252a81.865,81.865,0,0,0,4.679,11.381,8.412,8.412,0,0,1,1.225,4.559c-.029,1.264-.721,2.22.027,3.443,1.2,1.958,4.4,1.692,5.862,3.276,1.5,1.623-.057,3.826,1.675,5.24-.73.224-2.752,1.859-1.991,2.851,1.093,1.427,1.176-.528,1.942-.292,1.76.539,1.389,2.738,2.762,3.335.28.122.261-1.175.246-1.526v-.021l.605,1.187c9.173,17.9,20.052,34.89,28.673,53.058l.571,1.213a739.335,739.335,0,0,0,55.47,97.908c4.91,7.328,10.3,14.607,14.838,22.144,4.562,7.575,10.247,14.288,15.293,21.531,5.19,7.451,9.941,15.206,15.173,22.624,4.173,5.916,9.273,12.212,9.206,19.84-.031,3.39-.524,7.134-3.789,8.956-.079-1.4-2.192.148-2.7.491-2.181,1.485-1,1.321-3.346.8-3.816-.843-7.074.3-10.6-1.872-7.487-4.6-14.865-9.336-22.487-13.728-16.473-9.493-32.781-19.213-48.062-30.558-26.713-19.833-55.735-37.605-80.284-60.166-24.531-22.543-50.274-44.909-79.384-61.4-1.952-1.105-7.544-2.764-7.029-5.4.452-2.31,5.482-5.549,7.246-7.148,6.123-5.551,12.5-10.8,18.4-16.594,10.9-10.688,21.724-22.483,30.469-35.023,4.254-6.1,6.425-12.886,8.908-19.822,2.192-6.123,4.218-13.66.66-19.717a6.971,6.971,0,0,0-7.1-3.731c-2.632.176-2.514.716-3.558-2.079-1.124-3.008-2.037-6.5-5.051-8.239-3.121-1.8-5.248.12-7.776,1.926-2.908-4.2-6.476-11.474-12.339-11.876-6.122-.42-9.6,7.148-11.713,11.7-6.251,13.46-14.385,26.033-23.132,38.019-9.481,12.993-19.175,26.209-29.622,38.443-2.212,2.59-4.723,6.37-7.84,7.941s-5.693.185-8.313-1.594l-.238-.163c-6.368-4.371-12.561-8.86-19.191-12.861-7.343-4.433-14.893-8.493-22.383-12.669-3.3-1.842-6.439-4.061-9.844-5.715-3.172-1.542-6.627-2.305-9.874-3.655,11.925-3.558,24.485,1.1,35.772,4.8,5.858,1.918,11.984,3.916,18.239,3.4,5.409-.446,10.318-3.344,14.6-6.51,7.735-5.722,8.342-14.317,5.82-23-2.9-10-7.341-19.615-10.7-29.477-1.525-4.486-2.576-9.25.9-13.126,3.107-3.468,7.128-3.9,11.369-2.53,10.283,3.311,19.4,6.42,30.427,6.106,8.618-.245,19.58-2.693,25.386-9.7,3.182-3.841,3.3-9.123,3.317-13.888a118.82,118.82,0,0,0-1.13-16.916c-1.409-9.975-5.065-19.963-.481-29.648C838.937,363.385,841.93,358.094,844.891,357.777Zm89.593,124.59v.008l0-.007h0C934.478,482.285,934.481,482.3,934.484,482.367ZM577.806,435.522c2.694-3.73,10.068-12.415,15.7-10.515a6.287,6.287,0,0,1,2.341,2.043q.689.9,1.367,1.8.421,1.188,1.513.7c1.974,2.736,4.76,4.8,5.9,8.162,1.124,3.329,4.141,6.558,5.92,9.612,1.376,2.362,4.48,8.667,4.242,11.621v7.538c-.28,2.93-5.754,8.172-7.679,10.154-4.78,4.923-9.971,5.553-17.054,4.925-6-.532-13.772-2.534-17.834-7.307-3.9-4.579-3.843-11.676-3.266-17.316C569.753,449.065,573.206,441.891,577.806,435.522Zm18.462,1.25c-1.1-2.042-3.5-2.547-5.614-2.3a20.324,20.324,0,0,0-6.47,1.361c-1.787.871-2.692,2.4-4.92,1.884.882,1.522-.7,2.4-.927,3.772a5.549,5.549,0,0,0,1.438,4.678c2.408,2.769,6,2.715,9.35,2.985,2.829.228,6.309.7,7.971,3.35,1.072,1.71.1,2.943.6,4.661.369,1.266,1.915,1.993,2.591,3.079,2.264-3.335,2.185-10.479.8-14.045a32.171,32.171,0,0,0-2.863-5.357c-.32-.484-1.075-1.062-1.276-1.462C596.607,438.682,596.649,437.477,596.269,436.772Z" transform="translate(-530.669 -265.427)" fill="#ff5678" fill-rule="evenodd"/>
        <g id="Ink" transform="translate(0 0)">
          <path id="ink-shape" d="M329.541,615.023c4.1-1.6,9.146-.854,13.441-.777,5.392.1,10.8.507,16.174.928,10.324.809,20.6.467,30.928,1.433,5.13.479,10.263.922,15.4,1.36,4.494.383,9.714,1.575,14.2.717,1.853-.354,6.853-2.1,5.926-4.814-.715-2.095-6.344-3.386-8.178-3.982-4.314-1.4-8.768-2.409-13.129-3.66a18.423,18.423,0,0,0-6.828-1.11c-2,.189-4.11,1.684-6.138,1.512-3-.254-4.544-4.023-6.744-5.685-3.5-2.647-6.1-1.233-8.784,1.685-1.986,2.157-3.877,5.42-7.134,5.613-4.144.246-4.951-3.31-3.122-6.325,1.685-2.777,6.271-5.625,6.517-9.087.156-2.189-3.342-8.043-5.355-8.876-3.385-1.4-8.17,2.307-11.231,3.445-5.345,1.986-10.8,3.745-16.213,5.539-3.7,1.226-9.194,1.335-9.893,5.675-.875,5.434.191,10.953.166,16.41M117.7,531.482c1.076-2.386,2.207-3.743.055-5.957-1.2-1.238-2.9-1.847-4.084-3.132-1.779-1.931-4.567-7.208-.753-8.537,3.645-1.271,6.716,3.807,9.65,4.922,3.723,1.415,6.03-.958,6.562-4.518.684-4.574-.068-9.354.477-13.985.534-4.54,2.119-8.31,3.335-12.657.824-2.947,1.833-5.915-1.907-6.568-3.43-.6-7.409.826-10.887,1.018-5.425.3-10.914.572-16.294,1.386-6.006.909-5.9,7.055-7.405,12.079-3.656,12.181-8.559,24.133-10.842,36.691-.985,5.415,1.625,9.123,4.662,13.381,3.8,5.331,7.758,10.648,12.064,15.586,2.876,3.3,6.116,6.369,10.3,7.885,4.744,1.717,6.556-.19,5.462-4.868-1.445-6.176-3.625-12.142-3.368-18.575.094-2.342.775-4.859-.913-6.819-1.171-1.359-3.176-1.818-4.7-2.645-2.518-1.365-6.42-5.757-1.514-6.7,3.332-.642,6.873,1.6,10.1,2.015M231.008,289.55c2.994,3.345,6.248,6.546,9.087,10.021,1.628,1.993,2.781,4.389,4.527,6.278,3.826,4.137,7.637-.447,11.024-3.127,13.323-10.54,25.86-21.962,38.554-33.243,6.048-5.375,12.482-10.332,18.433-15.809,6.029-5.548,11.049-12.043,16.7-17.954,2.713-2.838,5.96-5.654,7.635-9.28,1.428-3.092,1.744-6.456,3.372-9.514,2.819-5.295,7.987-11.442,6.8-17.846-3.49,3.661-9.3,16.782-15.393,10.629-4.346-4.392.093-10.884-.1-16-4.127,1.752-3.055,8.858-7.454,10.116-2.38.68-4.415-1.476-5.525-3.366-1.919-3.268-1.215-6.688-.344-10.155.594-2.362,4.384-10.153.635-11.115-3.249-.833-5.971,5.145-7.047,7.264-1.973,3.885-3.5,7.9-5.667,11.7-3.736,6.553-8.039,12.813-12.142,19.14a397.071,397.071,0,0,1-28,37.2c-10.586,12.757-22.046,24.786-35.1,35.059M324.87,331c-.427,11.478-10.284,20.183-18.811,26.565-10.9,8.156-20.952,17.427-33.95,22.069-5,1.787-11.252,1.272-13.257,6.908-.783,2.2-.072,3.013.777,5.231a58.447,58.447,0,0,1,2.758,10.886c2.144,12.426.059,25.08-7.4,35.426a77.742,77.742,0,0,1-14.275,14.437c-5.227,4.253-10.172,9.213-15.934,12.731-12.292,7.5-25.946,11.81-40.119,13.883-7.371,1.079-14.773,2.039-22.217,2.42-3.861.2-7.728.234-11.591.064-1.726-.076-8.144-1.535-9.391-.545-.96.762-1.388,5.374-1.58,6.646-.408,2.69-.729,5.344-1.285,8.011-1.115,5.354-2.618,11.411-.974,16.812.476,1.562.86,2.834,2.307,3.359.916.333,2.54-.252,3.466-.348a29.116,29.116,0,0,1,6.182-.076c6.917.733,13.709,2.5,20.7,2.02,14.9-1.028,29.822-2.077,44.589-4.41,7.183-1.135,14.075-3.283,21.139-4.942,6.732-1.581,13.462-3.178,19.746-6.148A143.831,143.831,0,0,0,289.6,479.457c10.851-9.628,18.034-21.041,24.822-33.777,5.963-11.188,10.991-22.512,10.73-35.409-.166-8.162-1.335-18.275,3.381-25.474,2.154-3.288,6.5-6.335,10.549-4.6,7.348,3.156.407,9.405-2.4,12.829-4.037,4.933-3.495,12.443-3.913,18.475-.495,7.118-2.094,13.361-3.652,20.244-1.525,6.737,1.551,14.73,1.855,21.6.33,7.453.113,14.913.03,22.369-.166,14.829.522,29.618.471,44.444-.027,7.69.17,15.417-.317,23.1-.442,7-1.876,13.7-3.13,20.575-1.231,6.748-3.026,14.829-2.611,21.688,16.837-6.413,33.226-13.989,50.322-19.718-5.332-4.652-5.57-11.227-6-17.789-.566-8.653-1.99-17.232-2.611-25.885A338.709,338.709,0,0,1,367.7,470c1.56-18.326,4.326-36.591,4.9-54.995a137.05,137.05,0,0,0-1.854-26.5c-1.216-7.371-2.271-16.645-6.112-23.175-3.67-6.24-10.416-10.2-16.046-14.454-8.233-6.215-15.858-13.2-23.714-19.877m1.02-239.7a68.718,68.718,0,0,0,7.01,7.976c2.6,2.571,3.708,2,6.82.666,6.187-2.661,6.069-5.738,2.615-11.073-8.011-12.374-11.05-27.109-19.527-39.23-8.352-11.942-20.5-21.591-33.255-28.478-13.687-7.39-28.519-9.741-43.947-9.521-7.884.113-15.819.657-23.653,1.541-7.621.859-14.4,3.362-21.778,5.252-3.714.951-7.544,1.74-11.154,3.047-3.168,1.146-6.016,2.916-9.217,3.987-7.007,2.343-14.058,4.961-20.379,8.792A147.909,147.909,0,0,0,142.059,46.6c-5.814,4.764-10.863,10.3-17.149,14.482-5.724,3.809-10.275,8.939-15.465,13.4a86.823,86.823,0,0,0-14.49,16.269c-3.977,5.762-5.491,13.217-7.894,19.714-2.8,7.562-5.571,15.647-6.624,23.665-1.964,14.941,2.443,32.4,8.046,46.231,5.542,13.676,14.523,25.086,25.239,35.1a77.007,77.007,0,0,0,17.312,12.579c5.464,2.793,12.588,7.816,18.535,4.306,2.408-1.421,4.362-3.073,7.146-3.713,3.042-.7,6.023-.413,8.479-2.645,2.088-1.9,3.086-4.187,5.827-5.332,3.25-1.358,7.094-1.606,10.573-1.595,7.815.026,15.634,1.983,23.092,4.154,6.834,1.989,12.554,4.988,19.815,3.171,5.4-1.351,14.05-4.941,15.213-11.131,1.04-5.532-2.972-12.684-4.992-17.635a146.53,146.53,0,0,1-7.075-20.764c-1.391-5.7-3.574-14.817.351-20.026,3.856-5.118,12.771-5.056,18.309-3.769,3.63.843,6.967,2.543,10.6,3.4a96.633,96.633,0,0,0,11.3,1.739c13.078,1.481,31.686-1.866,30.989-18.591-.62-14.906-8.828-29.847-4.021-44.771,1.959-6.083,5.961-13.118,12.625-14.724,5.285-1.274,12.428.061,17.091,2.828,3.742,2.22,7.45,6.87,1,8.355M63.245,157.874c-13.184,2.574-21.9,16.48-24.319,28.812-1.095,5.588-1.482,12.242.636,17.649,2.441,6.233,9.34,8.834,15.427,10.141,6.959,1.495,13.126.911,18.643-3.917a34.448,34.448,0,0,0,6.223-7.3c1.782-2.763,4.261-4.777,2.468-7.865a133.945,133.945,0,0,1-11.158-23.588,102.2,102.2,0,0,1-3.332-11.3c-.688-3.072-1.021-4.947-4.588-2.638M178.71,241.348a27.244,27.244,0,0,1-8.775,5.738c-3.612,1.449-4.708.753-4.529,4.934.2,4.617.232,8.312-1.871,12.608-.984,2.011-4.621,4.725-3.934,6.987.986,3.247,11.084,6.53,14.03,7.665,7.049,2.717,15.272,2.773,21.925-1.066,7.728-4.459,8.412-12.543,5.5-20.366-.311-.835-1.44-2.246-1.162-3.156.51-1.671,2.61-1.43,3.815-.792,2.616,1.385,3.709,5.6,4.272,8.226a21.109,21.109,0,0,1-6.511,19.465,30.3,30.3,0,0,1-15.413,6.694c-1.649.166-3.731-.354-5.306.116-2.775.827-2.9,4.253-3.593,6.757a60.962,60.962,0,0,0-1.919,13.949c-.263,7.488.628,17.029,4.932,23.378,10.044,14.812,29.468,19.954,44.634,27.577a147.794,147.794,0,0,1,22.715,14.585,20.183,20.183,0,0,0,2.621,2.01c2.877,1.416.365.9,2.207-.035,1.418-.721,2.632-2.286,4.1-3.1,3.375-1.88,7.165-2.894,10.6-4.67,7.981-4.13,15.043-9.256,22.126-14.726,7.258-5.606,14.61-10.724,21.231-17.1,2.792-2.69,5.936-4.907,8.768-7.482,2.853-2.594-.8-3.671-3.214-5.58-8.223-6.5-16.343-13.2-25.123-18.946-2.929-1.917-5.512-4.5-8.569-6.194-3.191-1.768-5.085-.184-7.6,2.065a84.629,84.629,0,0,1-8.424,6.97c-4.038,2.778-8.732,4.115-12.792,6.76,2.606,2.73,8.962,3.644,9.883,7.779.935,4.191-5.3,7.462-8.217,9.08a60.01,60.01,0,0,1-16.561,5.833c-4.773,1.031-11.848-.522-15.673,3.083-1.09-2.308-2.113-3.514-.318-5.722s4.988-2.584,7.518-3.432c6.833-2.291,13.563-5.343,20.174-8.2-.878-2.055-3.07-3.461-4.743-4.8a42.232,42.232,0,0,1-6.335-6.4c-3.708-4.533-7.031-9.367-10.562-14.033-1.531-2.023-2.928-4.044-5.724-2.924-2.468.989-4.878,3.554-7.249,4.883-5.364,3.005-10.057,5.89-15.962,7.8-2.38.77-12.122,2.964-9.531-3,.768-1.766,3.335-2.494,4.917-3.267,2.922-1.428,5.834-2.884,8.649-4.515,5.783-3.349,10.883-7.677,16.293-11.573,5.969-4.3,12.039-8.469,17.642-13.245-5.576-3.7-11.761-6.4-17.527-9.783-5.827-3.417-11.7-6.505-17.727-9.54a106.749,106.749,0,0,1-14.054-8.117c-1.74-1.242-7.725-6.4-9.632-3.173m175.316-120.2q-1.1.277-2.179.628c4.888,7.478-.509,16.736,1.021,24.828,4.513-2.671,5.1-13.058,11.955-11.137,7.379,2.068,3.708,11.158,5.941,16.357,3.488-3.051,7.56-.2,9,3.419,1.558,3.921-.6,7.541.124,11.422.751,4.016,2.993,1.38,4.236-.988,1.584-3.019,2.968-7.1,2.384-10.552-.71-4.2-3.528-8.1-5.273-11.919-1.734-3.79-3.377-7.658-5.887-11.02-4.754-6.368-13.011-12.088-21.322-11.038m47.27,89.679c-3.191-7.97-7.913-15.269-10.931-23.3-.882-2.349-1.375-6.094-3.709-7.541-1.533-.951-3.574-.38-5.265-.892a11.747,11.747,0,0,1-4.672-2.978c-2.212-2.293-2.929-5.44-5.538-7.436-3.367-2.577-5.968-3.565-7.569-7.871-1.257-3.382-1.26-3.878-5.039-3.123a10.075,10.075,0,0,1-10.324-3.41c-4.82-5.461-5.353-13.154-2.988-19.746,1.106-3.082,3.031-6.669,1.432-9.9-1.486-3-5.093-5.151-7.378-7.541-5.778-6.04-10.3-13.109-15.717-19.447a32.3,32.3,0,0,1-3.622-4.767c-.634-1.1-1.009-3-2.48-3.315-2.533-.538-6.068,3.844-7.342,5.44-9.325,11.68-2.653,27.589-1.518,40.757.578,6.705,1.878,14.745-1.094,21.059-2.8,5.95-9.888,8.92-15.861,10.576-8.057,2.235-16.71,2.136-24.908.779a65.319,65.319,0,0,1-12.48-3.461c-4.159-1.573-8.485-4.278-12.723-1.424-5.471,3.685-3.781,11.077-2.579,16.465,1.963,8.8,5.39,17.011,8.422,25.465,2.546,7.1,4.608,16.011-.745,22.365a29.045,29.045,0,0,1-22.468,9.988c-17.11-.683-32.73-13.449-50.215-8.227,3.285,1.359,6.758,2.158,9.968,3.714,3.875,1.878,7.462,4.373,11.224,6.462,7.221,4.009,14.467,7.959,21.525,12.254,6.377,3.88,12.406,8.131,18.492,12.431,7.584,5.358,11.578-.576,16.444-6.364,10.621-12.633,20.732-26.012,30.381-39.4,8.39-11.64,16.177-23.792,22.244-36.795,2.171-4.653,5.826-12.545,12.178-11.628,5.639.814,8.928,7.624,11.844,11.791,2.034-1.459,3.778-3.409,6.525-2.606,2.278.665,3.854,3,4.862,5,.693,1.371,1.166,5.993,2.325,6.688.824.495,3.976-.569,5.381-.244,4.807,1.112,6.344,7.3,6.3,11.587-.068,5.916-2.538,11.835-4.563,17.313-4.537,12.28-12.311,21.877-20.88,31.581a322.728,322.728,0,0,1-27.611,27.512q-3.631,3.235-7.177,6.561c-1.936,1.823-5,3.719-6.515,5.86-2.8,3.962,4.7,5.761,7.486,7.21,12.007,6.239,23.071,14.456,33.644,22.834,10.9,8.641,21.869,17.316,32.347,26.471,10.25,8.956,19.931,18.5,30.725,26.832,11.089,8.557,22.709,16.457,34.1,24.6s22.506,16.725,33.9,24.886c11.134,7.975,23.086,14.811,34.8,21.892,6.126,3.7,12.284,7.355,18.439,11.012,4.977,2.957,10.378,7.553,16.278,7.927,5.317.337,10.358,2.294,13.536-3.49,2.412-4.391,1.413-10.431-.7-14.7-2.578-5.206-6.61-9.993-9.849-14.811-3.725-5.54-7.183-11.24-10.86-16.809-3.525-5.339-7.444-10.268-11.377-15.3-3.987-5.1-7.013-10.852-10.567-16.253-7.6-11.547-15.406-22.885-22.607-34.691-16.515-27.075-31.307-55.027-45.442-83.4-1.245-2.5-30.3-54.007-29.488-54.451M378.042,377.285c8.876,30.7,3.757,61.922,1.937,93.155-.92,15.792-1.06,31.682-1.468,47.5-.2,7.687-.185,15.38.134,23.064.161,3.865.443,7.718.718,11.576.243,3.411-.672,7.183-.241,10.475.551,4.216,8.917,5.044,6.346,10.455-1.724,3.63-7.762,4.185-11,5.715,1.438,1.667,3.688,4.16,6.087,4.317,2.161.141,3.829-1.734,5.766-2.443,1.719-.63,4.085-1.24,5.171.768,1.137,2.1-1.244,4.44-2.186,6.07,3.2.62,5.416-1.293,8.3-1.118,3.039.185,3.176,3.177,5.173,4.908,2.283,1.98,6.271,2.406,9.086,3.239a45.984,45.984,0,0,1,9.549,3.852,27.571,27.571,0,0,1,11.883,14.5c2.042,6.025-1.147,11.239-5.9,14.936-1.77,1.377-4.307,2.978-6.654,2.235-2.682-.849-3.1-3.034-6.371-2.871-2.936.145-5.723,1.319-8.675,1.469-4.338.221-8.672-.569-13.015-.4-17.525.673-35.052.823-52.547-.863-4.527-.436-8.964-.793-13.426-.936-3.47-.111-3.76-2.7-4.348-5.951-1.42-7.852,1.72-15.582.165-23.212.1.5-2.353-.807-2.649-1.056-1.8-1.519-2.406-3.677-2.943-5.92a59.011,59.011,0,0,1-.974-18.146c1.005-13.824,3.576-27.519,3.365-41.416-.106-7,.105-13.992.108-20.994,0-6.432.583-12.779.638-19.166.119-14,1.591-27.849,2-41.837-2.913,2.836-4.458,6.789-6.308,10.327a124.419,124.419,0,0,1-7.593,12.7c-5.739,8.36-13.438,15.164-21.415,21.332-15.222,11.771-31.759,20.886-50.409,25.878a381.287,381.287,0,0,1-61.42,11.1,74.571,74.571,0,0,1-14.511.262c-3.16-.307-8.3-2.862-11.3-1.566-3.413,1.474-4.1,5.017-8.575,4.023-1.707-.379-2.944-1.521-4.439-2.29-2.2-1.132-2.287-.351-4.386-.207-2.341.161-3.744-1.009-5.785.877-1.732,1.6-1.565,2.724.018,4.223,2.224,2.107,5.785,2.461,8.011,4.661,2.166,2.14,1.778,4.771-1.568,4.8-3.367.032-6.359-2.366-9.649-2.679.7,9.739,3.63,20.621.383,30.176-1.506,4.433-4.739,7.289-9.56,7.258-8.066-.052-15.142-7.477-20-13.262-2.686-3.2-4.863-6.79-7.456-10.066-2.651-3.349-5.494-6.717-7.012-10.768-1.615-4.31-1.143-8.635-.24-13.059,1.117-5.476,2.156-11.007,3.506-16.431,2.618-10.518,7.886-20.118,10.545-30.6,1.006-3.967.993-8.623,3.532-12.024,2.688-3.6,6.87-3.833,11.017-3.6,5.133.285,10.263.853,15.37,1.434,3.224.367,10.29,2.694,12.914.711.9-.683.9-2.472,1.961-3.089,1.019-.6,2.664-.168,3.777-.085,5.514.409,11.075.906,16.6,1.068,20.534.6,42.2-2.6,60.534-12.147,8.508-4.43,14.988-11.4,21.826-17.99,6.724-6.476,12.584-13.447,14.393-22.849a56.877,56.877,0,0,0-1.717-27.158c-2.672-8.094-12.157-13-19.059-16.987a212.829,212.829,0,0,0-30.048-14.094c-1.637-.631-3.627-1.433-5.427-1.111-2.207.4-3.691,2.309-5.7,3.154-2.388,1-5.316,1.01-7.835,1.6-2.443.568-4.823,1.35-7.311,1.726-7.834,1.183-18.844.239-25.318-4.769-10.584-8.184-4.189-19.768-.789-29.73-3.594-.122-6.588.719-10.019-.82a15.3,15.3,0,0,1-7.649-7.651c-2.836-6.189-1.2-13.3-.361-19.756a34.076,34.076,0,0,1,1.922-8.554c.862-2.123,2.277-4.146,2.8-6.391.576-2.473-.171-2.617-2.232-3.8a19.4,19.4,0,0,1-7.409-7.119c-3.809-6.267-3.9-13.107-.783-19.7,1.264-2.668,4.278-6.336,3.935-9.453-.295-2.681-3.327-4.769-5.113-6.524a195.054,195.054,0,0,0-17.491-15.155c-2.858-2.21-6.006-4.216-8.6-6.727-1.9-1.839-3.836-5.841-6.439-6.808s-4.34,1.943-6.155,3.5c-2.829,2.432-5.539,5.231-8.622,7.339-5.529,3.782-12.384,3.074-18.628,1.866a49.389,49.389,0,0,1-18.132-7.152c-2.209-1.457-4.79-4.416-7.51-4.653-2.906-.253-6.062,2.638-8.139,4.373-5.421,4.531-7.049,11.567-10.207,17.653A35.8,35.8,0,0,0,12.744,255.9c.863,6.874,3.509,12.068,7.445,17.621.813,1.149,2.719,3.318,1.326,4.588-1.7,1.555-5.2-1.562-6.34-2.569C3.81,265.536-2.65,250.463,1.04,235.374c1.981-8.1,5.855-15.6,10.354-22.568,1.913-2.965,3.779-5.93,7.107-7.442,3.787-1.721,8.079-1.516,12.124-1.929-2.8-13.706-3.674-28.621,4.924-40.566,6.6-9.167,20.11-17.188,30.819-9.754-.439-10.105-1.878-19.7.809-29.65a72.739,72.739,0,0,1,4.882-12.947c1.987-4.067,4.73-7.515,6.335-11.748,6.332-16.7,18.481-31.611,31.457-43.595,13.117-12.113,25.988-26.891,42.511-34.47C169.6,12.8,187.154,5.693,205.844,2.1c19.4-3.729,39.338-4.495,58.88-.964,17.131,3.1,32.985,13.5,45.948,24.724,14.792,12.8,24.34,28.24,31.894,46.12,1.659,3.927,3.26,7.889,5.295,11.642,2.258,4.165,5.159,8.038,6.819,12.507,1.481,3.985,1.73,8.309-.908,11.87-1.854,2.5-5.658,3.069-7.28,5.359-.819,1.155-.736,2.253,1.063,2.6,1.858.355,2.744-1.719,4.08-2.55,3.324-2.071,8.017-.307,11.378.87A37.7,37.7,0,0,1,382,129.016c4.565,6.645,7.6,14.193,10.611,21.624a84.489,84.489,0,0,1,4.76,14.312c.394,1.869.943,6.934-2.007,4.714-1.2-.9-2.907,5.929-2.584,7.016,1.122,3.782,5.124,7.328,7.479,10.389,5.538,7.2,9.246,15.262,13.153,23.4,8.461,17.629,17.882,34.744,26.935,52.068,18.434,35.279,38.58,69.2,59.71,102.925q15.7,25.06,32.455,49.361c4.938,7.163,9.892,14.33,14.723,21.565,4.105,6.149,8.157,13,7.1,20.67-.967,7.027-5.139,12.671-11.885,14.969-3.615,1.232-7.906,2.651-11.776,2.273-4.231-.413-7.963-3.246-11.49-5.372q-24.309-14.659-48.63-29.292c-18.135-10.91-34.722-23.864-52.025-35.994-8.8-6.172-17.882-11.734-27.055-17.321-2.066-1.258-11.438-10.272-13.425-9.041" transform="translate(0 1.143)" fill-rule="evenodd"/>
          <path id="ink-shape-2" data-name="ink-shape" d="M437.766,1071.011c-4.43,6.527-9.088,12.661-15.323,17.613a146.66,146.66,0,0,1-20.772,13.491c-12.935,7.139-30.272,13.46-45.3,10.224-4.272-.92-11.107-4.66-7.393-10,1.866-2.684,5.871-1.984,8.706-1.836,4.567.239,8.561.5,12.937-1.039,8.041-2.826,16.137-5.492,23.988-8.819,7.6-3.223,14.274-7.643,21.251-11.985,6.543-4.073,11.535-8.947,17.283-13.87,1.574-1.348,4.281-3.708,5.77-1.086,1.076,1.894-.562,5.457-1.152,7.309" transform="translate(-216.753 -661.524)" fill-rule="evenodd"/>
          <path id="ink-shape-3" data-name="ink-shape" d="M9.741,79.684C8.309,82.172,5.128,87,1.655,84.917c-4.43-2.655,1.315-11.134,2.4-14.33C8.76,56.666,9.093,41.752,6.789,27.357,5.642,20.2,3.566,13.212,2.784,6c-.152-1.4-.853-5,.906-5.819C5.8-.81,7.919,2.608,8.607,4.111,11.269,9.923,12.3,17.557,13.72,23.774A114.586,114.586,0,0,1,16.9,49.1C16.913,59.414,14.942,70.648,9.741,79.684Z" transform="matrix(0.94, -0.342, 0.342, 0.94, 363.602, 24.464)" fill-rule="evenodd"/>
          <path id="ink-shape-4" data-name="ink-shape" d="M7.507,17.191c-.426,2.556-.62,9.863-4.713,9.028C-1.847,25.271.736,13.918.56,10.6.467,8.847-.536.92,1.782.118,6.611-1.551,7.324,14.942,7.507,17.191" transform="matrix(0.94, -0.342, 0.342, 0.94, 396.561, 35.439)" fill-rule="evenodd"/>
          <path id="ink-shape-5" data-name="ink-shape" d="M465.554,1034.917c-4.446,4.054-9.609,3.816-15.222,3.43-2.85-.2-9.451-1.885-4.864-5.422,2.4-1.848,21.2-3.119,20.086,1.992" transform="translate(-276.547 -642.078)" fill-rule="evenodd"/>
          <path id="ink-shape-6" data-name="ink-shape" d="M1420.453,1233.307c.316-.629,2.985-3.649,3.56-2.427.543,1.151-2.855,2.393-3.56,2.427" transform="translate(-884.95 -766.234)" fill-rule="evenodd"/>
          <path id="ink-shape-7" data-name="ink-shape" d="M476.3,641.195c-.547,1.129-2.831.143-3.618.314,1.069-2.291,2.34-1.8,3.618-.314" transform="translate(-294.485 -398.252)" fill-rule="evenodd"/>
          <path id="ink-shape-8" data-name="ink-shape" d="M935.181,325.4q-.357,1.357-.712,2.716l-1.1-2.034,1.809-.681" transform="translate(-581.496 -202.294)" fill-rule="evenodd"/>
          <path id="ink-shape-9" data-name="ink-shape" d="M900.682,657.971c5.707.576,11.433.868,17.163,1.044,4.836.149,6.823-.767,7.44-5.8.732-5.964.982-11.981,1.714-17.946.332-2.71,2.959-8.127-.206-9.577-2.652-1.215-6.789.526-9.567.73-3.094.229-7.764-.716-10.5,1.12-2.924,1.963-2.288,8.835-2.786,12.06-.95,6.148-2.095,12.256-3.259,18.366m-2.722-28.963c-5.172.391-10.363.7-15.52,1.251-2.3.246-6.942,1.382-8.876-.289-4.542-3.923,12.433-5.3,14.359-5.609,3.245-.521,8.8.171,10.88-2.895,2.058-3.032,1.538-8.127,2.07-11.647.8-5.3,1.716-10.589,2.25-15.922.179-1.792-.077-7.713,1.815-8.592,4.347-2.022,2.981,18.816,2.91,20.38-.122,2.689-.257,5.391-.631,8.058-.212,1.5-.954,3.536-.5,5.046,1.311,4.33,8.757,1.832,12.149,1.487,3.8-.388,9.672,1.086,10.93-3.607,1.581-5.9,1.351-12.6,1.937-18.665.162-1.678.586-14.211,3.676-13.24,3.451,1.085,2.1,11.558,2.073,14.255-.036,3.043-.024,6.088-.23,9.126-.185,2.729-.953,6.074-.384,8.778,1,4.741,6.614,2.22,8.244,5.99,1.549,3.584-6.9.774-8.472,2.006-2.354,1.838-1.788,9.52-2.124,12.209-.738,5.908-2.156,12.043-2.617,17.933-.363,4.649,3.372,4.032,7.173,3.7,3.26-.289,6.841-1.064,10.108-.629,2.626.349,6.293,2.769,2.471,4.38-5.975,2.519-18.142-2.627-21.144,5.023-.566,1.443-3.2,18.178-6.513,9.917-1.384-3.453,2-8.871-1.609-11.516-1.253-.918-3.12-.756-4.573-.857-3.579-.25-7.182-.335-10.768-.409s-6.789-.794-8.17,3.125c-1.076,3.054-.956,6.471-1.816,9.6-.645,2.343-2.762,6.444-4.957,2.611-1.442-2.517-.338-6.916-.053-9.653.142-1.37.959-4.207-.081-5.358-1.115-1.236-4.1-.567-5.511-.455-4.074.323-11.659,2.285-14.777-1.412-2.608-3.093,2.814-3.152,4.946-3.361,2.2-.216,4.393-.415,6.588-.646,2.416-.255,5.615.086,7.889-.672,3.819-1.273,3.546-6.469,3.8-9.839.491-6.583,1.971-13.086,3.058-19.592" transform="translate(-542.63 -363.847)" fill-rule="evenodd"/>
          <path id="ink-shape-10" data-name="ink-shape" d="M1111.557,738.8a50.023,50.023,0,0,1-1.946,11.675c-.928,2.731-2.8,3.56-3.441.083-.4-2.2,2.286-14.621,5.387-11.758" transform="translate(-689.125 -459.583)" fill-rule="evenodd"/>
          <path id="ink-shape-11" data-name="ink-shape" d="M466.816,661.421c-1.523-1.094-8.737-6.85-3.523-7.078,2.662-.116,8.4,4.266,8.563,6.7.042.614-1.27.932-1.2,1.525.136,1.131,1.808,1.666,2.347,2.565,1.188,1.983.7,5.9-.839,7.783-3.5,4.3-7.384-2.978-4.676-4.405-.6.318-8.7-3.8-9.007-4.732-1.666-5.1,7.925-.3,8.334-2.354" transform="translate(-285.516 -407.227)" fill-rule="evenodd"/>
          <path id="ink-shape-12" data-name="ink-shape" d="M501.954,709.907c-1.85.058-5.566-.07-6.952-1.392-2.577-2.457,2.448-2.783,3.918-3.928,2.061-1.6,2.465-6.82,5.7-3.592,3.208,3.2.387,6.925-2.667,8.912" transform="translate(-307.939 -435.649)" fill-rule="evenodd"/>
          <path id="ink-shape-13" data-name="ink-shape" d="M443.891,690.381c3.345-.491,10.787,6.725,7.175,7.2-2.39.318-6.654-5.276-7.175-7.2" transform="translate(-276.547 -429.665)" fill-rule="evenodd"/>
        </g>
      </g>
      <g id="Character_selfie" data-name="Character/selfie" transform="translate(519.977 22.724)">
        <path id="Accent" d="M897.5,825.8c1.024-.4,4.036-2.307,5.141-2.093,1.817.352,4.828,5.549,6.061,7.026l11.927,14.292c1.591,1.907,3.886,3.909,5.019,6.115.872,1.7,1.171,4.038,1.692,5.858,6.465,22.6,12.788,45.347,17.5,68.388,1.014,4.959,1.975,9.953,2.539,14.988.278,2.488,1.008,6.145-.075,8.55-1.222,2.71-5.153,3.837-7.708,4.677a105.351,105.351,0,0,1-15.318,3.483c-12.4,2.105-24.959,3.328-37.494,4.317-3.829.3-7.771.3-11.576.812-1.817.245-1.273-.242-1.845.978-.8,1.7-.269,5.24-.363,7.09h0l-.669,13.059q-.912,17.81-1.824,35.621-.925,18.057-1.85,36.114-.35,6.841-.7,13.684c-.125,2.438.247,5.586-.407,7.946-.495,1.785.319,1.259-1.87,1.365-5.069.245-10.322-.369-15.392-.551l-17.255-.617c-1.643-.059-3.478.407-4.14-.771-.806-1.434-.192-5.377-.249-6.978l-.479-13.388h0l-1.314-36.75q-.9-25.06-1.794-50.122l-19.188,3.862-28.354,5.705c-4.335.873-9.483,2.863-13.959,2.221-4.446-.638-6.284-2.537-6.533-6.757-.268-4.524-.163-9.083-.1-13.611.1-7.406.312-14.81.592-22.212l37.884-3.412,20.172-1.817c1.526-.137,5.288.158,5.969-.993,1.059-1.788-.12-7.668-.151-9.691q-.151-9.56-.3-19.121-.552-35.177-1.1-70.353,4.535.149,9.07.274c13.154.371,26.372.909,39.529.5,6.6-.2,12.85-1.982,19.079-4.083C890.967,828.292,894.245,827.076,897.5,825.8ZM884.8,889.155l-6.72,32.867L901.08,920.5Z" transform="translate(-680.432 -529.42)" fill="#ff5678" fill-rule="evenodd"/>
        <g id="Ink-2" data-name="Ink" transform="translate(0 0)">
          <path id="ink-shape-14" data-name="ink-shape" d="M396.439,99.387c-.47,3.656-.135,7.641-4.262,8.6-3.819.893-8.009.642-11.9.955-4.376.352-8.739.832-13.105,1.265-5.505.545-4.72-1.57-5.924-6.272-1.1-4.293-2.855-8.578-4.315-12.766a45.427,45.427,0,0,0-2.414-5.571c-.838-1.66-.44-3.919-1.343-5.314-3.082-4.762-18.114,8.259-19.511,5.693,2.543-1.98,6.946-4.2,7.726-7.584.918-3.982-1.613-5.172-4.793-3.715a98.764,98.764,0,0,1-25.388,7.693c2.76-1.845,27.721-16.385,19.344-20.7-1.888-.972-4.41.858-6.113,1.55a64.022,64.022,0,0,1-8.346,2.556q-4.459,1.138-8.941,2.178c-2.1.484-5.834,2.2-7.876,1.779-2.074-.431,1.6-1.719,2.2-2.022,2.623-1.321,5.2-2.741,7.763-4.179a45.213,45.213,0,0,0,12.194-9.451c2.607-2.976,6.912-9.476,5.1-13.592-1.052-2.386-3.357-4.591-4.711-6.851-1.581-2.64-2.857-5.454-4.23-8.2,2.3,1.011,4.878,1.269,7.224,2.176s4.728,1.642,7.169,2.317c4.9,1.353,9.778,1.594,14.63,2.691,5.492,1.242,11.216,2.631,16.8,3.349a31.617,31.617,0,0,1,13.391,4.6,40.8,40.8,0,0,1,17.381,22.8c1.748,5.631,2.173,11.507,2.379,17.366.217,6.178.673,12.5-.119,18.648m-47.71.455c-5.936,4.327-12.857,7.709-19.228,11.391-3.646,2.106-7.369,4.074-11.087,6.048-2.639,1.4-5.845,3.979-8.749,4.7-1.838.455-1.7.489-2.863-1.186-1.111-1.6-2.082-3.322-3.122-4.97q-2.877-4.557-5.79-9.09c-4.34-6.784-8.672-13.567-13.232-20.206-4.575-6.662-8.963-13.447-13.4-20.2-2.06-3.141-4.107-6.295-6.293-9.35-1.67-2.333-5.949-5.891-3.917-8.637,1.888-2.551,6.188-4.671,8.731-6.6,3.108-2.358,6.235-4.691,9.334-7.061,6.663-5.094,13.152-10.41,19.81-15.511,5.65,9.91,12.3,19.2,19,28.413-6.063,3.869-12.188,7.547-18.576,10.859-4.718,2.446-11.937,5.752-14.918,10.392-2.936,4.569-.052,9.842,5.181,9.925,3.13.05,6.25-.779,9.318-1.253,2.215-.342,6.259-1.939,8.257-.813-3.59,2.29-16.613,8.966-9.593,14.818,5.018,4.184,13.5-1.921,18.922-.665-1.652,3.171-3.37,8.229,1.216,9.953,3.817,1.436,8.812-1.24,12.247-2.659,2.482-1.025,4.948-2.085,7.389-3.2,1.94-.89,4.265-2.694,6.338-3.078,2.419-.449,7.346,6.295,5.019,7.992M238.369,333.548c3.4-.619,5.141-2.024,6.21,2.1.959,3.694,1.908,7.252,3.143,10.878a23.529,23.529,0,0,0-13.854,6.555c-2.755,2.539-8.235,8.6-6.876,12.851,3.3,10.332,19.968-12.847,21.949-15.324,2.425,3.544,3.317,8.184,4.522,12.236.858,2.884,4.041,8.413-.167,9.115-5.908.985-16.992,3.184-16.291,11.552.828,9.876,13.391,9.82,20.44,10.264,3.974.25,3.992,3.434,4.558,7,.253,1.594,1.044,3.747-.309,4.914-1.2,1.035-4.881,1.064-6.445,1.4-4.559.979-9.115,1.976-13.673,2.954-5.175,1.11-7.911-.445-12.748-1.862-1.791-.525-3.59-.3-3.722-2.309-.081-1.231,1.123-3.133,1.518-4.35a67.847,67.847,0,0,0,3.339-14.828c.653-7.347-.163-18.362-9.209-19.8-4.3-.682-5.132-.9-7.074-4.944-2.1-4.367-5.438-8.413-4.631-13.444.583-3.646-.4-10.545,1.926-13.569,1.076-1.4,3.173-2.232,4.6-3.258,1.824-1.309,3.581-2.709,5.281-4.175,1.43-1.231,3.173-3.639,4.794-4.529,1.981-1.088,2.041-.346,3.463,1.352,2.1,2.508,5.437,9.915,9.254,9.218m9.6,16.322c-1.177,2.376-3.9,4.585-5.63,6.568A77.041,77.041,0,0,1,237,362.349c-2.139,1.99-9.739,6.8-8.065.327,1.3-5.032,6.178-9.108,10.469-11.619.831-.487,10.554-5.206,8.562-1.186m8.313,23.957c.754,3.368,1.159,6.84,1.8,10.233.33,1.734,2.154,5.924,1.41,7.592-1.26,2.827-12.6-.52-14.948-1.492-5.595-2.316-8.163-8.261-3-12.5,1.956-1.6,13.986-7.2,14.739-3.836m7.433,40.452c.632,3.215,2.479,6.2-.575,8.627-2.536,2.018-6.691,3.4-9.815,4.114-4.259.979-5.629-1.408-7.883-4.477-2.424-3.3-5-6.49-7.682-9.589l25.224-5.647a35.736,35.736,0,0,0,.731,6.971M243.57,429.2c-4.385-.227-9.1,1.093-13.549,1.44-5.554.433-11.091,1.064-16.65,1.437,1.424-4.544,3.982-8.6,5.983-12.888,2.007-4.307,3.416-4.773,8.034-5.1,4.279-.308,7.3-1.781,10.454,1.849,3.286,3.775,6.261,7.878,9.261,11.88a6.165,6.165,0,0,1-3.533,1.386m-31.343.927c-1.082.788-4.418-1.452-5.542-1.886-2.187-.845-2.672-1.117-3.814-3.25-.98-1.834-2.54-3.919-2.848-6.013-.406-2.759.816-6.393,1.26-9.135,1.184,2.855,5.07,3.186,7.7,3.653,1.986.354,7.87-.21,9.367,1.2,1.655,1.563-1.391,5.92-2.185,7.562-.947,1.959-2.117,6.541-3.935,7.865m-2.12,2.264c-1.3.211-5.049,1.506-4.974-.872.084-2.716,5.24.214,4.974.872m-6.6-.142c-.238,2.287-5.16,2.1-5.272.086-.191-3.4,5.65-3.738,5.272-.086m-5.628-61.682c-1.258,3.584-8.922,4.866-11.866,5.97-2.688,1.008-10.718,5.659-13.49,3.972,9.382-6.448,19-12.767,26.947-21a11.843,11.843,0,0,1-.77,5.658c-.541,1.737-.263,3.814-.82,5.4m-2.333,13.069c-1.35,8.779-2.675,17.673-4.5,26.364-3.482-1.064-6.353-3.22-10.01-3.971a29.187,29.187,0,0,0-10.151-.2c-7.172,1.067-13.565,4.614-19.822,8.071-.578-6.02-1.775-12.463-1.633-18.5.117-5.019,8.705-6.5,12.6-8.578,2.357-1.254,4.488-3.018,7.173-3.455,2.763-.451,5.429-.437,8.158-1.279,6.452-1.991,12.525-5.147,18.847-7.5.517,3.014-.2,6.084-.659,9.053m-6.029,37.154c-.287,2,.075,5.557-1.446,7.078-1.432,1.433-4.491,1.48-6.379,1.868q-8.629,1.776-17.244,3.6-3.855.819-7.721,1.556c-1.231.232-4.318,1.413-5.355.433-.983-.93-.251-3.9-.2-5.148a71.079,71.079,0,0,0,.09-7.479c-.3-4.778-.033-6.608,4.414-9.08a48.11,48.11,0,0,1,14.922-5.4,27.477,27.477,0,0,1,15.638,1.62c1.426.575,3.565,1.284,4.229,2.821.9,2.092-.645,6.009-.949,8.129m-6.477,77.018c-2.108,1.322-6.7,1.1-9.119,1.365a44.554,44.554,0,0,1-11.733-.418c-2.925-.454-7.29-1.082-9.531-3.136-3.185-2.917.49-3.051,2.928-2.846a137.248,137.248,0,0,0,21.342-.332c1.378-.1,5.083-1.31,6.412-.744,1.7.724,1.179,5.185-.3,6.111m-4.018,47.151c-13.2-1.283-20.857-12.216-25.645-23.392-2.57-6-1.643-12.3-1.9-18.642-.046-1.159-.774-4.035.418-4.9,1.12-.814,5.649,1.7,6.874,2a42.419,42.419,0,0,0,19.518.191c2.727-.647,4.253-1.852,5.119.85.7,2.176-.447,6.186-.572,8.466-.216,3.945.4,35.835-3.815,35.426m-26.375.012c-.051-1.915-1.017-21.268-.079-21.326,2.786,6.009,5.647,11.384,10.718,15.8a29.124,29.124,0,0,0,8.742,5.507c1.217.455,8.114.8,8.452,2.311.591,2.643-4.117,1.576-5.514,1.362-1.12-.173-2.129-.651-3.228-.85-2.094-.38-4.073.131-6.176.173-3.2.065-6.334-.27-9.531.007-2.922.252-3.306-.084-3.384-2.988m1.949-86.8c11.3-3.653,20.748,3.265,26.714,12.321,3.4,5.164,4.162,8.775,3.567,14.89-.213,2.189.18,3.671-1.832,4.563-1.992.883-6.517.228-8.673.329a175.084,175.084,0,0,1-18.571.307c-4.026-.238-4.6-.921-4.526-4.829.083-4.7-.308-9.388-.574-14.1-.288-5.1-2.039-11.562,3.9-13.48m-3.7-6.777c.007-3.457-.2-7,.011-10.455.21-3.422,1.667-3.253,4.9-3.836,7-1.265,13.982-2.68,20.883-4.395,2.73-.678,5.814-1.979,8.658-1.989,2.984-.011,2.826,1.523,2.627,4.165-.443,5.852-1.515,11.618-1.841,17.44-.352,6.283-.536,12.646-.508,18.936.01,2.123.526,3.7-1.284,1.709s-2.7-5.162-4.317-7.4a26.2,26.2,0,0,0-13.707-9.816,19.719,19.719,0,0,0-9.283-.386c-.935.188-5.618,2.424-6.214,1.982-.4-.3.078-5.815.079-5.955M192.243,571.2a83.261,83.261,0,0,0,14.473,8.056c2.828,1.267,14.021,3.933,14.379,6.785.191,1.521-1.664,3.226-2.879,3.406-1.541.228-4.081-.778-5.65-.969-5.709-.693-11.406-.7-16.976-2.287-11.121-3.174-22.651-4.068-33.888-6.835-2.674-.658-5.353-1.275-8.04-1.871-2.553-.567-3.7-.47-3.786-3.2-.2-5.987,1.518-12.121,1.532-18.182,9.09,1.038,18.212,1.024,27.327,1.878,3.906.365,3.815,1.106,5.526,4.519a24.945,24.945,0,0,0,7.984,8.7M147.921,376.7c-.115-2.216-.205-4.439-.405-6.649-.135-1.485-1.491-5.635-.726-6.792.909-1.373,1.824-.535,3.45-.573a10.939,10.939,0,0,0,5.7-2.04,27.076,27.076,0,0,0,8.007-8.224c1.911-2.886,1.555-6.83,1.532-10.286-.061-8.937.591-17.654.045-26.63-.25-4.123,3.269-1.594,6.111-1.06,4.649.873,9.7.269,14.426.28-.176,1.1-9.837,3.827-11.4,4.866a12.784,12.784,0,0,0-5.961,11.756c.733,9.751,11.473,11.382,19.32,11.4-6.511,5.757-12.9,11.245-18.022,18.347-3.773,5.237-10.418,15.561-4.25,21.354-5.452,3.1-10.856,6.541-17.023,8.031-.276-4.593-.572-9.186-.811-13.781m-2.475-178.007c2.22,1.426,3.153-.59,4.843-1.634,2.379-1.471,3.167-1.327,3.469-4.612.558-6.093-2-11.608-5.223-16.594-1.462-2.266-2.922-4.965-4.986-6.736-1.882-1.615-3.785-1.059-5.529-2.728-.685-.657-.538-1.583-1.67-1.557-.745.017-2.556,2.326-3.172,2.836-1.944,1.61-4.323,2.835-6.871,1.508-3.71-1.932-2.518-8.944.363-11.215,2.219-1.749,4.841-1.479,7.367-1.761,1.894-.211,2.288-.129,1.509-2.3-.546-1.518-1.805-2.7-2.427-4.187-1.2-2.851-.935-6.316-1.451-9.333-.464-2.7-1.548-5.628-1.509-8.373.051-3.5,1.194-4.4,4.223-5.385,2.935-.949,5.365-3.042,7.864-4.8,2.829-1.991,5.928-3.305,8.835-5.123,1.974-1.234,3.248-3.73,5.418-2.564,2.579,1.385,5.306,5.395,7.5,7.444-3.209,2.037-3.955,2.928-3.513,6.916.406,3.656,1.151,6.913,3.945,9.46,1.074.979,3.076,1.762,3.908,2.891.971,1.315.34.156.217,1.64-.065.8-.7,1.324-.561,2.249.616,4.109,5.336,1.684,7.281.256,6.949-5.1-6.026-9.149-9.109-11.007-2.128-1.284-3.18-5.38.191-4.292,2.243.724,7.31,6.861,7.825,1.267,5.562,3.231,8.994,10.095,13.658,14.435,3.363,3.13,7.881,6.6,5.211,11.6-3.4,6.372-10.147,9.264-16.305,12.014-5.974,2.666-4.733,10.212-1.54,14.831a16.077,16.077,0,0,0,7.174,5.532c2.972,1.326,3.59,2.883,4.239,5.959.721,3.411-.045,4.786-3,6.549a81.425,81.425,0,0,1-8.978,4.736c-6.658,2.914-13.565,3.1-20.647,4.091-2.482.348-4.862,1.073-6.216-1.388-1.523-2.769-1.635-7.538-2.335-10.625m-1.07-13.252c-1.667-.878-5.69,2.039-7.8,2.167-3.408.206-5.646.129-8.671,1.936a73.017,73.017,0,0,0-15.051,12.589q-7.748,8.061-15.45,16.167-3.5,3.663-7.049,7.275c-1.868,1.9-3.694,4.561-6.006,5.914.12-1.607,1.105-2.743,1.455-4.233.2-.871-.152-1.61-.02-2.443.043-.271.77-1.212.881-1.52.3-.815.656-1.619,1.006-2.465.327-.79.279-1.608.611-2.433.341-.85,1.275-1.413,1.6-2.25.949-2.451-.622-3.587-3.135-3.529.983-4.9,1.413-7.3,6.54-9.031a78.7,78.7,0,0,0,14.183-6.088c4-2.292,7.328-5.6,11.169-8.149,3.438-2.287,7.719-4.684,7.683-9.374,1.95,1.322,3.777,2.435,6.007,1.119,1.882-1.112,2.132-2.007,4.308-2.216a7.146,7.146,0,0,1,4.462.566c1.866.918,2.121,1.557,3.207-1.147,1.235,1.039,4.356,5.368,4.252,7.081-.057.944-.2,1.37-1.369,1.619-1.659.353-1.595-.909-2.814-1.551M136.6,441.627c-.811,1.243-4.23,1.014-5.55,1-4.025-.052-5.432-3.43-7.2-6.694-2.784-5.146-6.945-15.835-2.378-21.236,3.6-4.262,10.626,1.108,13.086,4.327,2.124,2.781,1.493,6.953,1.69,10.29.166,2.813,1.952,9.863.35,12.316m-11,1.864c-1.609,1.609-6.831,1.268-8.963,1.614a85.48,85.48,0,0,0-11.281,2.48c-2.748.837-5.465,3.088-6.19-.744-.608-3.221-.306-7.084-.247-10.335.063-3.507.43-6.97.735-10.462.207-2.361-.31-6.705,1.617-8.518,1.661-1.562,5.7-1.712,7.857-2.23,3.541-.849,7.241-1.965,10.923-1.585a24.437,24.437,0,0,0-.027,17.752c.657,1.658,6.571,11.033,5.577,12.027M98.544,420.267c-.9,8.769-1.8,17.593-.936,26.406.052.526.68,2.933.407,3.31s-2.517.592-3.025.712c-2.015.478-4.028.985-6.056,1.409-3.948.825-4.463-1.669-5.237-5.327-1.659-7.839,1.558-16.337,3.507-23.866.949-3.666,1.653-4.088,5.258-4.392,2.509-.211,6.464-1.977,6.082,1.749M83.3,452.982c-1.509,1.372-3.016-5.1-3.149-5.762-.527-2.62-.234-5.277-.226-7.938.013-4.156-.3-8.294-.311-12.431,0-2.237-1.68-6.812.968-8a8.781,8.781,0,0,1,4.564.254c1.455.95.881,1.566.45,3.218-.965,3.709-1.8,7.437-2.64,11.177-.825,3.667-1.638,7.2-1.245,10.983.129,1.253,2.552,7.619,1.59,8.494m48.11-40.858c3.677-1.036,3.874,1.781,3.868,4.478-.561-.43-5.787-3.937-3.868-4.478M82.219,214.186c-.9,1.485-6.608,1.89-8.239,2.281-3.208.768-6.418,1.532-9.618,2.332-6,1.5-11.843,3.19-17.989,3.975,3.375-5.4,4.425-10.07,3.8-16.813a184.4,184.4,0,0,0-3.759-25.276c-1.932-8.218-4.169-16.381-6.324-24.544-1.058-4.01-2.2-7.944-3.611-11.847-1.129-3.128-2.891-7.065-.976-10.271,4.861,3.547,8.761,7.368,11.533,12.756,2.971,5.776,5.564,11.705,9.012,17.231,1.577,2.526,3.417,4.83,5.1,7.276,1,1.455,1.734,3.554,3.012,4.782,1.473,1.414,3.044,2.082,3.886-.306.9-2.562-1.978-7.631-2.829-10.037-2.054-5.808-4.091-11.6-5.675-17.563-1.282-4.816-3.4-10.639-2.65-15.72.742-5.031,4.156-1.43,5.883.908,3.561,4.822,5.693,10.443,8.032,15.909,2.15,5.022,4.658,9.811,7.037,14.717.828,1.707,1.919,6.117,4.087,6.625,3.152.739,2.885-3.7,2.584-5.5-2-11.938-7.211-23.37-8.293-35.515-.052-.58-.806-5.093-.2-5.47,1.175-.731,2.76,3.847,3.267,4.969a121.757,121.757,0,0,1,6.157,18.148c1.433,5.241,2.729,10.522,4.337,15.713.884,2.854,1.9,5.66,2.9,8.475.9,2.55,1.82,6.907,4.176,8.587,3.342,2.383,15.3-3.284,16.515,1.783.862,3.6-10.228,6.5-12.59,7.6-3.109,1.439-6.16,3.016-9.27,4.457-2.355,1.09-5.74,1.537-7.443,3.588-1.805,2.173-2.094,5.224-2.148,7.92-.042,2.04,1.372,7.075.3,8.836m-7.558,39.323a21.272,21.272,0,0,1-1.462,3.707,51.354,51.354,0,0,1-2.671,6.866c-.986,1.765-2.441,3.344-3.393,5.136-.9,1.7-1.024,3.661-2.079,5.364-1.207,1.945-3.2,3.345-4.4,5.278a26.623,26.623,0,0,1-2.037,3.059,100.86,100.86,0,0,0-8.272,10.848c-.608.987-3.579,5.295-4.762,5.528-2.472.486.405-3.028.889-3.755,3.5-5.255,6.612-10.789,9.992-16.126,3.274-5.168,6.625-10.3,9.776-15.541,2.57-4.277,4.347-10.416,8.524-13.429q.024,1.536-.1,3.066m114.191-48.3c2.034,8.363,4.467,16.467,6.76,24.755,2.128,7.69,4.96,15.92,5.842,23.848a102.345,102.345,0,0,0,5.582,23.254c1.248,3.449,2.532,6.911,3.887,10.32.744,1.873,1.577,3.7,2.422,5.532.656,1.421,2.389,3.722,2.456,5.228.053,1.206.472.724-.718,1.63-1.232.939-3.367.6-4.8.763-3.743.433-7.394,1.841-11.043,2.753-7.038,1.759-15.427,3.155-22.639,1.931-3.034-.515-6.185-.961-9.184-1.632-3.691-.826-4.45-2.353-5.207-5.981-1.657-7.931-3.084-15.841-4.451-23.825-1.627-9.5-3.387-18.983-4.642-28.538-1.268-9.667-2.179-19.343-4.165-28.905,8.014,1.34,15.561,2.854,23.6.658a27.32,27.32,0,0,0,16.306-11.792m31.371,103.535c1.791,3.693-2.527,7.013-4.619,9.857-2.76,3.749-5.337,7.665-8.547,11.056-.963-3.853-1.808-8.189-4.377-11.354-3.282-4.041-7.112-2.39-11.132-4.3,4.216-2.051,9.6-1.268,14.072-3.1,4.412-1.8,8.866-3.22,12.971-5.563.545,1.134,1.084,2.271,1.633,3.4M204.587,394.9c-2.695.15-.892-5.533-.717-6.945.481-3.882.968-7.763,1.389-11.652q3.335,8.794,6.668,17.588c-2.443.349-4.87.872-7.34,1.009M200.2,423c.368.817,2.082,3.54.729,4.042-1.855.688-2.078-3.822-.729-4.042m-3.215-63.159c-8.584,6.854-17.109,13.725-26.4,19.626-2.035,1.293-4.084,1.834-5.433-.73-1.06-2.016.06-4.286.74-6.26a44.639,44.639,0,0,1,8.1-13.5c6.686-8.177,14.644-15.161,24.8-18.384,1.661-.528,4.226-2.119,4.808.079.343,1.293-1.108,4.521-1.4,5.734-1.213,5.01-.948,10.028-5.216,13.434m24.71,49.984c.189,5.82-15.72,1.126-17.7.085,2.08-.7,17.616-2.7,17.7-.085m5.908.036c.945.252,4.57.572,3.216,1.811-1.212,1.109-6.7.664-8.155.8.977-3.211,1.72-3.468,4.939-2.611m-2.947-7.8c-.356,1.295-.5,3.27-1.661,4.157-1.446,1.106-4.518.434-6.154.443q-4.169.022-8.322.433c-1.058.105-5.345,1.4-6.337.516-.729-.647-.457-3.684.073-4.367,1.089-1.4,3.6-.918,5.17-.973,5.753-.206,11.474-.222,17.23-.209m-3.693-21.511a5.446,5.446,0,0,1-1.3-3.017c-.37-1.951-1.312-3.619-1.866-5.5-1.218-4.148,2.674-3.78,5.529-2.259,7.406,3.946,5.619,17.734,3.787,24.189-2.663-1.958-3.646-2.846-4.562-6-.348-1.2-.738-2.38-1.1-3.573-.266-.879-.081-3.231-.485-3.832m.642-67.106c2.068-.25,3.96,6.166,3.369,7.555-1.209,2.84-5.829,5.377-8.182,7.19-1.567,1.206-3.123,2.591-4.8,3.643-1.555.977-2.449.429-3.895.9-2.092.677-2.6,2.89-4.74,3.842-3.012,1.339-6.663,1.713-9.81,2.922a20.193,20.193,0,0,1-11.319.812c-5.756-1-12.5-3.855-11.985-10.85.915-12.341,25.424-18.665,32.108-8.2,1.74,2.724,1.713,5.9,2.842,8.824,1.223,3.166,2.41,1.922,4.249-.41,2.407-3.051,4.644-6.266,6.956-9.39.748-1.01,3.71-6.653,5.2-6.835M71.406,433.607c-.117,2.1.008,4.228-.722,6.23-.735,2.02-2.226,3.653-3.085,5.616-1.741,3.978-1.728,8.791-1.658,13.053.162,9.917,2.51,19.549,3.752,29.348-4.134-.01-8.408.037-12.415-1.145-3.579-1.056-4.15-3.672-5.163-6.968-2.842-9.258-5.912-18.477-6.83-28.172-.437-4.62-.62-9.278-.829-13.913-.182-4.066.731-5.84,4.4-7.853,7.978-4.377,16.249-8.02,24.145-12.6-.807,5.439-1.29,10.921-1.6,16.409M412,108.678c-1.943-.356-3.9-.579-5.864-.813-1.023-.123-4.21.048-4.976-.619-.911-.793.667-6.792.747-8.08a152.454,152.454,0,0,0-.791-23.435c-1.285-13.962-5.675-26.9-15.806-36.949-5.042-5-10.711-8.975-17.6-10.891-4.012-1.116-8.146-1.712-12.167-2.794a60.191,60.191,0,0,0-9.64-2.222c-6.72-.691-12.864-3.231-19.422-4.7-4.825-1.081-12.586-3.644-15.714,1.8a40.063,40.063,0,0,0-8.045-7.211c-2.975-2.063-3.461-4.125-7.1-1.742-7.077,4.63-13.706,10.278-20.316,15.546-6.174,4.92-12.148,10.071-18.618,14.6-6.6,4.615-5.348,12.446-2.245,18.938,5.839,12.22,14.845,22.666,22.728,33.141q7.407,9.843,14.81,19.706c4.7,6.284,8.768,13.557,14.262,19.2,3.464,3.559,7.6-1.1,10.725-3.246,3.88-2.671,7.692-5.441,11.577-8.1,8.09-5.547,16.746-10.743,25.286-15.572l1.863,5.283c-1.875.141-4.41-.278-5.364,1.738-1.364,2.88,1.982,3.259,2.568,4.91.524,1.475-1.624,5.37-2.26,6.7a34.54,34.54,0,0,1-5.623,8.041c-8.7,9.755-19.7,16.733-30.871,23.384-11.95,7.116-24.758,11.461-37.841,16.047-6.653,2.331-13.558,3.414-20.422,4.908-6.615,1.439-13.224,3.328-19.984,3.871-13.829,1.11-28.5,1.942-42.166-1.041a39.172,39.172,0,0,0-4.6-1.168c-1.22-.108-2.123.4-3.274.469-2.472.141-3.889-2.07-5.853-.015-.983,1.027-1,2.753-2.369.835-1.742-2.439,2.711-2.911,4.361-3.607,5.556-2.34,10.022-7.051,13.552-11.813s4.035-9.841,1.887-15.412-7.03-9.345-10.7-13.867c-1.773-2.19-3.405-4.507-5.352-6.551-1.039-1.092-2.714-2.138-2.779-3.239-.076-1.28.691-1.916.232-3.472-.119-.4-.627-.635-.735-1.079a16.447,16.447,0,0,1,0-2.007,8.312,8.312,0,0,0-1.706-3.877,16.043,16.043,0,0,0-2.1-3.041c-1.321-1.065-3.122-.631-4.465-1.71-2.125-1.707-2.873-5.3-4.752-7.377-2.646-2.917-3.211.03-6.014-.9-2.4-.8-2.369-4.4-4.307-5.623-2.729-1.719-5.027,1.443-7.45,2.147-3.188.927-1.963-2.67-4.8-3-2.566-.3-6.12,4.909-7.4,6.758-1.3-1.52-2.73-4.109-5.076-3.181-2.463.974-2.9,5.507-4.7,7.124-.627.562-.495.977-1.266,1.236-1,.334-2.324-1.113-3.612-.672-2.6.89-2.282,4.358-2.287,6.6-3.066-.448-5.2-.676-6.231,2.628-1,3.234-1.386,1.807-4.619,2.858-2.787.905-3.177,3.552-3.637,6.14a6.594,6.594,0,0,0,.412,3.734c.546,1.849.546,1.825-.344,3.59-1.552,3.079-1.645,6.47-1.893,9.858-.263,3.616-.9,6.907.132,10.438.635,2.185.684,5.159,2.824,6.383.849.485,2.291.219,3.013.7,1.379.918.959,2.316,1.878,3.657.688,1,1.8,1.1,2.569,1.914.838.886.888,1.965,1.366,3.046,1.413,3.2,2.742,4.749-1.864,4.932-2.842.113-5.873.965-8.7.7-3.34-.308-4.171-2.175-5.234-5.017-5.358-14.325-8.237-29.851-15.293-43.473-1.549-2.991-7.909-15.21-10.6-6.307-2.267,7.509.707,16.673,1.847,24.147-3.578-3.225-4.9-9.032-7.617-12.969-2.006-2.908-8.289-10.051-11.972-5.958-2.9,3.226-2.177,10.066-1.642,13.923.847,6.1,2.8,11.981,4.189,17.965-1.754-2.293-2.618-5.094-3.835-7.677a51.071,51.071,0,0,0-5.6-9.157A53.8,53.8,0,0,0,41,131.779c-1.757-1.622-4.9-5.171-7.4-5.363-6.421-.492-4.4,11.285-3.423,14.653,2.027,6.979,4.224,13.766,5.8,20.886,3.076,13.91,6.8,27.5,9.068,41.586.5,3.124,1.106,5.617-.129,8.619-1.089,2.645-2.218,5.808-4.227,7.842a82.056,82.056,0,0,0-11.72,15.074,192.956,192.956,0,0,0-10.359,18.266c-1.366,2.9-2.484,6.043-4.054,8.836-1.418,2.52-3.122,4.512-4.13,7.3C5.612,282.813,2.047,295.913.414,310.031c-1.341,11.591-.092,27.01,13.9,29.722,6.429,1.246,12.2-1.605,18-3.958,6-2.433,10.332-6.389,15.223-10.593,6.077-5.224,12.387-10.125,18.528-15.262S77.887,299.1,84,293.906a158.837,158.837,0,0,0,16.717-16.542c5.178-5.912,9.385-12.462,14.4-18.456-.019,7.761-1.171,15.452-1.494,23.2q-.444,10.66-.016,21.309c.287,7.1-1.589,13.856-1.6,20.939-.016,6.91-.29,13.779-.441,20.681-.068,3.1-.675,6.57.482,9.557.864,2.231,3.579,2.928,5.9,3.529,3.58.929,14.351-.86,15.949,2.964.873,2.087-.006,5.886.062,8.193.113,3.8.253,7.6.383,11.4q.2,5.886.409,11.772c.127,3.457.8,7.308.383,10.731-.356,2.933-2.067,2.55-4.777,2.7-4.091.226-8.184.408-12.278.586-6,.263-12.271.143-18.027.852-2.418.3-5.06.171-7.61.656a66.224,66.224,0,0,1-9.4.924c-2.615.129-5.977-.061-8.032,1.873a10.553,10.553,0,0,0-1.378,2.217c-.946,1.4-.42,1.031-1.973,1.346a133.171,133.171,0,0,0-17.759,4.682c-2.969,1.035-5.725,2.424-8.708,3.4-2.615.853-4.531,1.9-5.823,4.47-2.309,4.584-1.724,11.215-1.557,16.155.263,7.707,1.975,15.044,3.822,22.5,1.921,7.754,3.427,15.716,7.164,22.839,1.228,2.341,2.553,5.327,5.061,6.547,3.238,1.575,8.217.62,11.751.626,2.372,0,8.724.818,10.5-1.17,1.717-1.926-.011-7.357-.253-9.746-.85-8.375-2.379-16.827-2.358-25.258,1.934,2.858,5.289,7.792,8.646,3.413.826-1.078.5-1.579,1.971-2.2a9.672,9.672,0,0,1,3.406-.5c1.2.081,1.647.564,2.751.328.977-.21,2.077-1.085,3.2-1.351,13.9-3.3,27.71-6.862,41.665-9.8,3.69-.778,3.165,2.054,3.409,5.244.269,3.528-.244,7.091.245,10.58a26.793,26.793,0,0,1,.157,9.047c-.707,3.6-.252,6.606.452,10.173,2.714,13.754,2.229,28.671,2.842,42.649.318,7.28-.365,14.713.319,21.954.259,2.735,1.785,4.246,2.4,6.734.71,2.857-1.227,6.494-1.816,9.262-1.184,5.555-3.264,13.506.541,18.34,2.055,2.611,4.749,2.989,7.791,3.872,3.64,1.057,7.229,2.288,10.886,3.289,13.364,3.658,27.805,4.374,41.5,6.389a44.547,44.547,0,0,0,9.84.213c2.08-.145,7.205.54,8.935-.705.927-.666.457-1.5.928-2.315a6.566,6.566,0,0,1,2.619-2.348c1.887-1.192,4.069-1.889,4.387-4.35.778-6.029-6.756-9.224-10.784-11.83-5.148-3.333-11.367-4.619-16.83-7.339-3.015-1.5-5.923-3.2-8.827-4.9-1.26-.738-3.813-1.574-4.69-2.737-.9-1.186-.019-2.879.352-4.574,1.531-7,1.014-14.165,1.806-21.243s.576-14.222.837-21.347c.269-7.338.875-14.658,1.341-21.985.428-6.767.86-13.644.932-20.418.067-6.282.924-12.445,1.126-18.768.069-2.146-.316-6.038,1.108-7.856,1.25-1.594,5.387-1.394,7.317-1.674,5.2-.755,10.153-1.417,15.3-1.872,12.238-1.083,25.856-1.88,37.428-6.146,4.772-1.759,11.122-4.162,12.706-9.642,1.821-6.3-.556-14.042-.635-20.483-.084-6.876-2.077-13.586-3.572-20.249-1.61-7.173-2.624-14.469-4.363-21.615-1.6-6.557-4.185-12.364-6.632-18.589-.993-2.525-6.648-11.225-4.894-13.371.945-1.156,4.349-1.449,5.729-1.977a57.437,57.437,0,0,0,8.7-4.055c3.664-2.166,11.687-5.748,12.057-10.559.352-4.6-4.167-9.246-6.464-12.857-3.7-5.82-8.369-10.907-11.893-16.842-7.123-11.993-12.788-25.13-17.982-38.054-2.717-6.762-3.6-13.13-4.051-20.347,7.889.019,15.919.989,23.758-.113,8.531-1.2,17.074-3.223,25.53-4.889,15.4-3.035,30.186-6.463,44.452-13.3,13.359-6.4,26.915-13.4,37.976-23.564,5.719-5.253,11.554-10.607,16.492-16.614,5.074-6.171,8.891-13.182,12.8-20.11a131.016,131.016,0,0,0,10.479-24.047c.547-1.681.55-3.823,1.25-5.411.79-1.793,2.227-1.84,3.727-2.785,2.11-1.329,3.515-5.777-.147-6.449" transform="translate(0 -6.205)" fill-rule="evenodd"/>
          <path id="ink-shape-15" data-name="ink-shape" d="M600.443,31.652c1.8,1.549,9.576,7.007,12.087,5.68,3.1-1.638-1.807-6.573-3.127-7.789-1.68-1.548-7.685-6.23-9.984-5.8-4.595.869-.6,6.511,1.024,7.905" transform="translate(-372.109 -14.777)" fill-rule="evenodd"/>
          <path id="ink-shape-16" data-name="ink-shape" d="M604.282,173.637c1.019-2.005,3.729-2.743,4.982-4.683a9.017,9.017,0,0,0,1.644-7.235c-3.859,1.3-8.249,5.231-10.831,8.306-2.158,2.569-5.224,7.939.408,7.952q-.074-1.147-.148-2.293a3.689,3.689,0,0,0,3.944-2.046" transform="translate(-372.109 -100.752)" fill-rule="evenodd"/>
          <path id="ink-shape-17" data-name="ink-shape" d="M564.4,97.285a25.637,25.637,0,0,0,7.083.67c1.845.041,4.365,1.055,5.86-.088-1.327-.768.35-.811.021-1.56-.276-.624-.8-.42-1.225-.925-1.518-1.8-2.839-1.779-5.247-2.154-1.866-.292-4.61-.964-6.4-.037-1.887.976-2.617,3.367-.09,4.094" transform="translate(-350.615 -57.764)" fill-rule="evenodd"/>
          <path id="ink-shape-18" data-name="ink-shape" d="M656.239,229.1c1.609-1.35,3.363-5.257,3.688-7.273.127-.79-.442-1.395-.374-1.976.13-1.108,2.407-3.249.022-4.158-2.086-.8-4.047,5.386-4.577,6.734-.544,1.379-2.025,4.066-1.57,5.4.377,1.107,1.724,2.182,2.811,1.271" transform="translate(-407.036 -134.336)" fill-rule="evenodd"/>
          <path id="ink-shape-19" data-name="ink-shape" d="M707.728,11.106a5.786,5.786,0,0,0,2.226-4.742c-.12-1.464-1.216-6.51-2.449-6.361-4.1.494-2.254,13.4.223,11.1" transform="translate(-439.277 0)" fill-rule="evenodd"/>
          <path id="ink-shape-20" data-name="ink-shape" d="M458.709,614.2c-.337-1.234-1.562-8.778-3.681-8.264-1.61.391.062,7.029.137,7.9.157,1.827-3.356,1.768-4.988,1.521-2.589-.391-2.381-1.908-2.768-4.262-.146-.889-.706-4.909-2.561-3.437-1.253.995-.357,5.951-.253,7.082.362,3.917.786,10.605,3.115,14.162.928,1.419,1.764,2.119,2.739.3.987-1.841-1.247-7.452-1.638-9.336,1.843.18,7.148-.418,8.258,1.5,1.014,1.747-.608,6.739,2.645,7.144,1.929.241,1.58-1.995,1.394-3.713a68.6,68.6,0,0,0-2.4-10.6" transform="translate(-276.731 -377.483)" fill-rule="evenodd"/>
          <path id="ink-shape-21" data-name="ink-shape" d="M494.548,623.2c-2.136.965.546,15.034,3.671,14.581,3.648-.53-1.636-15.5-3.671-14.581" transform="translate(-307.628 -388.23)" fill-rule="evenodd"/>
          <path id="ink-shape-22" data-name="ink-shape" d="M489.48,607.791c-.263,3.168,3.853,4.349,4.048.906.15-2.656-3.771-4.237-4.048-.906" transform="translate(-304.941 -377.483)" fill-rule="evenodd"/>
          <path id="ink-shape-23" data-name="ink-shape" d="M429.269,384.092c1.88,7,18.986,9.983,16.681.538-1.155-4.73-5.974-.528-9.34-1.078-2.178-.356-8.665-4.4-7.341.541" transform="translate(-267.327 -237.774)" fill-rule="evenodd"/>
          <path id="ink-shape-24" data-name="ink-shape" d="M395.42,343.388c.8-3.748-7.394-7.884-10.368-6.853-4.352,1.51-4.333,11.163-1.013,13.729.437.338,1.776,1.143,2.432.5,1.035-1.015-.1-.738-.338-1.752-.383-1.612-1.637-3.682-.388-5.516,2.361-3.465,8.524,5.26,9.676-.11" transform="translate(-237.774 -209.564)" fill-rule="evenodd"/>
          <path id="ink-shape-25" data-name="ink-shape" d="M346.242,403.223c-2.956-.166-5.379,4.422-1.031,4.037.833-.074,2.622-.283,3.105-1.158.8-1.45-.775-2.806-2.075-2.879" transform="translate(-213.593 -251.208)" fill-rule="evenodd"/>
          <path id="ink-shape-26" data-name="ink-shape" d="M722.037,108.471c-1.012-1.463-3.133-3.819-4.958-2.351-1.618,1.3-1.335,4.514-.715,6.111,1.669,4.3,5.614,8.127,10.078,5.651-1.551-3.106-2.424-6.546-4.405-9.411" transform="translate(-445.994 -65.824)" fill-rule="evenodd"/>
        </g>
      </g>
    </g>
  </g>
</svg>
