<svg xmlns="http://www.w3.org/2000/svg" width="644.765" height="807.72" viewBox="0 0 644.765 807.72">
  <g id="Group_427" data-name="Group 427" transform="translate(-1138.425 -198)">
    <path id="Path_286" data-name="Path 286" d="M321,0C498.283,0,642,143.717,642,321S498.283,643.98,321,643.98,0,498.283,0,321,143.717,0,321,0Z" transform="translate(1141 198)" fill="#f7bbc3"/>
    <g id="Group_5" data-name="Group 5" transform="translate(3 93)">
      <path id="Accent" d="M1405.691,714.421q-1.146,18.726-2.292,37.451c4.915-1.415,36.183-10.612,34.252-1.287-1.386,6.688-10.177,13.923-14.655,18.579q-6.183,6.431-12.72,12.516,12-4.592,24.192-8.673c6.148-2.052,12.341-4.056,18.64-5.593,2.338-.571,8.653-2.9,10.862-1.313,5.8,4.176-25.691,34.936-30.006,39.271a201.6,201.6,0,0,1,18.7-7.623c4.587-1.6,18.758-7.7,22.818-2.487,4.345,5.573-6.419,18.371-9.4,22.429a206.728,206.728,0,0,1-13.776,16.725c20.214,18.15,43.967,34.3,69.247,44.344,18.536,7.362,36.743,9.236,56.3,5.2,20.093-4.151,39.364-12.112,57.682-21.213a329.089,329.089,0,0,0,31.488-17.628q-6.254-7.606-12.151-15.5c-5.614-7.5-12.513-15.7-15.714-24.632-3.132-8.741,8.62-7.035,14.257-6.56a188.956,188.956,0,0,1,24.3,3.891q-8.485-5.9-16.653-12.247c-7.094-5.5-16.555-11.727-21.2-19.645-4.083-6.963,4.878-5.2,9.021-4.292,9.879,2.176,19.491,5.883,28.913,9.5q10.35,3.972,20.549,8.342-6.323-5.494-12.2-11.482c-5.264-5.349-12.361-11.882-14.721-19.249-4.8-15,27.519-3.685,33.038-1.37q-1.53-23.311-3.057-46.622L1573,739.407c-4.625,1.231-10.414,3.91-15.238,4.053-4.37.131-9.647-1.836-13.907-2.649L1466.4,726.017l-60.712-11.6" transform="translate(-99.617 -379.783)" fill="#f9c7aa" stroke="#707070" stroke-width="1" fill-rule="evenodd"/>
      <path id="ink" d="M630.175,702.164a65,65,0,0,1-15.167,6.053c-3.015.806-8,3.29-10.645,1.013-1.272-1.094-1.563-3.577-2.313-5.016a41.617,41.617,0,0,0-4.457-6.26c-3.832-4.879-7.82-9.587-11.993-14.178-1.977-2.176-5.589-7.254-9.073-6.92-4.343.416-4.238,6.425-3.15,9.5,3.465,9.773,13.953,18.293,20.805,25.657-1.742,2.68-11.31,2.36-13.966,1.734-4.056-.957-4.467-3.844-6.318-7.148-4.329-7.718-13.113-12.036-20.334-16.573-2.633-1.656-8.227-6.242-11.658-5.087-3.251,1.094-3.111,5.245-2.075,7.956,1.564,4.1,6.014,6.939,9.3,9.529a86.65,86.65,0,0,1,12.057,11.434c-5.271.43-10.522,1.172-15.78,1.605-6.358.524-11.657-2.963-17.51-4.94-5.438-1.837-10.857-3.39-16.206-5.507-6-2.377-12.294-3.2-18.35-5.29-23.77-8.184-47.06-18.477-69.966-28.852-10.915-4.945-21.6-9.891-32.977-13.76-8.288-2.82-21.312-8.441-23.294-18.31-1.046-5.215,2.765-10.822,3.326-16.032a47.041,47.041,0,0,0-1.727-18.754c-1.646-5.181-4.375-9.978-6.525-14.952-2.5-5.8-.262-5.7,4.6-6.362,5.824-.79,12.621-4.067,18.1-6.2a118.565,118.565,0,0,0,18.334-9.431,67.014,67.014,0,0,0,13.929-11.791c4.231-4.552,6.97-9.945,11.06-14.609,15.1,18.559,29.444,37.4,45.485,55.157a138.045,138.045,0,0,0,25.133,21.684c3.9,2.663,7.76,5.7,12,7.806,5.308,2.634,11.241,4.267,16.7,6.67a510.359,510.359,0,0,1,60.392,31.172c9.441,5.75,17.363,12.343,25.676,19.557,2.588,2.246,23.782,15.333,16.584,19.451M384.811,550.124c-3.38,1.531-6.6,3.519-10.209,4.5,1.022-6.218,6.827-15.6,14.269-14.566,2.844.394,4.989,2.6,3.739,5.644-1.136,2.765-5.392,3.331-7.8,4.42M149.533,381.463c-3.832,2.115-7.4,3.347-9.65-1.193,1.664-.334,9.225-1.341,9.65,1.193m-6.381-12.833c-2.961-.9-.593-1.842.426-2.925.794-.843,3.422-3.8,4.342-4.289,4.062-2.151,7.2,5.853,9.144,8.45-4.6-.408-9.435.12-13.912-1.236m31.663,27.712c-5.613.951-4.99-6.07-4.822-9.626,1.184,1.445,9.2,8.885,4.822,9.626m18.6-12.126c-6.843,1.154-11.365-10.664-10.138-15.834,1.08-4.554,6.383-7.1,10.6-7.769,4.092-.651,9.789.237,11,4.955,1.074,4.169-6.91,17.878-11.472,18.648M355.4,562.631c-4.918,1.511-9.736,1.7-14.679,3.184-5.608,1.683-10.8,1.533-16.417,2.679-2.286.465-8.453,3.795-10.683,3.051-2.209-.737-5.406-7.59-6.675-9.372,9.942-4.131,18.423-9.465,24.976-18.17,5.211-6.922,10.8-17.293,7.521-26.227-3.7-10.073-16.442-12.26-24.939-8.052a49.008,49.008,0,0,0-11.319,7.5c-3.79,3.466-5.28,7.251-7.735,11.526-2.483,4.325-4.225,1.919-6.706-1.753-2.12-3.139-1.843-6.308-4.493-9.405-1.352-1.58-3.444-3.1-4.15-5.145-.448-1.294.495-3.588-.353-4.607-1.193-1.431-2.644.251-3.644-1.027-.725-.928-.488-3.044-1.238-4.205a10.415,10.415,0,0,0-2.173-1.692q-1.456-.719-.532-1.8c-.771-1.428-.028-1.909-1.68-3.646a44.558,44.558,0,0,1-6.756-8.5c-.838-1.463-.755-3.632-1.8-4.9-1.428-1.738-3.808-1.477-5.036-3.628-1.094-1.917-.362-5.27-2.166-7.01q-1.427-.407-2.855-.8a4.112,4.112,0,0,1-1.253-2.533c-1-1.542-1.2-3.354-2.466-4.983-2.421-3.115-5.678-5.994-7.817-9.279-2.248-3.453-1.056-4.034,2.85-5.27a47.355,47.355,0,0,0,10-4.05c15.094-8.781,29.4-32.073,5.446-39.189-8.891-2.641-16.195-9.742-26.052-6.951a28.332,28.332,0,0,0-11.515,6.844c-2.2,2.114-4.243,7.766-6.947,8.85-4.863,1.946-2.807-2.917-4.187-5.152-.659-1.067-3.312-2.3-4.295-3.266a19.039,19.039,0,0,1-3.07-3.982,24.219,24.219,0,0,0-4.541-6.2c-.809-.8-4.845-4.953-1.2-4.41-1.474-4.491.677-5.166,3.65-8.448,3.492-3.853,7.1-9.207,7.117-14.607.04-10.366-12.247-15.01-19.964-8.858-1.57,1.252-10.858,13.339-8.957,5.631,1.024-4.157,10.511-15.009,14.909-12.2-4.929-7.181-16.251,10.255-18.894,13.822-2.25-4.141-2.41-7.381-6.133-10.588-3.031,4.86-1.43-.451-2.1-1.531-1.444-2.331-.651.335-1.434-.493-.975-1.032-2.51-1.845-3.547-3.211-1.777,2.41-1.067-.183-1.611-1.083-1.273-2.105-.78-3.324-2.962-5.155-1.588-1.331-4.715-3.4-6.852-3.587-2.464-.218-3.146.726-5.656.027-3.194-.888-7.213-2.251-5.667,3.088,1.122,3.88,5.686,6.085,6.685,10.05,1.007,3.991-2.941,8.013-4.856,11.284-2.459,4.2-4.47,3.854-8.926,4.8-2.847.605-6.647,1.9-4.206,5.352,1.744,2.467,5.831,1.947,8.133,3.409,3.227,2.049,3.182,7.1,7.3,7.979,4.538.968,7.138-4.083,10.963-5.3,2.72-.867,11.148-.771,13.289,1.271,2.918,2.782.4,8.1,1.131,11.554,1.092,5.126,4.561,5.439,8.948,5.6,5.4.2,7.3,5.386,10.2,9.5,6.8,9.632,12.716,19.9,19.685,29.4,3.085,4.208,7.6,7.951,10.123,12.517,3.119,5.64-1.211,8.892-4.948,12.94-4.883,5.29-8.529,11.309-12.764,17.091-3.764,5.138-8.441,3.859-14.455,3.859,1.34-2.762,2.953-4.484,6.25-4.149-3.448-4.209-6.205.605-8.442,3.272-3.235,3.857-7.454,4.787-11.61,7.323-1.471.9-9.48,6.712-7.046,8.7.277.225,13.534-8.493,15.044-9.293,0,3.219-.7,6.562-.253,9.763.331,2.347,1.981,4.795,1.629,7.235-.667,4.606-6.621,8.234-9.177,11.823-1.924,2.7-1.46,4.832-2.439,7.731-.893,2.645-.424,1.845-2.649,2.662-4.532,1.664-12.159.766-16.262-1.6-2.547-1.468-4.5-3.789-6.57-5.834-1.559-1.542-5.479-4.176-5.912-6.334-.743-3.715,6.635-10.618,8.1-14.45,4.124-10.815-2.949-19.222-13.953-19.836,3.392-2.616,7.6-.645,11.171.353-6.112-8.466-16.55-1.5-21.734,4.254-3.542-8.951-5.251-18.394-7.414-27.729-1.474-6.355-7.085-17.7-4.583-24.245,1.21-3.164,4.625-4.928,6.988-7.122a43.526,43.526,0,0,0,6.945-8.559c4.624-7.269,7.294-16.445.928-23.608l5.8-.954c-3.146-2.956-8.11-1.515-12.193-2.392-2.591-.556-10.046-.2-11.775-1.662-2.08-1.762-.747-9.871-.672-12.271.171-5.608.64-11,1.26-16.575.587-5.266.469-10.956,1.558-16.13.884-4.2,3.708-5.478,6.967-7.952,7.789-5.917,14.136-13.113,11.476-23.308l2.827-.449c-3.048-2.2-6.991-1.4-10.381-2.566,3.113-8.759,10-24.155,21.175-24.984.385,3.915.121,8.572,2.764,11.813,3.008,3.689,8.289,4.061,12.364,2.109a20.2,20.2,0,0,0,8.874-9.241c1.153-2.512.945-6.76,2.969-8.752,2.715-2.671,21.429-1.06,20.856,3.448-.337,2.651-5.342,7.106-6.741,9.455a43.144,43.144,0,0,0-5.549,13.887c-1.427,7.5-.6,17.4,7.016,21.338,8.662,4.484,19.22-1.217,26.323-6.143a124.727,124.727,0,0,0,11.243-8.824,60.156,60.156,0,0,0,5.479-5.283c1.235-1.4,2.222-3.659,3.742-4.707,3.592-2.477,7.113,1.726,10.152,3.849a157.534,157.534,0,0,0,15.193,9.62c10.784,5.84,20.646,13.576,30.181,21.257,9.591,7.727,19.481,15.675,27.25,25.3-4.706,2.894-3.866,3.645-5.96,8.807-1.486,3.663-3.532,6.781-3.768,10.851a13.885,13.885,0,0,0,10.949,14.565,17.252,17.252,0,0,0,11.024-1.392c2.756-1.216,5.5-4.21,8.385-4.954,5.354-1.38,9.639,8.73,12.64,12.292,13.329,15.818,27.419,31.011,39.97,47.475,1.39,1.824,5.519,5.386,5.854,7.8.482,3.467-4.974,6.771-7.236,8.759-1.189,1.043-13.79,12.893-9.559,14.776,1.206.537,4.737-6.733,5.619-7.356,3.305-2.328.805,2.235.608,4.542-.493,5.733,3.447,8.858,8.984,8.131,5.91-.775,11.17-5.439,14.827-9.843,4.583,5.306,11.746,13.326,13.071,20.414.847,4.528-3.072,15.61,4.244,16.534,1.117.141,5.158-2.857,5.912-1.155.629,1.421-3.74,3.849-4.371,4.319-2.692,2.009-4.318,4.161-6.492,6.6-2.552,2.857-6.039,5.263-8.91,8-3.025,2.883-9.008,10.715-13,6.931-2.006-1.9-1.479-4.388-4.692-5.5-2.926-1.016-6.633.272-9.352,1.4-3.061,1.268-13.143,5.9-14.262,9.709-1.543,5.256,6.79-1.063,8.271-1.987-1.689,4.288-2.624,10.494-6.926,13-3.575,2.078-8.716,3.3-12.638,4.5M298.252,530.2c2.861-9.193,19.734-25.584,30.4-20.457-12.428,2.6-22.291,11.107-30.4,20.457m6.31,26.325c-4.159-2.316-3.935-9.047-5.387-12.983-.833-2.259-2.5-3.91-2.01-6.416.574-2.939,4.323-6.206,6.319-8.325,6.282-6.672,17.336-15.788,27.447-14.259,12.869,1.947,4.145,19.219-.237,25.166-3.735,5.071-18.127,21.278-26.132,16.817M274.54,545.286a356.1,356.1,0,0,1-41.515-4.726c-4.867-.906-8.945-.772-6.16-6.366.92-1.846,6.464-13.417,7.716-13.086.742.2.572,8.15.791,9.061.983,4.094,3.742,7.909,8.395,7.649,7.612-.424,12.518-10.263,16.526-15.544,3.211,4.316,5.535,9.11,8.762,13.353,1.543,2.028,6.914,6.747,5.486,9.657m-81.594-54.612c-2.335,5.356-7.031,10.451-10.3,15.3-1.847-3.907-3.145-12.877,1.235-15.767,1.658-1.092,10.538-2.923,9.062.464m48.269,15.95c.642-2.062,1.354-4.108,2.148-6.116,1.362,4.284,2.058,4.411-2.148,6.116m11.913,4.388c1.689,2.862,4.5,5.677,4.063,9.272-.335,2.724-2.8,5.515-4.557,7.413-2.91,3.14-9.358,9.167-13.576,5-3.523-3.483-2.3-13.06-.658-16.978,2.34-5.6,10.7-11.523,14.727-4.7m-8.265-5.866c.968-.385-1.066-6.632.822-7.254,1.646,3.753,3.2,4.769-.822,7.254M218.27,421.068c-.628-2.305-2.066-2.208-1.547-5.058.34-1.869,1.823-3.863,2.949-5.344a28.208,28.208,0,0,1,8.4-7.225c6.754-3.886,16.029-5.5,22.076.584-5.653.892-22.984,6.47-23.094,14.2,6.286-1.211,11.23-7.523,17.535-9.512a25.84,25.84,0,0,1,15.936.206c14.093,4.718,8.233,16.895.279,24.8a48.186,48.186,0,0,1-16.574,10.621,11.44,11.44,0,0,1-7.438.681c-.527-.106-1.144-1.083-1.776-1.293-1.571-.521-1.116,1.242-2.41.45-1.129-.69-3.538-5.145-4.306-6.421-1.222-2.03-1.793-4-3.293-5.857s-2.233-4.339-3.623-6.017c-.667-.808-2.5-.775-2.987-1.563-.737-1.184.2-2.045-.128-3.256m-21.643,90.81c3.2-5.563,8.683-10.286,12.922-15.149.261,7.992-5.472,13.465-12.922,15.149m4.328,2.57c6.615-2.327,10.259-7.893,10.934-14.643.856-8.549,6.226-13.036,9.459-20.717,1.239-2.943,2.684-12.629,7.489-9.857,1.649.951,2.626,4.527,3.485,6.143,2.078,3.908,4.441,7.7,6.645,11.535,1.795,3.125,4.485,6.267,3.693,10.029-.69,3.28-2.913,6.774-4.214,9.867-3.072,7.305-7.108,14.033-10.481,21.177-1.361,2.882-2.971,9.706-7.125,9.671-3.288-.028-2.92-3.622-5.085-4.854-2.733-1.555-5.84,1.4-8.084,2.63a11.773,11.773,0,0,1,12.183-6.012c-6.083-6.055-10.192,2.115-15.412,3.934-4.946,1.725-13.721-6.407-17.885-8.711,1.593-2.7,3.033-6,5.772-7.77,2.6-1.684,5.788-1.425,8.625-2.423m-53.778,55.335c.724-3.487,2.771-5.548,4.069-8.714,1.5,3.839-2.019,6.1-4.069,8.714M252.27,591.176c-.355,11.741-1.315,23.451-1.661,35.2-.16,5.416-1.119,10.582-1.755,15.935-.539,4.527-.264,8.973-3.115,12.841-4.495,6.1-13.233,7.851-20.017,10.11-4.982,1.658-10.021,3.164-14.941,5.006-4.426,1.658-7.994,4.171-12.2,6.142-3.765,1.764-7.83,2.809-11.578,4.688-3.876,1.944-6.941,4.312-10.923,6.043-4.767,2.071-8.7,5.757-12.935,8.682-3.732,2.575-7.681,4.564-10.891,7.8-3.01,3.039-6.822,4.371-10.233,7.07-3.608,2.854-7.384,4.71-11.369,6.947-8.164,4.587-19.179,12.419-29,7.964,2.81-3.588,8.561-7.036,9-11.98.569-6.44-5.038-4.069-8.285-2.013-4.918,3.114-7.638,6.874-11.382,11.026-4.377,4.852-9.905,1.587-15.26.223,3.662-3.3,7.294-6.621,10.949-9.922,3.086-2.786,7.807-5.8,9.686-9.651,1.343-2.755,1.277-6.531-1.963-7.961-3.626-1.6-7.726,1.773-10.411,3.781-7.129,5.332-11.824,12.093-16.5,19.513-2.49,3.946-3.637,3.643-8.217,2.854-4.854-.836-9.708-1.727-14.6-2.313,6.483-6.656,13.729-13.866,18.849-21.654,1.659-2.523,3.822-9.174-1.231-9.786-2.083-.252-6.229,4.005-7.836,5.153-7.021,5.017-13.77,11.344-18.424,18.668-1.536,2.418-2.019,5.107-4.993,5.307-3.889.263-11.115-3.447-14.867-4.594,7.17-9.035,14.29-18.136,22.666-26.1,7.7-7.322,15.374-12.641,24.375-18.256a286.719,286.719,0,0,0,27.491-20.061c8.478-6.808,17.335-13.228,25.139-20.829A273.757,273.757,0,0,0,156.794,575.9a136.022,136.022,0,0,0,7.412-13.35c2.056-4.317,3-9.48,5.779-13.406.959-1.357,2.31-2.365,3.164-3.78.806-1.333.533-2.944,1.762-4.125,2.843-2.728,8.019-1.083,10.676.829,4.273,3.075,7.73,6.808,12.426,9.382a61.7,61.7,0,0,0,15.064,5.743c12.225,2.971,24.344,5.409,36.8,7.215-1.282,4.751,1.866,5.5,2.908,9.774,1.266,5.188-.356,11.712-.515,16.995M134.558,511.948c-2.772-4.117-5.245-8.421-7.97-12.565-1.659-2.523-3.716-5.234-2.3-8.32,2.389-5.2,10.815-6.129,15.387-3.861,10.4,5.157.739,19.9-5.12,24.746M107.043,417.8c-.957-8.046,2.121-13.755,9.4-17.974,5.19-3.007,9.369,1.1,8.66,6.584-1.078,8.351-10.005,17.64-16.818,22-.445-3.532-.823-7.072-1.245-10.607m-1.11-23.022c2.148-1.7,7.9.47,10.389.619l-10.268,8.968c-.224-2.051-2.1-8.014-.12-9.587m11.549-77.706c17.319-2.251-2.618,16.329-7.637,19.241.816-3.953,2.823-18.614,7.637-19.241m46.107-32.529c-2.326,9.522-20.4,19.911-20.594,4.312-.07-5.812,3.2-5.342,7.963-5.9,2.719-.317,13.96-3.857,12.631,1.587m-62.447,14.747c-2.03,5.325-3.657,10.788-5.646,16.12a17.482,17.482,0,0,1-3.56,5.854c-1.374,1.564-3.009,1.959-2.955,4.43a11.651,11.651,0,0,0,4.46-2.347c-.337,4.9-2.07,10.175-2.909,15.06a150.876,150.876,0,0,0-2.152,17.659c-.674,12.917-.679,25.787-.4,38.712.145,6.586.21,13.175.566,19.754.178,3.273.378,6.559.783,9.812.164,1.313,1.118,4.109.529,5.339-2.313,4.831-12.56-8.439-17.01-6.492.64-3.677-.837-2.872-3.3-4.68-1.194-.876-1.971-2.367-3.217-3.148a7.814,7.814,0,0,0-1.244-1.085q-.773-1.053-1.629.224c-5.013-3-6.309-9.381-9-13.676-1.384-2.208-2.721-2.553-2.958-5.606-.2-2.661.2-5.372.088-8.044a39.889,39.889,0,0,0-1.145-9.256c-.982-3.389-2.332-3.112-4.963-4.918a2.758,2.758,0,0,0,1.6-1.785c-.84.15-3.393,1.19-4.027.442-1.247-1.469,1.7-1.665,2.47-2.251-3.3-1.465-2.59-2.669-1.4-5.353.337-.759.659-1.895.946-2.535.626-1.4.986-.513,1.193-2.251.2-1.657-1.273-4.916-1.706-6.682a18.166,18.166,0,0,1-.476-8.608c.529-2.5,1.95-4.761,2.049-7.331.028-.721-1.072-.961-1.086-1.657-.021-1.018.929-1.466,1.176-2.406.631-2.408.346-4.954,1.426-7.239a41.369,41.369,0,0,1,4.323-6.5c.963-1.241,3.324-2.639,3.583-4.277.171-1.086-1.519-.961-1.444-1.779.1-1.107,1.031-1.466,1.286-2.288.7-2.258.879-4.428,2.7-6.159,2.287-2.178,3.281-1.266,3.376-4.858.046-1.753-1.356-2.023-.605-4.043.408-1.1,1.613-1.745,2.383-2.522a32.069,32.069,0,0,0,5.457-7.2c1.441-2.518,3.738-3.983,5.213-6.157,1.922-2.834-.951-4.239,2.949-5.039-.554-1.76-1.144-3.182.315-4.671.92-.939,3.254-.365,4.069-1.451.933-1.248-.446-4.2.96-5.014,1.144-.657,2.856,1.37,4.653.367,1.37-.765,3.438-4.99,3-6.542,3.541,1.991,2.658.62,4.353-1.935.38-.573,1.532-.7,1.859-1.278.654-1.155.5-2.333,1.447-3.273,1.571-1.564,4.141-1.162,5.869-2.279,1.428-.923,1.353-1.917,2.492-2.788.974-.744,2.573-.887,3.52-1.657,1.854-1.51,1.872-3.1,4.192-4.4a49.727,49.727,0,0,0,7.68-4.889c1.629-1.33,3.176-3.688,5.082-4.565,2.636-1.214,4.689-1.3,7.268-3.031,1.863-1.252,3.626-3.318,5.455-4.373,1.38-.794,2.348-.623,4.088-1.116,3.131-.888,3.893-3.836,6.447-5.037,1.753-.825,4.306-.07,6.231-.5,5.992-1.344,11.91-4.245,17.922-5.851,7.339-1.96,14.729-3.677,22.124-5.409-6.8,9.207-15.451,17.515-24.23,24.828-2.881,2.4-18.671,13.344-10.16,18.018,3.416,1.875,10.838-4.183,13.6-5.664a187.872,187.872,0,0,1,17.125-7.782c9.407-3.9,21.658-10.838,32.112-10.28-6.364,7.8-14.308,14.07-21.586,20.964-6.689,6.336-16.767,12.279-13.613,22.65-9.4-2.39-17.834-5.214-27.6-4.588-4.376.28-8.753-.246-13.109.367-4.737.669-9.2,2.253-13.748,3.644-3.6,1.1-7.579,1.186-10.892,3.014a44.62,44.62,0,0,0-5.019,3.244c-1.917,1.463-2.354,2.431-3.859,4.358-5.372,6.876-10.57,13.323-13.762,21.7M71.757,429.436c-.294-1.19-.56-2.276-.9-3.635,2.99,1.841,2.99,1.841.9,3.635m-22.6-37.905a2.158,2.158,0,0,1-2.367.233c-.56-.547.912-2.675,1.148-3.128.584.448,1.926,1.914,1.219,2.895m-6.4-13.8q.594-2.18,1.189-4.36c.486,1.347,2.678,2.836,2.726,4.12.03.851-3.482.428-3.915.24m1.271,1.994c3.431,2.258,3.79,4.922,3.892,8.819-4.106-1.359-3.516-5.333-3.892-8.819m59.666-153.794c-.346.937-1.816,3.857-2.893,1.815-.344-.654,2.177-1.546,2.893-1.815m-.985-3.183c.848-.764,2.557.187,3.516-.431.672-.433.45-.872.766-1.128.063-.052.977-1.9,1.352-2.321.661-.738,2.1-1.2,2.908-1.864,2.247-1.862,3.515-4.31,4.929-6.8,1.687-2.974,2.224-3.318,4.945-4.679a16.981,16.981,0,0,0,4.856-3.682c1.759-1.837,1.629-3.152,3.073-5.161.713-.991,1.74-1.114,2.571-1.913,1-.956,1.5-2.294,2.423-3.259.4-.417,1.676-.416,1.916-.774.307-.452.547-2.261.834-2.594q.825,1.114,1.65,2.228c2.168-3.812,3.75-6.961,7.376-9.5,3.808-2.664,7.095-6.561,11.031-8.946.884-.536,2.687-.762,3.362-1.551,1.143-1.337.153-2.526.986-3.661.946-1.287,2.778-.245,3.98-.8,1.521-.7,1.957-2.753,3.916-2.527-6.441,7.618-6.36,19.47-6.7,28.985-.148,4.1,2.435,6.166-1.379,9.175-3.243,2.559-7.817,1.8-11.651,3.484-4.815,2.115-9.966,3.24-14.879,5.084-5.082,1.906-9.168,5.244-14.059,7.452-4.313,1.946-7.258,4.714-11.2,7.117-1.466.893-3.738,2.19-5.487,1.123-1.1-.669-2.459-1.769-1.03-3.058m72.748-63.873c.28-1.082,5.778-3.926,7.131-4.855,2.03-1.4,5.035-4.8,7.3-3.448.785-3.143,3.848-6.641,6.555-7.307a37.786,37.786,0,0,0,11.108-5.561c.863-.656,1.147-1.616,2.163-2.231,1.768-1.072,3.522-.487,5.225-1.949.261-.223,2.617-4.112,2.71-4.075.12.417.231.839.326,1.263a16.325,16.325,0,0,0,4.495-3.044c.253-.287-1.385-1.033-.868-1.6.633-.7,2.047.082,2.687-.578-1.99,9.878-.508,22.592,9.516,27.6-11.921,1.288-23.565-2.3-35.634-.094a62.7,62.7,0,0,0-16.9,5.44c-3.22,1.628-7.337,7.458-10.542,4.627,1.272-1.7,3.212-2.748,4.732-4.186M233.3,130.462a16.779,16.779,0,0,1,18.03-5.656c7.973,2.286,4.611,7.855,3.406,14.038-2.3-3.372-7.285-6.717-11.529-6.818-6.016-.143-3.743,4.868-.129,6.664,3.285,1.631,8.918,2.086,11.269,5.053,2.288,2.887,1.411,7.608,1.78,11.012l-5.338-.793c1.493-7.945-5.078-8.33-11.206-10.57-6.193-2.262-11.356-6.727-6.283-12.93M253.27,110.9v7.374l-7.438-4.238,7.438-3.136M273.2,169.815a241.376,241.376,0,0,1,24.456,7.709c2.89,1.124,6.056,1.521,8.887,2.79,2.7,1.207,3.1,1.081,2.142,3.444-2.687,6.619-9.051,5.476-14.628,4.463-8.729-1.585-17.276-3.782-25.9-5.85-8.425-2.019-17.028-3.344-25.326-5.875a255.069,255.069,0,0,0-25.572-6.771c-2.556-.5-22.777-2.355-22.623-4.468,12.735-1.654,25.846-.025,38.638.147,13.294.179,27.029.916,39.923,4.41m-11.237-25.6c.159-4.551.222-9.116.787-13.64,3.789,4.675,7.208,6.074,11.984,1.692,4.572-4.194,5.592-6.381,11.389-2.438,5.026,3.42,9.78,3.263,15.117.269,3.256-1.826,8.487-9.287,11.909-7.752,1.631.732,2.826,3.683,4.472,4.769a24.83,24.83,0,0,0,7.65,2.832c5.687,1.245,9.075-2.411,12.645-6.322,5.176-5.671,5.024-2.377,9.824,1.555,5.353,4.387,9.829,2.243,14.675-1.5,2.953,8.648,4.057,18.093,4.892,27.16.281,3.061,1.333,7.408-1.418,9.573-1.939,1.527-6.053,1.586-8.389,2.43a84.364,84.364,0,0,0-23.341,12.773c-2.719,2.134-5.09,4.748-8.805,4.262-3.541-.464-6.982-3.427-9.831-5.383-3.09-2.122-6.218-4.532-9.83-5.714-2.115-.693-5.5-.442-7.355-1.712-3.441-2.361.608-8.556-.248-12.714-.649-3.157-2.466-9.74-6.816-7.889-6.473,2.753-2.706,13.5.854,16.856a156.181,156.181,0,0,1-22.366-5.579c-5.425-1.853-7.994-7.975-7.8-13.527m122.123,22.166c14.948-4.2,28.935-7.025,44.491-7.789,6.886-.339,13.552-.125,20.361-.063,3.92.036,6.907-3.124,3.775-6.759-4.334-5.033-17.554-3.118-23.412-3.344-15.7-.606-30.1,1.178-44.967,6.352,1.572-2.9,5.35-3.272,7.939-4.769a16.253,16.253,0,0,0,6.692-8.226c3.53-8.739-.024-16.975-3.717-24.958,7.254,1.951,14.759,6.223,22.051,7.307,1.529.227,2.51.081,3.863.638.83.341,1.092,1.521,2.121,1.779.5.125,1.691-1,2.254-.839,2.221.628.464.794,1.869,1.7,1.114.721,1.024,1.649,3.069,1.308.906-.15,1.889-1.551,2.367-1.59.608-.049.468-.79,1.4-.574,1.694.394,1.544,2.575,2.108,3.649.6,1.143-.253,2.663,1.574,3.289,1.366.468,1.709-.974,2.871-.871a6.958,6.958,0,0,1,2.792,1.7,29.614,29.614,0,0,0,7.455,5.493c-.265-.267,1.272-.909.9-1.06a13.287,13.287,0,0,1,1.343.284c1.559.354,2.382,2.746,3.169,3.618a15.453,15.453,0,0,0,5.728,3.992c3.51,1.221,3.4-.238,4.684,3.931,2.5-3.922,3.452,2.646,6.547,3.37,1.6.375,1.416-.312,2.872.527,1,.575,1.667,2.336,2.42,3.185q.486-1.838.969-3.676c2.229,4.221,7.04,10.915,12.316,9.7,0,1.152-.475,2.529.417,3.512.623.687,1.632-.093,2.12.306.425.349,1.443,1.737,1.769,1.965.642.45,1.808.779,2.366,1.227.491.395.734,2.282,1.28,2.963,1.024,1.281,2.8,1.536,3.633,3.073q.287-2.273.572-4.547c1.662,1.284,1.8,2.28,2.213,4.158.581,2.674-.19,2.048,1.655,3.176,1.813,1.11,2.759.986,4.421,2.912,1.629,1.888,1.644,3.051,4,1.085.437,1.455.578,3.337,1.745,4.452.882.843,4.533.879,4.882,2.869-6.86-5.786-2.346,3,0,.015.5,3.2,2.837,4.23,5.51,6.507,2.493,2.122,2.9,1.968,3.753,5.533a6.138,6.138,0,0,1,1.345.867c-2.429.346,1.337,3.06,1.974,3.556.464.362,1.07-.5,1.841.083.883.671,1.6,2.195,2.32,3.114a65.916,65.916,0,0,0,5.436,6.659c2.211,2.187,3.286,4.951,5.409,7.507,2.355,2.839,3.629,6.1,5.6,9.184,1.872,2.931,4.359,5.283,6.527,7.966,3.456,4.271,4.631,13.676,11.073,13.924-.378.39.147,3.305.209,3.843.3,2.647.1,5.194,1.669,7.592.359-2.735,1.79-1.681,3.034-.244,2.068,2.391.252,1.789.361,4.211.133,2.936.467.665,1.586,3.229a25.035,25.035,0,0,1,1.826,5.54c-3.639.288-5.306-2.684-6.651-5.564-.562-1.2-.757-3.185-1.752-4.127-1.059-1-2.515-1.081-3.6-2.2-2.089-2.149-2.995-5.5-5.457-7.591-2.782-2.363-3.4-3.479-5.7-6.3-2.544-3.124-6.057-5.318-8.725-8.34s-2.456-1.375-5.814-2.471c-3.57-1.167-9.344-12.389-13.842-8.067.178-2.827-4.058-5.487-6.2-6.512-.925-.442-2-.042-2.929-.705-1-.72-1.076-2.108-2.089-2.972a5.988,5.988,0,0,1-1.868.218c-.642-.325-.647-1.475-1.213-1.853-1.568-1.047-3.437-2.145-5.1-3.038-4.044-2.168-7.618-4.838-11.52-7.448-3.342-2.237-7.388-6.276-11.252-7.455-3.375-1.029-5.5-.505-8.26-2.567-1.506-1.123-1.063-1.5-3.482-2.2-2.3-.665-3.6-.323-4.816-2.764-2.134-4.272-.787-12.61-1.2-17.4a88.263,88.263,0,0,0-2.285-15.238c-1.569-5.842-3.64-8.9-9.91-7.521-12.422,2.729-24.693,5.326-37.171,7.722-24.865,4.775-49.3,12.567-73.621,19.485-1.852.528-12.186,2.893-10.075-2.449.973-2.464,7.513-3.382,9.7-4.156,12.019-4.253,24.094-8.585,36.379-12.032m-4.178-10.872-5.447,2.077v-5.048l5.447,2.971m-7.547-26.692c1.578,1.289,4.786-1.814,6.128-2.442a16.276,16.276,0,0,1,7.771-1.774,8.359,8.359,0,0,1,7.311,9.768c-1.464,7.972-12.827,11.742-19.092,14.859-.2-2.825-1.116-6.222.866-8.665,1.721-2.122,5.057-1.968,6.645-4.225,4-5.673-6.833-6.187-9.253-1.676l-2.864-8.647c2.3-.381,1.292,1.827,2.489,2.8m11.176-15.6-6.763,4.371c-1.118-5.044,2.691-5.707,6.763-4.371M588.962,288.754c-2.953,1.409-3.691-1.955-5.814-2.1,2.508-1.541,2.508-1.541,5.814,2.1M600.969,362.2c.368,4.834.08,9.725.724,14.54.49,3.663,1.975,7.072,2.133,10.777a31.027,31.027,0,0,1-7.929,22.324,50.406,50.406,0,0,1-19.8,12.835c-3.185,1.064-6.509,3.426-9.6,4.3-3.422.966-6.673-1.136-9.5,2.635-1.883-16.176-.507-33.079-.656-49.357-.148-16.313.027-32.632-2.734-48.77-2.458-14.373-7.305-30.538-16.238-42.3a68.2,68.2,0,0,0-12.809-12.346,60.009,60.009,0,0,0-7.613-5.43c-4.191-2.309-7.761-1.989-12.318-2.647-6.524-.942-12.587-1.737-19.134.1-6.1,1.71-12.807,3.658-18.267,6.628-5.438,2.96-11.754,4.18-17.4,6.83-3.84,1.8-11.818,7.828-16.079,6.744-4.125-1.051-10.23-8.049-12.864-11.183-3.366-4.006-6.15-8.649-9.136-12.96-1.048-1.513-3.186-3.852-3.458-5.8-.474-3.373.878-2.27,4.1-1.893a120.614,120.614,0,0,1,24.025,5.117c3.953,1.3,11.682,6.547,15.635,3.4,6.035-4.8-3.135-13.057-6.494-15.831-5.723-4.725-12.377-8.234-18.477-12.433-6.481-4.462-15.051-9.212-19.222-16.083,12.18,3.595,24.348,7.711,36.172,12.345a130.479,130.479,0,0,1,15.838,7.179c2.854,1.583,8.621,5.865,12.057,3.814,7.472-4.459-9.688-17.407-12.164-20.053-3.847-4.112-7.617-8.185-11.845-11.915-2.853-2.517-7.334-4.286-8.66-8,4.734,1.713,8.562,5.069,13,7.35a21.036,21.036,0,0,0,7,2.248c2.733.392,3.059.827,5.212,1.913a34.45,34.45,0,0,0,5.282,2.555c1.342.411,3.685.482,4.858,1.242q.9,1.283,1.858,2.521,1.073.316,2.113.728c1.04.927,1.656,2.205,2.669,3.161,7.343,6.942,17.165,11.91,25.4,17.725,7.789,5.5,16.054,10.479,23.535,16.483,8.608,6.911,17.543,14.339,24.865,22.626,4.138,4.684,7.54,9.994,11.016,15.172,2.517,3.75,6.177,6.861,8.352,10.727,4.743,8.43,8.68,17.543,13.786,25.837,5.2,8.451,11.981,16.849,12.763,27.136m-69.976,48.913c1.418-5.85,9.422-12.682,14.536-15.261-2.577,6.375-9.445,10.722-14.536,15.261m13.2,20.408c-4.362,9.048-23.544,10.083-20.941-3.307,1.275-6.56,6.688-10.586,11.333-14.879,2.148-1.983,7.407-9.08,10.733-7.937-.156,5.1-.457,10.227-.445,15.33.007,3.407.865,7.591-.679,10.793m-5.544-104.281c1.77,3.974,3.533,7.283.25,10.838-1.481,1.6-6.31,5.115-8.494,4.335-7.012-2.5,6.356-13.385,8.244-15.172m-42.408-35.356c1.689-.092,3.329.159,5,.056s1.838-.4,3.378-.188l.488.709q.315,2.378,2.5.518a16.474,16.474,0,0,1,5.273,1.843c-5.22,3.763-11.575,8.139-17.976,9.4-10.116,2-7.322-11.863,1.342-12.34M341.145,376.515c-1.049,2.109-4.066-3.161-4.813-4.144,1.392,0,5.873,2.015,4.813,4.144m81.287-55.531c7.861-4.585,17.2-8.611,25.638-12.025,1.484,7.15-5.755,16.38-10.214,21.271-3.605,3.957-7.953,8.06-12.841,10.337-5.285,2.462-11.062,1.38-10.806-5.527a28.717,28.717,0,0,1,1.7-8.894c1.326-2.975,3.831-3.592,6.527-5.163M316.181,190.931c1.17-.069,13.878-1.711,13.811-.131-.2,4.751-12.535,1.02-13.811.131m-89.867,91.737c6.712-8.279,17.549-17.216,17.707-28.787.234-17.027-18.669-8.531-28.172-7.824,5.026-4.936,30.277-25.642,15.341-33-4.294-2.114-10.4-.048-14.7,1.059-7.644,1.965-14.751,5.369-22.259,7.737,5.365-5.71,14.636-12.2,14.332-20.846-.371-10.526-9.014-7.981-16.488-6.436-2.872.594-15.7,5.7-18.112,2.232-.883-1.269.545-2.881.848-4.011a14.645,14.645,0,0,0,.387-4.739c.037-4.12,2.775-9.41.542-13.242a18.6,18.6,0,0,0-1.311,2.718c-.737-2.23-.242-4.595-.978-6.825,18.659,4.77,37.64,7.381,56.415,11.453,9.5,2.061,18.451,5.611,28.086,7.208,9.717,1.61,19.266,4.075,29,5.611,8.883,1.4,17.392,3.733,26.189,5.522,8.575,1.744,17.369-2.078,25.738-4.013,18.745-4.334,37.483-8.773,56.253-12.979,21.66-4.855,44.191-9,64.924-17.1q.6,16.186,2.584,32.277c-9.156-4.327-22.744-9.969-32-2.226-3.7,3.1-4.846,8.446-3.382,12.994,1.593,4.951,6.475,7.251,9.7,10.978-9.8-2.512-35.09-20.224-39.592-2.321-3.179,12.644,12.328,20.812,19.911,27.929-7.53-1.474-17.614-7.492-22.036,2.18-3.821,8.361.782,17.46,5.5,24.356,2.555,3.736,5.428,7.253,8.144,10.874,1.436,1.915,2.838,3.857,4.348,5.715s4.369,3.816,5.429,5.822c2.136,4.046-2.174,4.293-5.525,5.755-4.184,1.825-7.777,4.889-11.6,7.332-8.763,5.593-16.421,10.787-26.776,12.575-10.661,1.839-20.926,3.761-31.446,6.327-10.488,2.558-19.049,5.017-29.769,1.71-4.887-1.508-8.868-2.848-14.052-2.564-5.445.3-8.629.016-13.105-3.356-19.265-14.5-40.176-26.406-60.059-40.1m-34.731-14.562c7.446-3.734,14.941-7.487,22.632-10.7,6.366-2.657,16.033-5.752,23-4.588-1.965,5.045-5.55,9.184-9.395,12.9-3.4,3.285-7.649,8.243-11.764,10.536-3.737,2.081-8.084-1.215-11.77-2.6-4.05-1.517-9.622-2.224-12.705-5.554m1.871,18.84c3.71-1.541,11.684,3.631,15.059,4.975,6.631,2.644,13.3,5.4,19.144,9.575-7.136,8.244-15.219,15.782-24.822,21.078-6.319,3.484-16.968,7.48-22.928,1.154-7.488-7.95,1.514-24.148,6.815-30.96q.263,1.748.529,3.5c1.691-2.707,2.982-7.979,6.2-9.318M329.665,357.51c-4.629.974-6.2.094-9.257-3.454a84.867,84.867,0,0,0-6.425-7.046c-2.377-2.2-8.247-7.508-.768-4.452,6.817,2.785,12.657,4.177,20.158,3.086,8.576-1.247,16.571-4.871,25.027-6.706-4.635,4.055-9.237,8.15-13.881,12.193-4.906,4.272-8.619,5.066-14.853,6.379m1.058,32.611c-10.143,7.631-30.565,6.805-23.692-9.985a30.593,30.593,0,0,1,4.2-7.123A12.9,12.9,0,0,1,313.6,370.3c2.243-1.36,1.622-1.524,3.779.744,1.861,1.956,16.4,17.942,13.348,19.08m-3.007-29.175c.929-.3,4.845-2.571,5.736-1.315.9,1.271-6.773,5.669-5.736,1.315m73.847,116.383c-2.281,5.455-20.534,13.353-17.134,2.356,1.506-4.871,2.926-8.559,8.608-8.93,3.279-.213,10.534,1.77,8.525,6.574M434.307,403.4c3-4.374,12.928-10.289,17.165-3.766,2.041,3.142-2.913,4.752-5.908,3.944-1.608-.435-2.924-1.4-4.673-1.468-2.248-.092-4.445,1.671-6.584,1.289m7.966,4.342c-2.043,2.068-14.367,12.434-16.363,10.835,4.025-5.751,8.646-12.174,16.363-10.835m-20.127,104.9c-4.279.242-2.142-6.2-1.728-8.782,1.036,1.8,6.483,8.513,1.728,8.782m10.873-11.554c-1.384-2.463-5.114-6.128-4.271-9.3.645-2.422,6.467-5.679,8.905-4.29,3.238,1.847-1.456,13.995-4.634,13.586m101.541-25.822c-1.831,6.3-3.728,4.678-9.468,5.9-5.759,1.225-9.74,6.114-14.809,8.735,1.761-3.722,2.853-8.257,5.8-11.276.681-.7,4.86-2.075,2.48-3.69-2.082-1.412-5.074,3.17-5.967,4.419-4.391,6.146-7.462,13.651-10,20.724a59.8,59.8,0,0,0-2.836,10.659c-.526,3.25.042,6.651-.495,9.817-.864,5.1-7.791,5.125-11.957,6.44a82.9,82.9,0,0,1-11.441,3.121c-3.394.556-6.916-.457-10.205.212-3.561.723-5.162,2.836-9.21,2.358-3.3-.388-6.389-1.906-9.734-2.058-3.131-.141-6.254.942-9.365.061-3.141-.89-2.989-1.234-2.275-4.319q.67,1.249,1.342,2.5c1.252-.981,2.118-3.973,2.884-5.378,1.19-2.176,2.159-2.928,1.718-5.639-.65-4-4.26-6.85-5.078-10.658-.855-3.973,2.084-7.221,3.82-10.537,2.374-4.54,2.342-7.906.353-12.6l4.5,1.189c-2.057-4.463-9.031-2.654-12.529-1.332-1.758.664-4.543,3.275-6.435,3.209-2.6-.091-3.954-3.507-5.071-5.388a173.044,173.044,0,0,0-10.745-15.869c-1.051-1.389-2.429-2.283-2.066-3.867.309-1.343,3.323-3.249,4.3-4.077,3.667-3.1,8.334-4.817,11.779-8.08,5.206-4.93,11.208-8.463,16.53-13.3,5.545-5.035,11.258-9.659,17.036-14.416,5.852-4.819,10.922-10.5,16.731-15.365,1.506,2.727,4.422,12.491,7.757,13.248,3.889.88,3.773-3.719,3.579-6.487-.276-3.944-2.466-7.776-2.71-11.541-.262-4.027,3.613-5.827,6.538-8.156,4.517-3.6,14.516-11.793,9.141-18.538-4.63-5.81-19.685,5.329-23.835,8.679-3.527,2.846-6.251,5.421-10.222,7.666-2.792,1.577-7.476,7.646-10.786,7.086-3.937-.666-5.475-4.964-10.291-4.822-4.706.137-8.7,3.526-11.622,6.928-6.6,7.69-8.865,17.979-14.877,26-2.964,3.952-6.809,7.215-10.024,10.955-3.531,4.1-4.281,8.833-7.763,12.849-9.964-13.269-20.819-25.832-31.325-38.666-5.247-6.408-10.385-12.893-15.52-19.391-1.924-2.436-4.094-4.721-5.857-7.279-2.413-3.5-1.979-6.317-2.927-10.224-.419-1.731-2.386-3.806-1.86-5.461.708-2.224,5.682-3.97,7.476-4.879,7.324-3.717,13.968-8.363,20.8-12.9,12.648-8.408,25.442-16.292,38.893-23.473-.232,3.094-2.246,6.3-.893,9.4.63-1.785,1.627-9.741,4.012-10.083-.457.065-.081,10.2.288,11.649,1.1,4.319,4.295,7.272,8.865,7.243,8.7-.056,16.5-9.52,21.335-15.79,3.27-4.245,6.412-9.182,7.564-14.494,1.036-4.77-.1-8.088,4.857-10.51a153.38,153.38,0,0,1,31.323-11.653c-.488,4.689-1.848,10.462,2.416,13.835,4.706,3.723,10.864.4,15.3-2.058,4.389-2.439,11.157-9.14,16.312-7.194,5.07,1.915,8.6,8.271,11.438,12.493,2.5,3.721,5.224,6.4,2.327,10.551-3.247,4.648-5.36,9.184-7.961,14.232-1,1.941-1.953,3.206-1.247,5.194a28.429,28.429,0,0,0,3.543,5.038c4.516,3.514,10.615-3.169,13.839-5.706,1.137,10.924,1.391,21.8,1.85,32.758.336,8.026,3.445,15.927-3.144,21.795s-12.084,11.886-16.1,19.828c-2.144,4.243-4.067,8.6-6.387,12.751-1.55,2.775-4.819,6.846-2.818,10.113,2.111-2,2.739-5.047,4.5-7.305,1.054,4.686,2.114,9.885,7.072,11.871,5.7,2.285,11.375-1.668,16.427-3.869-1.812,12.527-5.345,24.7-8.867,36.83m-5.832,14.4c-3.915,8.365-7.451,18.451-14.681,24.611-1.588,1.352-8.333,6.632-10.9,5.748-2.178-.752-.979-5.153-.6-7.038,1.926-9.573,5.258-15.6,13.023-21.7,3.214-2.528,7.34-5.759,11.484-6.382,4.461-.672,3.177,1.551,1.673,4.766M639.164,688.219c-10.151-13.8-24.5-24.523-38.057-34.889-6.141-4.7-12.909-8.217-19.114-12.914-7.015-5.31-14.14-10.433-22-14.434-14.9-7.588-31.15-12.878-45.209-21.852-6.856-4.377-14.357-8.606-20.8-13.519a93.951,93.951,0,0,1-7.891-7.391c-2.377-2.3-7.482-5.632-8.427-8.994,3.956-.647,6.206-4.484,9.737-4.876,1.163-.129,8.451,1.8,7.455-1.736a16.129,16.129,0,0,0,5.167-.684c.918-.24,2.005.135,2.933-.193,1.419-.5,2.385-1.948,3.819-2.5,1.019-.394,4.8.046,5.376-.444,1.567-1.338-.1-1.22-1.032-2.89,3.044-.078,5.135,1.46,8.187-.174.929-.5,1.715-1.646,2.616-2.24,1.6-1.055,2.174.581,3.268-1.61,1.023,3.022,1,2.186,3.463,1.3a24.2,24.2,0,0,1,7.031-1.746c6.685-.529,13.4.282,20.051-.192,2.435-.174,4.515-.727,6.934-.408,2.13.28,1.488,1.761,3.259-.234.412-.464-.919-1.733-.281-2.4.281-.295,1.2-.088,1.545-.238,3.112-1.358,3.125.539,3.677,3.011a15.37,15.37,0,0,0,5.272-1.884c-.8-.714-2.141-1.5-1.367-2.808,2.631,1,4.352.537,3.036,3.425,2.648.874,3.143-.266,5.522-.515,1.407-.147,3.37.726,4.542-.4,1.28-1.226-.739-2.558,1.612-3.613a2.324,2.324,0,0,1,1.073,1.109q1.9.576-.685,1.5c4.623,2.4,3.537-.282,5.478-3.115.449-.653,2.457-2.681,3.371-1.7,1.388,1.485-1.445,1.958-.838,3.435,1.053,2.561,4.725-.721,5.852-2.018.854-.98,1.2-2.859,2.121-3.591,1.276-1.017,3.114.555,4.713.273,7.3-1.28,14.2-11.1,8.7-17.669-1.479-1.766-2.73-1.415-4.493-2.53-1.742-1.1-2.719-3.007-4.117-4.581a29.556,29.556,0,0,0-11.562-8,196.4,196.4,0,0,0-32.371-9.045c-5.033-.992-10.392-2.51-15.546-2.5-3.036.006-7.609,2.366-10.447,1.235-5.518-2.2,2.583-13.451,3.92-17.086a192.731,192.731,0,0,0,8.833-33.273c.38-2.194.234-5.036,1.024-7.126.908-2.4,1.1-2.063,3.044-2.259,3.509-.354,7.346,1.485,11,.849,4.049-.7,8.426-.377,12.514-1.629,1.879-.575,3.621-1.2,4.858-2.786.39-.5-.044-.93.2-1.278.076-.11,1.474-1.617,1.519-1.7a11.074,11.074,0,0,1,.2-2.32c1.417,1.176.719,3.642,3.106,3.7.426-2.629.431-3.159,2.157-4.639-.132.114,1.3-1.1,1.117-.973a3.686,3.686,0,0,1,.515-1.311,6.2,6.2,0,0,1,2.557-.62c1.866-1.918,1.091-2.941,1.091-5.523l4.517,2.346c.364-7.649,5.023-11.838,8.119-18.037,1.319-2.642,2.663-4.706,2.978-7.892.182-1.838-.292-3.46.469-5.192.69-1.572,2.236-2.419,2.881-4.131,1.271-3.37.323-7.671.393-11.17.1-4.852.581-9.689.74-14.539a159.158,159.158,0,0,0-2.071-28.717c-.682-4.5-1.822-8.869-2.717-13.323-.737-3.661-2.5-7.095-3.128-10.5-.262-1.415.143-2.686-.285-4.25-.562-2.058-1.5-4.081-2.2-6.1-1.633-4.72-3.248-9.432-5.084-14.079-3.559-9-7.726-17.74-11.684-26.572-3.808-8.493-6.961-17.249-11.893-25.18-4.858-7.811-10.088-15.491-15.442-22.968-5.577-7.787-12.628-14.477-18.036-22.336C535.8,177.6,521.632,165.439,506.813,155.4c-30.578-20.719-63.621-41.405-100.287-48.509a101.337,101.337,0,0,0-16.755-1.951c-3.494-.087-9.284,1.6-12.593.42-3.705-1.324-3.367-5.485-4.294-8.748-1.193-4.2-3.884-6.944-6.94-9.909-3.216-3.122-6.136-6.768-10.147-8.891-4.065-2.15-8.86-2.954-13.364-3.6-4.021-.582-10.03-.038-13.7-1.79-3.345-1.6-1.694-3.258,1.439-1.891a6.04,6.04,0,0,1,1.3-3.341c.444-.537,2.545-1.289,2.6-1.79.06-.586-1.7-2.256-1.954-3.012a8.473,8.473,0,0,1,.409-5.41c3.159,2.807,4.074,4.05,7.6,1.367a10.26,10.26,0,0,1,3.672-2.2c.468-.155,1.517.324,1.925.055,1.559-1.026.125-.784.866-2-.187.306,1.122-2.917,1.06-2.243.159-1.717.667-1.189-.37-3.3-2.031-4.127-7.2-4.3-4.567-9,1.037-1.853,1.95-1.668,2.242-4.355a42.786,42.786,0,0,0-.045-4.57c-.012-3.005.553-5.109-2.264-6.639-2.707-1.472-5.2.143-6.3-3.507-1.152-3.83.008-8.739-4.142-11.362C329.165,7.3,324.786,8.934,321.435,8s-6.446-4.373-9.854-1.736c-2.421,1.874-3.706,6.483-8.269,3.991-2.059-1.124-3.193-4.9-4.491-7.014-2.069-3.373-3.728-4.591-6.911-1.306-1.962,2.026-6.1,6.958-6.354,9.763-.278,3.1,2.425,4.39-.968,6.222-3.375,1.823-5.269.486-8.008,4.185-2.717,3.67-.614,5.7-3.762,9.209-3.935,4.389-6.029,6.283-5.974,12.2.038,4.056-3.547,7.559-1.455,11.407,2.344,4.312,9.183,6.106,13.33,7.861-1.384,2.557-3.284,4.2-1.668,6.829,1.464,2.384,5.6,2.879,8.168,2.446,1.725-.29,1.787-.029,3.145-1.242.89-.794-.331-1.785,1.5-2.225,1.95-.47,5.064,3.35,6.33,4.306-2.829,3.671-10.6,4.357-14.712,6.218-2.505,1.135-4.809,2.814-7.36,3.829-2.314.92-5.131.707-7.23,2.131-3.624,2.459-5.132,8.553-7.353,12.135-2.515,4.055-4.953,5.938-9.777,6.78-6.019,1.05-10.865,1.472-16.478,4.092-6.854,3.2-13.61,6.578-20.342,10.028a307.174,307.174,0,0,0-31.027,18c-10.548,7.041-20.809,14.389-30.986,21.746-10.067,7.276-18.519,16.227-27.264,25.026-7.069,7.113-13.272,14.79-20.314,21.9-8.313,8.4-14.427,18.993-22.135,27.9-4.217,4.873-8.252,9.664-10.9,15.4-2.145,4.653-5.874,9.219-8.363,14.1-3.181,6.242-6.192,12.383-9.763,18.418-1.465,2.476-3.207,4.6-4.753,6.965-1.981,3.027-1.865,5.952-2.4,9.441q-.835-1.278-1.669-2.554c-1.009,2.2-2.229,4.37-3.1,6.625-.558,1.439-.47,3.482-1.03,4.741-.7,1.581-1.559,1.37-2.435,2.687-.937,1.407-1.238,3.3-2.225,4.809-4.268,6.525-5.91,14.806-8.1,22.251-2.942,9.989-2.477,21.47-2.318,31.77a241.292,241.292,0,0,0,2.4,32.523A78.283,78.283,0,0,0,36.173,427.5c4.323,7.448,10.284,11.788,17.92,15.6,3.506,1.752,6.761,1.211,10.441,1.491,4.032.306,6.781,1.4,11.046.438,2.047-.462,3.015-1.952,4.641-2.448,1.006-.307,1.549.195,2.514.078,1.382-.168,4.256-.845,5.755-.682,4.664.509,3.881,7.557,4.34,11.155.706,5.544,1.224,11.147,2.176,16.655,2,11.586,6.327,22.409,8.882,33.794-11.844,1.445-22,3.654-33.1,8.135-11.136,4.495-22.4,6.02-34.115,8.255-10.964,2.09-21.51,6-30.286,13.073-4.114,3.315-8.387,7.2-5.366,12.656,1.932,3.492,5.414,4.38,8.42,6.409.607-.768-1.149-2.4-1.471-2.848,2.527.519,2.449,1.7,4.295,2.724,1.613.9,2.933.865,4.7,1.5,4.31,1.548,6.428,5.41,10.689,6.495,1.34.341,3.094,1.156,4.464,1.388,1.646.278,2.879-.442,4.548-.137a9.241,9.241,0,0,0,2.922,1.271q1.029-.477,2.032-1.009c2.4.249,3.879,1.756,5.826,2.995.13-1.56-.057-3.182,1.42-4.2.577,1.518-.355,2.478,1.219,3.522,1.995,1.324,4.615-.328,6.4-1.165.5,5.044,12.187,4.747,15.89,4.675,5.128-.1,10.25-2.133,15.423-1,2.639.578,5.456,1.182,8.083,1.934,3.163.9,6.988,1.711,10.1,2.851,1.238.453,2.755,1.906,4.073,1.808,1.049-.079,1.33-1.626,2.552-1.582,1.382.051,1.847,1.59,3.043,2.053,1.79.692,3.437-.624,5.138.04.612.239,1.441,1.263,2.223,1.6,1.189.506,3.54.513,4.863.757a40.241,40.241,0,0,0,5.159.228c1.3.093,1.267.964,1.887,1.02.711.064,1.949-2.38,2.9-2.737,1.391-.522,3.916.721,5.334.94a200.721,200.721,0,0,1-36.1,37.008C92.57,623.87,77.735,635.479,62.2,645.676c-14.105,9.258-27.76,17.265-38.7,30.334-9.221,11.02-23.9,22.81-21.637,38.783s19.6,22.454,33.487,25.5c17.47,3.832,35.454,2.289,52.971,4.444,7.47.919,15.771.429,23.291-.354,8.882-.925,16.494-6.719,24.129-10.909,13.734-7.537,25.477-17.62,39.005-25.392,16.938-9.732,33.7-20.043,52.268-26.56,8.639-3.032,17.533-6.493,24.5-12.729,1.037-.928,1.809-2.329,2.981-3.094,1.992-1.3,2.526.018,3.682-.376.89-.3,1.751-1.263,2.52-1.551,1.949-.73,2.818-.429,5-.429-1.872-1.079-3.586-3.861-1.643-6.128,3.328-3.884,3.9,2.322,5.152,3.76,1.059-1.361.653-2.573.382-4.12l2.688,1.773a11.194,11.194,0,0,1,1.556-8.36c1.463-2.4,1.824-2.066,2.228-5.4,4.544,4.147,5.433-5.919,5.842-9.589.4-3.559,0-6.114,2.346-9.225,2.513-3.341,6.336-5.453,9.526-8.049,5.04-4.1,10.585-9.282,17.555-5.348,5.5,3.106,8.5,10.719,13.659,14.631,3.131,2.374,6.436,2.613,8.432,6.293,1.614,2.975,2.138,6.536,3.662,9.59,3.691,7.4,9,15.877,15.066,21.556,5.642,5.287,12.885,5.26,19.487,8.538,6.536,3.247,13.327,6.764,20.246,9.117,7.556,2.57,15.7,3.662,23.061,6.775,3.784,1.6,7.168,4.013,10.986,5.547,4.117,1.653,8.454,2.818,12.626,4.333,16.53,6,32.706,13.362,50.072,16.689,7.7,1.475,14.833,5.484,22.591,6.327a62.633,62.633,0,0,1,9.3,1.653c5.109,1.305,4.027,2,5.91,6.258,3.1,7.01,10.657,2.859,16.486,3.034,9.329.281,18.517-1.226,27.831-1.3,16.29-.125,31.975-1.96,47.734-7.306,15.82-5.368,33.832-18.3,20.684-36.174" transform="translate(1135.92 167)" stroke="#707070" stroke-width="1" fill-rule="evenodd"/>
      <path id="ink-2" data-name="ink" d="M1579.094,492.062c.223.223.746.358,0,0" transform="translate(7.69 -184.568)" stroke="#707070" stroke-width="1" fill-rule="evenodd"/>
      <path id="ink-3" data-name="ink" d="M537.9,1512.883c3.539-3.584,18.592-2.86,19.73,3.552,1.269,7.156-12.182,17.966-17.1,21-6.335,3.9-14.068,4.631-12.944-5.162.849-7.4,5.282-14.283,10.319-19.387m12.432-7.378c.459,1.982-2.924,1.308-3.856.838-.439-.9,3.4-2.828,3.856-.838m-25.959,13.124c3,.27,6.443-4.545,8.708-6.186,1,1.547-5.6,10.05-6.327,11.991-1.814,4.848-2.823,10.973-.351,15.809,7.228,14.131,25.725-6.048,30.352-13.1,3.237-4.93,5.478-11.043.906-15.874-1.628-1.721-4.317-2.2-5.829-3.834-1.99-2.151-.424-4.928-4.426-4.458-2.761.324-6.077,2.814-8.761,3.716a32.512,32.512,0,0,0-8.969,4.223c-.636.453-9.012,7.377-5.3,7.71" transform="translate(761.941 -906.811)" stroke="#707070" stroke-width="1" fill-rule="evenodd"/>
      <path id="ink-4" data-name="ink" d="M1172.889,1520.663c-1.887,9.709-11.511,19.668-21.637,20.055-10.085.385-13.349-10.177-11.569-18.6,1.518-7.18,7.726-19.653,16.582-18.279,6.963,1.079,18.242,8.5,16.625,16.82m-6.422-16.227c-6.394-4.945-15.228-7.234-22.639-3.31-2.43,1.286-12.129,6.961-9.178,10.8,3.98-3.082,7.415-7.361,12.586-8.386-.87,4.008-5.836,7.613-7.586,11.516a31.636,31.636,0,0,0-2.83,14.787c.6,8.917,6.571,15.846,15.821,14.62,8.469-1.122,15.872-7.611,19.912-14.9,5.394-9.741,2.355-18.595-6.087-25.124" transform="translate(325.631 -904.102)" stroke="#707070" stroke-width="1" fill-rule="evenodd"/>
      <path id="ink-5" data-name="ink" d="M963.46,1594.2c-4.553,6.739-11.495,13.077-19.521,15.158-10.39,2.693-7.471-5.89-4.366-12.05,2.746-5.446,7.456-14.815,14.627-14.765a22.744,22.744,0,0,1,9.1,2.494c4.2,2.565,2.555,5.617.158,9.162m-9.7-14.809c1.634-1.819,8.868-9.619,9.838-3.539,2.077-2.408.438-4.406-2.221-4.66-3.208-.307-6.716,3.265-9.031,5.039a44.947,44.947,0,0,0-11.591,12.507c-3.481,5.643-12.359,18.4-4.59,23.994,8.4,6.052,20.621-5.125,25.879-10.889,3.363-3.687,7.817-9.1,6.538-14.508-1.57-6.641-9.3-7.338-14.821-7.944" transform="translate(469.261 -955.575)" stroke="#707070" stroke-width="1" fill-rule="evenodd"/>
      <path id="ink-6" data-name="ink" d="M806.822,1178.219c-4.7,5.36-14.245,13.169-22.11,12.249-7.174-.839-4.373-8.888-1.834-12.784,3.814-5.854,8.923-11.351,16.306-11.671,3.187-.138,7.317-.073,9.786,2.339,3.371,3.3.335,7.036-2.147,9.866m-.5-14.891c-5.5-1.9-7.667-2.626-13.017.4a36.722,36.722,0,0,0-11.055,9.753c-4.412,5.831-8.862,18.947,2.468,20.587,12.426,1.8,41.987-23.692,21.6-30.737" transform="translate(580.371 -662.995)" stroke="#707070" stroke-width="1" fill-rule="evenodd"/>
      <path id="ink-7" data-name="ink" d="M899.139,1248.264a25.877,25.877,0,0,1-13.131,7.645c2.155-4.806,6.967-15.308,12.672-16.771,2.628-.675,5.625.209,5.409,3.2-.156,2.164-3.539,4.482-4.949,5.923m4.6-12.706c-2.96-1.483-2.027-2.5-5.471-1.333a29.3,29.3,0,0,0-8.4,4.338c-1.233,1-5.072,4.544-4.6,6.348.852,3.278,3.715-1.745,4.467-2.711,1.29,1.051-5.306,10.486-5.7,12.039-1.463,5.783,3.077,6.394,7.528,4.5,6-2.55,23.771-17.375,12.173-23.184" transform="translate(504.491 -714.468)" stroke="#707070" stroke-width="1" fill-rule="evenodd"/>
      <path id="ink-8" data-name="ink" d="M1257.306,1751.466c.443-3.833,1.073-7.887,4.592-10.039,3.171-1.941,6.455-1.66,6.925,2.32.437,3.7-3.186,10.26-6.116,12.276-4.08,2.808-4.866-.693-5.4-4.557m5.242,8.723c8.376-4.9,13.656-27.371-1.785-21.073-8.775,3.579-5.548,25.362,1.785,21.073" transform="translate(238.911 -1074.774)" stroke="#707070" stroke-width="1" fill-rule="evenodd"/>
      <path id="ink-9" data-name="ink" d="M1020.277,1463.825c1.321-2.707,2.832-3.6,5.511-4.789-1.786,1.685-3.611,3.242-5.511,4.789m1.932-6.67c-1.9,1.9-6.245,4.8-5.636,8.073.557,2.983,2.835,2.812,4.9,1.882,4.336-1.948,6.749-10.478,11.284-11.277-5.03-3.187-6.2-3.039-10.551,1.322" transform="translate(409.641 -871.594)" stroke="#707070" stroke-width="1" fill-rule="evenodd"/>
      <path id="ink-10" data-name="ink" d="M1036.426,759.478q.362,13.626.654,27.251c.071,3.193-.692,7.744.267,10.8.423,1.347,4.25,7.186,5.608,7.564,4.751,1.322,3.054-10.585,3.087-13.517.116-9.891-.03-19.794-.07-29.686-.022-5.1,1.418-47.841-5.2-47.633-1.14.037-3.948,4.924-4.371,5.9-1.329,3.077-.84,7.638-.809,10.918.09,9.462.581,18.937.832,28.4" transform="translate(396.091 -343.323)" stroke="#707070" stroke-width="1" fill-rule="evenodd"/>
      <path id="ink-11" data-name="ink" d="M1174.048,804.924c.373,2.511.177,6.7,3.005,8,2.461,1.132,3.4-.215,4.325-2.319,2.116-4.842,1.353-12.243,1.313-17.249-.078-9.921-1.2-19.8-1.968-29.683-.339-4.336.366-8.692-.177-13.23-.238-1.991-.475-10-4.168-9.629-3.339.337-3.038,8.733-3.22,10.9-1.514,18.007-1.777,35.237.889,53.212" transform="translate(298.531 -362.289)" stroke="#707070" stroke-width="1" fill-rule="evenodd"/>
      <path id="ink-12" data-name="ink" d="M1632.452,1623.961c-1.415,7.232-24.5,32.417-30.317,18.331-3.449-8.357,4.028-17.454,9.857-22.292,3.608-2.994,8.116-5.932,13.034-5.025,4.175.77,8.324,4.392,7.426,8.985m-11.922-12.972c-1.631.386-15.262,9.953-15.387,9.828-1.184-1.188,7.414-14,8.3-15.119,7.289-9.231,12.126-2.241,16.684,5.015-.97-4.334-3.641-10.625-8.1-12.459-5.634-2.313-10.029,3.4-12.739,7.5-3.832,5.8-5.944,12.105-8.073,18.655a40.115,40.115,0,0,1-3.891,8.771c-1.7,2.779-4.666,5.843-4.228,9.359,2.412-1.341,3.694-3.965,5.214-6.127,1.7.686,1.113,6.091,1.457,7.467.866,3.457,3.229,6.161,6.883,6.756,6.811,1.108,14.162-5.192,18.716-9.47,4.8-4.508,9.964-10.688,9.923-17.626-.044-7.249-7.175-14.347-14.753-12.554" transform="translate(-2.279 -974.538)" stroke="#707070" stroke-width="1" fill-rule="evenodd"/>
      <path id="ink-13" data-name="ink" d="M1652.544,1188.654c-3.864,5.912-10.645,13-17.819,14.373-5.266,1.008-8.74-2.894-6.625-8.161,1.787-4.452,7.875-7.263,11.867-9.221,3.166-1.554,17.925-5.172,12.578,3.009m-2.843-9.67c-7.916-.3-14.3,5.422-20.2,9.988,1.333-5.245,4.348-10.951,8.594-14.365,5.778-4.646,11.256-1.761,17.339.562-1.5-4.734-8.237-6.437-12.529-5.768-5.427.846-9.327,5.476-12.071,9.956-3.272,5.344-4.393,11.642-8.245,16.654-1.763,2.294-12.686,10.88-10.212,14.388l12.238-12.987c1.058,5.117,2.224,10.943,8.759,10.445,5.218-.4,11.17-4.833,14.986-8.222,4.928-4.378,14.627-20.15,1.343-20.652" transform="translate(-15.829 -668.413)" stroke="#707070" stroke-width="1" fill-rule="evenodd"/>
      <path id="ink-14" data-name="ink" d="M1316.6,1294.483c-3.353,1.541-10.734,3.636-12.609-.995-2.6-6.432,5.776-17.713,9.765-22,2.454-2.637,4.118-4,7.539-2.295,2.731,1.363,6.744,5.235,7.792,8.212,2.25,6.39-7.242,14.664-12.486,17.075m7.693-30.889c2.731.615,3.065,4.082-.349,2.75-2.559-1-3.153-3.54.349-2.75m3.428,4.882c-1.02-3.11,1.055-7.986-3.967-8.211-2.845-.127-8.058,2.765-10.542,3.94a17.844,17.844,0,0,0-8.482,7.618c-1.666,3.244-.476,4.1,2.062,1.406.31.211-5.742,15.816-5.795,17.379-.236,7.145,4.823,11.851,11.93,10.584,6.531-1.164,12.417-6.5,16.011-11.892a18.278,18.278,0,0,0,3.448-9.191c.21-5.125-3.208-7.185-4.666-11.635" transform="translate(206.391 -733.431)" stroke="#707070" stroke-width="1" fill-rule="evenodd"/>
      <path id="ink-15" data-name="ink" d="M1502.677,1249.6c-2.755-5.305,3.63-14.233,9.346-11.621C1523.927,1243.417,1506.292,1256.557,1502.677,1249.6Zm10.693-6.925c-1.277.051-9.353,3.17-8.165,5.283C1506.837,1250.859,1512.732,1243.842,1513.37,1242.676Z" transform="translate(62.761 -717.177)" stroke="#707070" stroke-width="1" fill-rule="evenodd"/>
      <path id="ink-16" data-name="ink" d="M160.868,1219.324c-.319-2.26-5.386,1.021-5.356,2.476.838-1.676,6.021,2.232,5.356-2.476" transform="translate(1024.811 -703.631)" stroke="#707070" stroke-width="1" fill-rule="evenodd"/>
      <path id="ink-17" data-name="ink" d="M1123.586,547.4c6.45-.474-1.768-33-6.469-30.128-5.1,3.118.55,30.562,6.469,30.128" transform="translate(339.181 -202.454)" stroke="#707070" stroke-width="1" fill-rule="evenodd"/>
      <path id="ink-18" data-name="ink" d="M1176.282,529.5c6.043.865,5.083-13.006,1.832-15.489-6-4.583-9.169,14.438-1.832,15.489" transform="translate(298.531 -199.744)" stroke="#707070" stroke-width="1" fill-rule="evenodd"/>
    </g>
  </g>
</svg>
